<?xml version="1.0" encoding="UTF-8"?>
<svg id="Layer_1" data-name="Layer 1" xmlns="http://www.w3.org/2000/svg" viewBox="0 0 570.43 277.5">
  <defs>
    <style>
      .cls-1 {
        fill: #ff000d;
      }

      .cls-1, .cls-2 {
        stroke-width: 0px;
      }

      .cls-2 {
        fill: red;
      }
    </style>
  </defs>
  <g id="Outlined">
    <g>
      <path class="cls-1" d="M20.09,25.24h27.68l-15.79,112.34H4.29L20.09,25.24ZM31.48,76.52h21.98c2.39,0,4.58-.54,6.59-1.63,2.01-1.08,3.69-2.6,5.05-4.56,1.36-1.95,2.14-4.07,2.36-6.35.33-2.39.11-4.53-.65-6.43-.76-1.9-2.01-3.42-3.75-4.56-1.74-1.14-3.74-1.71-6.02-1.71h-21.98l3.58-26.05h22.63c7.49,0,14.08,1.66,19.78,4.97,5.7,3.31,9.88,7.92,12.54,13.84,2.66,5.92,3.44,12.46,2.36,19.62-.98,7.06-3.58,13.41-7.82,19.05-4.23,5.65-9.58,10.07-16.04,13.27-6.46,3.2-13.43,4.8-20.92,4.8h-23.12l3.42-24.26ZM42.72,97.36l28.66-6.19,17.42,46.4h-33.38l-12.7-40.22Z"/>
      <path class="cls-1" d="M114.68,133.83c-6.3-3.8-10.94-9.01-13.92-15.63-2.99-6.62-3.94-14-2.85-22.14,1.08-8.14,4.07-15.52,8.96-22.14,4.88-6.62,11.04-11.83,18.48-15.63,7.43-3.8,15.33-5.7,23.69-5.7s15.71,1.9,22.06,5.7c6.35,3.8,10.96,9.06,13.84,15.79,2.88,6.73,3.77,14.22,2.69,22.47-.54,3.58-1.09,6.08-1.63,7.49h-66.27l2.28-16.28h45.26l-6.35,8.3.16-1.3c.43-3.91.08-7.35-1.06-10.34-1.14-2.98-2.96-5.32-5.45-7-2.5-1.68-5.43-2.52-8.79-2.52s-6.57.9-9.61,2.69c-3.04,1.79-5.56,4.29-7.57,7.49-2.01,3.2-3.28,6.87-3.83,10.99-.54,4.23-.24,7.92.9,11.07,1.14,3.15,2.98,5.62,5.54,7.41,2.55,1.79,5.67,2.69,9.36,2.69,3.26,0,6.38-.68,9.36-2.04,2.98-1.36,5.18-2.96,6.59-4.8h27.68c-4.23,8.69-10.64,15.71-19.21,21.08-8.58,5.37-18.02,8.06-28.33,8.06-8.36,0-15.69-1.9-21.98-5.7Z"/>
      <path class="cls-1" d="M192.67,54.54h29.8l12.54,61.06h-8.14l29.63-61.06h29.31l-44.94,83.04h-26.7l-21.49-83.04Z"/>
      <path class="cls-1" d="M294.59,54.54h26.05l-11.72,83.04h-26.05l11.72-83.04ZM298.01,40.87c-2.6-3.04-3.58-6.84-2.93-11.4.65-4.45,2.69-8.19,6.11-11.23,3.42-3.04,7.46-4.56,12.13-4.56s8.17,1.52,10.83,4.56c2.66,3.04,3.61,6.78,2.85,11.23-.65,4.56-2.69,8.36-6.11,11.4-3.42,3.04-7.41,4.56-11.97,4.56s-8.3-1.52-10.91-4.56Z"/>
      <path class="cls-1" d="M344.58,133.83c-6.3-3.8-10.94-9.01-13.92-15.63-2.99-6.62-3.94-14-2.85-22.14,1.08-8.14,4.07-15.52,8.96-22.14,4.88-6.62,11.04-11.83,18.48-15.63,7.43-3.8,15.33-5.7,23.69-5.7s15.71,1.9,22.06,5.7c6.35,3.8,10.96,9.06,13.84,15.79,2.88,6.73,3.77,14.22,2.69,22.47-.54,3.58-1.09,6.08-1.63,7.49h-66.27l2.28-16.28h45.26l-6.35,8.3.16-1.3c.43-3.91.08-7.35-1.06-10.34-1.14-2.98-2.96-5.32-5.45-7-2.5-1.68-5.43-2.52-8.79-2.52s-6.57.9-9.61,2.69c-3.04,1.79-5.56,4.29-7.57,7.49-2.01,3.2-3.29,6.87-3.83,10.99-.54,4.23-.25,7.92.9,11.07,1.14,3.15,2.98,5.62,5.54,7.41,2.55,1.79,5.67,2.69,9.36,2.69,3.26,0,6.38-.68,9.36-2.04,2.98-1.36,5.18-2.96,6.59-4.8h27.68c-4.23,8.69-10.64,15.71-19.21,21.08-8.58,5.37-18.02,8.06-28.33,8.06-8.36,0-15.69-1.9-21.98-5.7Z"/>
      <path class="cls-1" d="M422.89,54.54h29.79l8.3,60.89-7-.16,26.38-60.73h26.7l9.28,60.73-7,.16,25.4-60.89h28.98l-40.87,83.04h-26.86l-8.63-60.57h5.54l-25.72,60.57h-26.87l-17.42-83.04Z"/>
    </g>
    <polygon class="cls-2" points="40.42 159.87 49.96 189.24 80.84 189.24 55.86 207.39 65.4 236.76 40.42 218.61 15.44 236.76 24.98 207.39 0 189.24 30.88 189.24 40.42 159.87"/>
    <g>
      <path class="cls-1" d="M97.71,244.28c-4.91-2.71-8.55-6.42-10.93-11.14-2.38-4.72-3.15-10.02-2.31-15.91h24.53c-.28,1.78-.05,3.43.7,4.98.75,1.54,1.87,2.73,3.36,3.57,1.49.84,3.22,1.26,5.19,1.26s3.6-.35,5.19-1.05c1.59-.7,2.92-1.63,4-2.8,1.07-1.17,1.7-2.45,1.89-3.85.28-2.71-.84-4.88-3.36-6.52-2.52-1.63-6.26-3.15-11.21-4.55-7.76-2.05-13.9-5.51-18.43-10.37-4.53-4.86-6.15-11.63-4.84-20.32.65-5.51,2.76-10.49,6.31-14.93,3.55-4.44,8.04-7.94,13.46-10.51,5.42-2.57,11.26-3.85,17.52-3.85s11.89,1.31,16.61,3.92c4.72,2.62,8.25,6.19,10.58,10.72,2.33,4.53,3.08,9.6,2.24,15.21h-24.53c.28-1.59.12-3.04-.49-4.35-.61-1.31-1.57-2.33-2.87-3.08-1.31-.75-2.85-1.12-4.63-1.12-1.59,0-3.08.3-4.49.91-1.4.61-2.57,1.45-3.5,2.52-.94,1.08-1.5,2.27-1.68,3.57-.28,2.62.68,4.72,2.87,6.31,2.19,1.59,5.72,3.04,10.58,4.34,8.32,2.43,14.79,5.91,19.41,10.44,4.63,4.53,6.33,11.24,5.12,20.11-.84,5.79-3.11,11-6.8,15.63-3.69,4.63-8.39,8.27-14.09,10.93-5.7,2.66-11.77,3.99-18.22,3.99s-12.26-1.36-17.17-4.06Z"/>
      <path class="cls-1" d="M172.91,245.05c-3.64-2.19-6.26-5.3-7.85-9.32-1.59-4.02-1.96-8.69-1.12-14.02l6.45-46.54h22.57l-5.75,39.67c-.47,3.55.19,6.4,1.96,8.55,1.77,2.15,4.3,3.22,7.57,3.22,3.64,0,6.75-1.12,9.32-3.36,2.57-2.24,4.09-5.14,4.56-8.69l9.39,3.08c-3.46,9.91-8.11,17.5-13.95,22.78-5.84,5.28-12.5,7.92-19.97,7.92-5.14,0-9.53-1.1-13.18-3.29ZM216.22,175.18h22.43l-10.09,71.49h-22.43l10.09-71.49Z"/>
      <path class="cls-1" d="M254.07,175.18h22.43l-10.09,71.49h-22.43l10.09-71.49ZM270.82,189.47c3.41-4.95,7.24-8.76,11.49-11.42,4.25-2.66,8.71-4,13.39-4l-3.36,23.13c-4.11,0-7.69.7-10.72,2.1-3.04,1.4-5.44,3.36-7.22,5.89-1.78,2.52-2.94,5.51-3.5,8.97l-8.69-7.57c2.33-6.45,5.21-12.15,8.62-17.1Z"/>
      <path class="cls-1" d="M305.37,175.18h22.43l-13.88,98.12h-22.43l13.88-98.12ZM322.33,243.51c-4.11-3.22-7.03-7.68-8.76-13.39-1.73-5.7-2.13-12.1-1.19-19.2.93-7.1,3.08-13.48,6.45-19.13,3.36-5.65,7.59-10.11,12.69-13.39,5.09-3.27,10.63-4.91,16.61-4.91,6.45,0,12.03,1.64,16.75,4.91,4.72,3.27,8.15,7.76,10.3,13.46,2.15,5.7,2.75,12.05,1.82,19.06-.94,7.01-3.32,13.36-7.15,19.06-3.83,5.7-8.57,10.19-14.23,13.46-5.66,3.27-11.7,4.91-18.15,4.91-5.98,0-11.03-1.61-15.14-4.84ZM344.41,224.59c2.57-1.35,4.7-3.25,6.38-5.68,1.68-2.43,2.71-5.09,3.08-7.99.37-2.9.07-5.56-.91-7.99-.98-2.43-2.57-4.32-4.77-5.68-2.2-1.35-4.74-2.03-7.64-2.03s-5.77.68-8.34,2.03c-2.57,1.36-4.7,3.25-6.38,5.68-1.68,2.43-2.71,5.09-3.08,7.99-.38,2.9-.07,5.56.91,7.99.98,2.43,2.57,4.32,4.77,5.68,2.19,1.36,4.74,2.03,7.64,2.03s5.77-.68,8.34-2.03Z"/>
      <path class="cls-1" d="M397.6,145.74h22.43l-12.62,90.55-8.69-10.09h21.17l-2.94,20.46h-33.5l14.16-100.92Z"/>
      <path class="cls-1" d="M437.55,245.05c-3.64-2.19-6.26-5.3-7.85-9.32-1.59-4.02-1.96-8.69-1.12-14.02l6.45-46.54h22.57l-5.75,39.67c-.47,3.55.19,6.4,1.96,8.55,1.77,2.15,4.3,3.22,7.57,3.22,3.64,0,6.75-1.12,9.32-3.36,2.57-2.24,4.09-5.14,4.56-8.69l9.39,3.08c-3.46,9.91-8.11,17.5-13.95,22.78-5.84,5.28-12.5,7.92-19.97,7.92-5.14,0-9.53-1.1-13.18-3.29ZM480.86,175.18h22.43l-10.09,71.49h-22.43l10.09-71.49Z"/>
      <path class="cls-1" d="M518.64,245.12c-4.07-2.15-7.08-5.02-9.04-8.62-1.96-3.6-2.66-7.59-2.1-11.98h22.43c-.28,1.96.12,3.53,1.19,4.7,1.07,1.17,2.59,1.75,4.56,1.75,1.68,0,3.18-.44,4.49-1.33,1.31-.89,2.05-1.98,2.24-3.29.19-1.87-.63-3.32-2.45-4.35-1.82-1.03-4.37-1.91-7.64-2.66-6.45-1.31-11.63-3.74-15.56-7.29-3.92-3.55-5.38-8.74-4.34-15.56.75-4.86,2.61-9.04,5.61-12.55,2.99-3.5,6.7-6.12,11.14-7.85,4.44-1.73,9.18-2.59,14.23-2.59s9.69,1.01,13.67,3.01c3.97,2.01,6.91,4.77,8.83,8.27,1.91,3.5,2.59,7.31,2.03,11.42h-22.43c.28-1.49-.05-2.76-.98-3.79-.94-1.03-2.2-1.54-3.79-1.54-1.5,0-2.8.4-3.92,1.19-1.12.8-1.73,1.75-1.82,2.87-.19,1.68.58,3.08,2.31,4.21,1.73,1.12,4.46,2.1,8.2,2.94,6.45,1.5,11.54,3.88,15.28,7.15,3.74,3.27,5.14,8.32,4.21,15.14-.66,5.05-2.55,9.35-5.68,12.9-3.13,3.55-7.01,6.29-11.63,8.2-4.62,1.91-9.56,2.87-14.79,2.87s-10.16-1.08-14.23-3.22Z"/>
    </g>
  </g>
</svg>