<svg width="204" height="100" viewBox="0 0 204 100" fill="none" xmlns="http://www.w3.org/2000/svg">
<path d="M7.18062 9.02136H17.0741L11.4304 49.1744H1.53333L7.18062 9.02136ZM11.2517 27.3501H19.1079C19.9621 27.3501 20.7449 27.157 21.4633 26.7674C22.1817 26.3814 22.7822 25.8381 23.2683 25.1376C23.7544 24.4406 24.0332 23.6829 24.1118 22.8679C24.2298 22.0137 24.1511 21.2488 23.8795 20.5697C23.6078 19.8906 23.1611 19.3473 22.5392 18.9399C21.9172 18.5324 21.2024 18.3287 20.3875 18.3287H12.5313L13.8109 9.01776H21.8994C24.5765 9.01776 26.932 9.61109 28.9693 10.7942C31.0066 11.9773 32.5004 13.625 33.4512 15.7409C34.4019 17.8569 34.6808 20.1944 34.2949 22.7536C33.9447 25.277 33.0152 27.5467 31.4999 29.5624C29.988 31.5819 28.0755 33.1617 25.7667 34.3056C23.4577 35.4494 20.9665 36.0212 18.2894 36.0212H10.0257L11.2481 27.3501H11.2517ZM15.2691 34.7988L25.5129 32.5862L31.7393 49.1709H19.8084L15.2691 34.7953V34.7988Z" fill="black"/>
<path d="M40.9893 47.834C38.7376 46.4758 37.0793 44.6137 36.014 42.2474C34.9452 39.8812 34.6057 37.2436 34.9953 34.3341C35.3815 31.4245 36.4502 28.7869 38.1978 26.4207C39.9422 24.0546 42.1438 22.1924 44.803 20.8342C47.4588 19.476 50.2825 18.7968 53.2704 18.7968C56.2584 18.7968 58.8857 19.476 61.1552 20.8342C63.4248 22.1924 65.0725 24.0724 66.1021 26.4779C67.1314 28.8833 67.4494 31.5603 67.0635 34.5093C66.8704 35.7887 66.6739 36.6824 66.4808 37.1863H42.7944L43.6094 31.3675H59.7864L57.5168 34.3341L57.5738 33.8693C57.7275 32.472 57.6026 31.2424 57.1951 30.1736C56.7876 29.1086 56.137 28.2721 55.247 27.6716C54.3535 27.0713 53.3063 26.7709 52.1052 26.7709C50.9044 26.7709 49.7571 27.0926 48.6705 27.7326C47.5839 28.3722 46.6832 29.2657 45.9647 30.4096C45.2464 31.5534 44.7924 32.865 44.5958 34.3378C44.4027 35.8497 44.5101 37.1685 44.9175 38.2942C45.325 39.4202 45.9825 40.303 46.8976 40.9427C47.809 41.5827 48.9243 41.9044 50.2431 41.9044C51.4083 41.9044 52.5236 41.6613 53.5886 41.1752C54.6536 40.6892 55.4401 40.1172 55.9439 39.4596H65.8374C64.3255 42.5654 62.0346 45.0747 58.9714 46.994C55.9048 48.9134 52.5305 49.8748 48.8455 49.8748C45.8576 49.8748 43.2376 49.1957 40.9893 47.8375V47.834Z" fill="black"/>
<path d="M68.8649 19.4939H79.5161L83.9982 41.3183H81.0889L91.6794 19.4939H102.156L86.0928 49.1744H76.5496L68.8684 19.4939H68.8649Z" fill="black"/>
<path d="M105.294 19.4938H114.605L110.415 49.1744H101.105L105.294 19.4938ZM106.516 14.6079C105.587 13.5213 105.236 12.1631 105.469 10.5332C105.701 8.9427 106.43 7.60592 107.653 6.51937C108.875 5.43279 110.319 4.8895 111.988 4.8895C113.657 4.8895 114.908 5.43279 115.859 6.51937C116.81 7.60592 117.149 8.9427 116.878 10.5332C116.645 12.1631 115.916 13.5213 114.694 14.6079C113.471 15.6944 112.045 16.2377 110.415 16.2377C108.786 16.2377 107.449 15.6944 106.516 14.6079Z" fill="black"/>
<path d="M123.161 47.834C120.909 46.4758 119.251 44.6137 118.186 42.2474C117.117 39.8812 116.778 37.2436 117.167 34.3341C117.553 31.4245 118.622 28.7869 120.37 26.4207C122.114 24.0546 124.316 22.1924 126.975 20.8342C129.631 19.476 132.454 18.7968 135.442 18.7968C138.431 18.7968 141.057 19.476 143.327 20.8342C145.597 22.1924 147.245 24.0724 148.274 26.4779C149.303 28.8833 149.621 31.5603 149.235 34.5093C149.042 35.7887 148.846 36.6824 148.653 37.1863H124.966L125.781 31.3675H141.958L139.689 34.3341L139.746 33.8693C139.9 32.472 139.774 31.2424 139.367 30.1736C138.959 29.1086 138.309 28.2721 137.419 27.6716C136.525 27.0713 135.478 26.7709 134.277 26.7709C133.076 26.7709 131.929 27.0926 130.842 27.7326C129.756 28.3722 128.855 29.2657 128.136 30.4096C127.418 31.5534 126.961 32.865 126.768 34.3378C126.575 35.8497 126.678 37.1685 127.089 38.2942C127.497 39.4202 128.154 40.303 129.069 40.9427C129.981 41.5827 131.096 41.9044 132.415 41.9044C133.58 41.9044 134.695 41.6613 135.76 41.1752C136.826 40.6892 137.612 40.1172 138.116 39.4596H148.009C146.498 42.5654 144.206 45.0747 141.143 46.994C138.077 48.9134 134.703 49.8748 131.018 49.8748C128.029 49.8748 125.409 49.1957 123.161 47.8375V47.834Z" fill="black"/>
<path d="M151.151 19.4939H161.799L164.765 41.2575L162.263 41.2003L171.692 19.4939H181.236L184.552 41.2003L182.051 41.2575L191.129 19.4939H201.487L186.879 49.1744H177.279L174.194 27.5253H176.175L166.981 49.1744H157.378L151.151 19.4939Z" fill="black"/>
<path d="M14.4471 57.1416L17.8569 67.639H28.8942L19.9657 74.1263L23.3756 84.6238L14.4471 78.1365L5.51863 84.6238L8.92846 74.1263L0 67.639H11.0373L14.4471 57.1416Z" fill="#FB9804"/>
<path d="M34.9239 87.3115C33.1689 86.3426 31.8679 85.0166 31.0173 83.3297C30.1667 81.6426 29.8913 79.7483 30.1917 77.643H38.9592C38.8591 78.2793 38.9413 78.8689 39.2095 79.4231C39.4774 79.9733 39.8777 80.3986 40.4104 80.6991C40.943 80.9992 41.5614 81.1494 42.2653 81.1494C42.9694 81.1494 43.5521 81.0242 44.1204 80.7742C44.6888 80.5238 45.1641 80.1915 45.55 79.7733C45.9325 79.3552 46.1578 78.8977 46.2257 78.3973C46.3258 77.4287 45.9256 76.6529 45.0246 76.0667C44.1239 75.4843 42.7873 74.941 41.0181 74.4406C38.2444 73.7079 36.0497 72.4711 34.4307 70.7339C32.8115 68.997 32.2325 66.5773 32.7007 63.4712C32.9329 61.5018 33.6872 59.7217 34.9562 58.135C36.2249 56.548 37.8297 55.2968 39.7669 54.3783C41.7041 53.4597 43.7915 53.0022 46.0292 53.0022C48.2665 53.0022 50.2788 53.4704 51.9659 54.4033C53.653 55.3397 54.9146 56.6159 55.7474 58.2348C56.5802 59.854 56.8483 61.6661 56.5482 63.6714H47.7805C47.8806 63.1031 47.8233 62.5849 47.6052 62.1164C47.3874 61.6482 47.0441 61.2836 46.5796 61.0157C46.1112 60.7475 45.561 60.6154 44.9247 60.6154C44.3564 60.6154 43.8238 60.7225 43.3199 60.9406C42.8195 61.1587 42.4011 61.4589 42.0687 61.8413C41.7329 62.2272 41.5326 62.6528 41.4684 63.1172C41.3683 64.0539 41.7113 64.8044 42.494 65.3727C43.277 65.941 44.5386 66.4593 46.2758 66.924C49.2495 67.7925 51.5619 69.0362 53.2134 70.6554C54.8683 72.2746 55.4757 74.6728 55.0432 77.8433C54.7431 79.9126 53.9316 81.775 52.6128 83.4296C51.294 85.0845 49.6141 86.3858 47.5767 87.3365C45.5394 88.287 43.37 88.7624 41.0644 88.7624C38.7592 88.7624 36.6824 88.2764 34.9274 87.3115H34.9239Z" fill="black"/>
<path d="M61.8021 87.5868C60.5012 86.8041 59.5648 85.6925 58.9965 84.2555C58.4282 82.8187 58.2958 81.1497 58.5962 79.2444L60.9015 62.6099H68.9685L66.9133 76.789C66.7453 78.0577 66.9812 79.0764 67.614 79.845C68.2465 80.6133 69.1509 80.9957 70.3195 80.9957C71.6208 80.9957 72.7321 80.5955 73.6509 79.7949C74.5695 78.9943 75.1127 77.9578 75.2808 76.6888L78.6369 77.7898C77.4002 81.3318 75.7381 84.0448 73.6509 85.9319C71.5635 87.8191 69.1829 88.7626 66.5131 88.7626C64.676 88.7626 63.1068 88.3696 61.8021 87.5868ZM77.2822 62.6136H85.2992L81.6929 88.1658H73.676L77.2822 62.6136Z" fill="black"/>
<path d="M90.8109 62.6134H98.8279L95.2214 88.1658H87.2044L90.8109 62.6134ZM96.7977 67.7211C98.0164 65.9519 99.3853 64.59 100.904 63.6392C102.423 62.6885 104.018 62.2096 105.69 62.2096L104.489 70.4767C103.02 70.4767 101.741 70.727 100.658 71.2274C99.5712 71.7278 98.7134 72.4283 98.0771 73.3327C97.4409 74.2334 97.0265 75.3021 96.8262 76.5386L93.7202 73.8331C94.5529 71.5276 95.5823 69.4902 96.8012 67.7211H96.7977Z" fill="black"/>
<path d="M109.147 62.6133H117.164L112.203 97.684H104.186L109.147 62.6133ZM115.209 87.0364C113.74 85.8853 112.696 84.2911 112.077 82.2503C111.459 80.213 111.316 77.9256 111.652 75.3879C111.985 72.8501 112.753 70.5696 113.957 68.5504C115.159 66.5309 116.67 64.9367 118.493 63.7644C120.313 62.5955 122.293 62.0093 124.43 62.0093C126.735 62.0093 128.73 62.5955 130.417 63.7644C132.104 64.9332 133.33 66.5381 134.098 68.5754C134.867 70.6128 135.081 72.8823 134.749 75.3879C134.413 77.8934 133.562 80.1629 132.193 82.2003C130.824 84.2376 129.13 85.8424 127.107 87.0113C125.084 88.1799 122.925 88.7661 120.62 88.7661C118.482 88.7661 116.678 88.1908 115.209 87.0364ZM123.1 80.2737C124.019 79.7912 124.78 79.112 125.381 78.2436C125.981 77.3751 126.349 76.4244 126.482 75.3879C126.614 74.3513 126.507 73.4006 126.156 72.5321C125.806 71.6634 125.238 70.988 124.451 70.5017C123.665 70.0194 122.757 69.7762 121.721 69.7762C120.684 69.7762 119.659 70.0194 118.74 70.5017C117.821 70.988 117.06 71.6634 116.459 72.5321C115.859 73.4006 115.491 74.3513 115.359 75.3879C115.223 76.4244 115.334 77.3751 115.684 78.2436C116.034 79.112 116.603 79.7877 117.389 80.2737C118.172 80.76 119.083 80.9994 120.12 80.9994C121.156 80.9994 122.182 80.7563 123.1 80.2737Z" fill="black"/>
<path d="M142.112 52.0909H150.129L145.618 84.4557L142.512 80.8493H150.079L149.028 88.1621H137.054L142.116 52.0909H142.112Z" fill="black"/>
<path d="M156.391 87.5868C155.09 86.8041 154.153 85.6925 153.585 84.2555C153.017 82.8187 152.885 81.1497 153.185 79.2444L155.49 62.6099H163.557L161.502 76.789C161.334 78.0577 161.57 79.0764 162.203 79.845C162.835 80.6133 163.74 80.9957 164.908 80.9957C166.209 80.9957 167.321 80.5955 168.24 79.7949C169.158 78.9943 169.701 77.9578 169.869 76.6888L173.226 77.7898C171.989 81.3318 170.327 84.0448 168.24 85.9319C166.152 87.8191 163.772 88.7626 161.102 88.7626C159.265 88.7626 157.695 88.3696 156.391 87.5868ZM171.871 62.6136H179.888L176.282 88.1658H168.265L171.871 62.6136Z" fill="black"/>
<path d="M185.374 87.6116C183.92 86.8433 182.844 85.8174 182.144 84.5306C181.443 83.244 181.193 81.8179 181.393 80.2487H189.41C189.31 80.9494 189.453 81.5105 189.835 81.9286C190.217 82.3468 190.761 82.5542 191.465 82.5542C192.065 82.5542 192.602 82.3968 193.07 82.0788C193.538 81.7606 193.803 81.371 193.871 80.9028C193.939 80.2343 193.645 79.7161 192.995 79.348C192.344 78.98 191.433 78.6654 190.264 78.3973C187.959 77.9291 186.107 77.0606 184.703 75.7916C183.301 74.5229 182.779 72.6677 183.151 70.2301C183.419 68.4931 184.084 66.9991 185.156 65.7445C186.225 64.4936 187.551 63.5569 189.138 62.9388C190.725 62.3204 192.419 62.0131 194.224 62.0131C196.029 62.0131 197.688 62.3739 199.11 63.0887C200.529 63.8073 201.58 64.7937 202.266 66.0446C202.949 67.2958 203.192 68.6575 202.992 70.1265H194.975C195.075 69.5938 194.957 69.14 194.625 68.772C194.289 68.4037 193.838 68.2215 193.27 68.2215C192.734 68.2215 192.269 68.3645 191.869 68.6468C191.469 68.9326 191.251 69.2721 191.218 69.6727C191.15 70.273 191.426 70.7734 192.044 71.1774C192.662 71.5776 193.638 71.9278 194.975 72.2283C197.28 72.7644 199.099 73.615 200.436 74.7838C201.773 75.9525 202.273 77.7576 201.941 80.1952C201.705 82 201.03 83.5369 199.911 84.8059C198.792 86.0747 197.405 87.0542 195.754 87.7368C194.103 88.4194 192.337 88.7626 190.468 88.7626C188.599 88.7626 186.836 88.3765 185.382 87.6116H185.374Z" fill="black"/>
</svg>
