<svg width="766" height="373" viewBox="0 0 766 373" fill="none" xmlns="http://www.w3.org/2000/svg">
<path d="M26.9626 33.8743H64.1118L42.9201 184.645H5.75757L26.9626 33.8743ZM42.2491 102.697H71.7483C74.9559 102.697 77.8951 101.972 80.5927 100.509C83.2903 99.0597 85.545 97.0197 87.3702 94.3892C89.1955 91.7721 90.2423 88.9269 90.5376 85.8669C90.9805 82.6593 90.6852 79.7873 89.6652 77.2373C88.6452 74.6873 86.9676 72.6473 84.6324 71.1173C82.2971 69.5874 79.6129 68.8224 76.553 68.8224H47.0538L51.8585 33.8608H82.23C92.2823 33.8608 101.127 36.0887 108.777 40.531C116.427 44.9734 122.036 51.1604 125.606 59.1056C129.176 67.0508 130.223 75.8281 128.774 85.4375C127.459 94.9126 123.969 103.435 118.279 111.004C112.602 118.587 105.421 124.519 96.7515 128.814C88.0815 133.109 78.7272 135.256 68.6749 135.256H37.6457L42.2357 102.697H42.2491ZM57.3342 130.666L95.7986 122.358L119.178 184.632H74.3788L57.3342 130.653V130.666Z" fill="black"/>
<path d="M153.911 179.612C145.456 174.512 139.229 167.52 135.229 158.635C131.216 149.75 129.941 139.846 131.404 128.921C132.854 117.996 136.867 108.092 143.429 99.2072C149.979 90.3225 158.246 83.3302 168.231 78.2303C178.203 73.1303 188.806 70.5803 200.025 70.5803C211.245 70.5803 221.11 73.1303 229.632 78.2303C238.154 83.3302 244.341 90.3896 248.207 99.4219C252.072 108.454 253.266 118.506 251.817 129.579C251.092 134.383 250.354 137.739 249.629 139.631H160.689L163.749 117.782H224.492L215.97 128.921L216.184 127.176C216.761 121.929 216.292 117.312 214.762 113.299C213.232 109.3 210.789 106.159 207.447 103.904C204.092 101.65 200.16 100.522 195.65 100.522C191.141 100.522 186.833 101.73 182.753 104.133C178.673 106.535 175.291 109.89 172.593 114.185C169.896 118.48 168.191 123.405 167.453 128.935C166.728 134.612 167.131 139.564 168.661 143.791C170.191 148.019 172.66 151.334 176.096 153.736C179.518 156.139 183.706 157.347 188.658 157.347C193.033 157.347 197.221 156.434 201.22 154.609C205.219 152.784 208.172 150.636 210.064 148.167H247.213C241.536 159.829 232.934 169.251 221.432 176.458C209.917 183.665 197.247 187.275 183.41 187.275C172.191 187.275 162.353 184.725 153.911 179.625V179.612Z" fill="black"/>
<path d="M258.581 73.1978H298.575L315.405 155.146H304.481L344.247 73.1978H383.584L323.27 184.645H287.436L258.594 73.1978H258.581Z" fill="black"/>
<path d="M395.367 73.1975H430.329L414.599 184.645H379.638L395.367 73.1975ZM399.957 54.8511C396.468 50.7712 395.152 45.6712 396.025 39.5513C396.897 33.579 399.635 28.5595 404.225 24.4796C408.815 20.3996 414.237 18.3596 420.505 18.3596C426.772 18.3596 431.469 20.3996 435.039 24.4796C438.609 28.5595 439.884 33.579 438.864 39.5513C437.992 45.6712 435.254 50.7712 430.664 54.8511C426.074 58.9311 420.719 60.9711 414.599 60.9711C408.479 60.9711 403.46 58.9311 399.957 54.8511Z" fill="black"/>
<path d="M462.458 179.612C454.003 174.512 447.776 167.52 443.776 158.635C439.764 149.75 438.489 139.846 439.951 128.921C441.401 117.996 445.414 108.092 451.977 99.2072C458.526 90.3225 466.793 83.3302 476.778 78.2303C486.75 73.1303 497.353 70.5803 508.573 70.5803C519.793 70.5803 529.657 73.1303 538.179 78.2303C546.701 83.3302 552.889 90.3896 556.754 99.4219C560.619 108.454 561.813 118.506 560.364 129.579C559.639 134.383 558.901 137.739 558.176 139.631H469.236L472.296 117.782H533.039L524.517 128.921L524.731 127.176C525.309 121.929 524.839 117.312 523.309 113.299C521.779 109.3 519.336 106.159 515.994 103.904C512.639 101.65 508.707 100.522 504.197 100.522C499.688 100.522 495.38 101.73 491.3 104.133C487.22 106.535 483.838 109.89 481.14 114.185C478.443 118.48 476.725 123.405 476 128.935C475.275 134.612 475.665 139.564 477.208 143.791C478.738 148.019 481.207 151.334 484.643 153.736C488.065 156.139 492.253 157.347 497.205 157.347C501.58 157.347 505.768 156.434 509.767 154.609C513.767 152.784 516.719 150.636 518.612 148.167H555.761C550.084 159.829 541.481 169.251 529.979 176.458C518.464 183.665 505.795 187.275 491.958 187.275C480.738 187.275 470.9 184.725 462.458 179.625V179.612Z" fill="black"/>
<path d="M567.558 73.1978H607.539L618.678 154.918L609.283 154.703L644.688 73.1978H680.522L692.976 154.703L683.582 154.918L717.671 73.1978H756.565L701.713 184.645H665.665L654.082 103.355H661.518L626.999 184.645H590.937L567.558 73.1978Z" fill="black"/>
<path d="M54.2474 214.561L67.051 253.978H108.495L74.9693 278.337L87.7729 317.754L54.2474 293.395L20.7219 317.754L33.5255 278.337L0 253.978H41.4438L54.2474 214.561Z" fill="#FFD900"/>
<path d="M131.136 327.846C124.546 324.208 119.661 319.229 116.467 312.895C113.273 306.56 112.239 299.447 113.367 291.542H146.288C145.912 293.931 146.221 296.145 147.228 298.226C148.234 300.292 149.737 301.889 151.737 303.017C153.737 304.144 156.059 304.708 158.702 304.708C161.346 304.708 163.534 304.238 165.668 303.299C167.802 302.359 169.587 301.111 171.036 299.541C172.472 297.971 173.318 296.253 173.573 294.374C173.949 290.737 172.446 287.824 169.063 285.623C165.681 283.436 160.662 281.396 154.019 279.517C143.604 276.766 135.363 272.122 129.284 265.599C123.204 259.077 121.03 249.991 122.788 238.328C123.66 230.933 126.492 224.249 131.257 218.291C136.021 212.332 142.047 207.634 149.321 204.185C156.595 200.736 164.433 199.018 172.835 199.018C181.236 199.018 188.792 200.776 195.127 204.279C201.462 207.795 206.199 212.587 209.326 218.666C212.453 224.746 213.46 231.55 212.333 239.08H179.411C179.787 236.946 179.572 235 178.753 233.241C177.935 231.483 176.646 230.114 174.902 229.108C173.143 228.101 171.077 227.605 168.688 227.605C166.554 227.605 164.554 228.007 162.662 228.826C160.783 229.645 159.212 230.772 157.964 232.208C156.703 233.657 155.951 235.255 155.71 236.999C155.334 240.516 156.622 243.334 159.561 245.468C162.501 247.602 167.238 249.548 173.761 251.293C184.927 254.554 193.61 259.224 199.811 265.304C206.025 271.384 208.306 280.389 206.682 292.294C205.555 300.064 202.508 307.057 197.556 313.27C192.604 319.484 186.296 324.37 178.646 327.94C170.996 331.509 162.85 333.294 154.193 333.294C145.537 333.294 137.739 331.469 131.149 327.846H131.136Z" fill="black"/>
<path d="M232.061 328.88C227.176 325.941 223.66 321.767 221.526 316.371C219.392 310.976 218.895 304.709 220.023 297.555L228.679 235.094H258.97L251.253 288.335C250.622 293.099 251.508 296.924 253.884 299.81C256.259 302.695 259.655 304.131 264.043 304.131C268.929 304.131 273.102 302.628 276.552 299.622C280.001 296.616 282.041 292.724 282.672 287.959L295.274 292.093C290.63 305.393 284.389 315.58 276.552 322.666C268.714 329.752 259.775 333.295 249.75 333.295C242.852 333.295 236.96 331.819 232.061 328.88ZM290.187 235.108H320.29L306.749 331.054H276.646L290.187 235.108Z" fill="black"/>
<path d="M340.986 235.107H371.089L357.547 331.054H327.444L340.986 235.107ZM363.466 254.286C368.042 247.643 373.182 242.529 378.886 238.959C384.59 235.389 390.576 233.591 396.857 233.591L392.347 264.633C386.831 264.633 382.027 265.573 377.96 267.452C373.88 269.331 370.659 271.961 368.27 275.357C365.881 278.739 364.325 282.752 363.573 287.395L351.91 277.236C355.037 268.579 358.902 260.929 363.479 254.286H363.466Z" fill="black"/>
<path d="M409.835 235.107H439.938L421.31 366.794H391.207L409.835 235.107ZM432.597 326.813C427.081 322.491 423.162 316.505 420.84 308.842C418.518 301.192 417.981 292.603 419.243 283.074C420.491 273.545 423.377 264.982 427.899 257.4C432.409 249.817 438.086 243.831 444.931 239.429C451.762 235.04 459.197 232.839 467.223 232.839C475.879 232.839 483.368 235.04 489.703 239.429C496.038 243.818 500.641 249.844 503.526 257.494C506.412 265.144 507.217 273.666 505.969 283.074C504.707 292.482 501.513 301.004 496.373 308.654C491.233 316.304 484.871 322.33 477.275 326.719C469.679 331.107 461.573 333.308 452.916 333.308C444.89 333.308 438.113 331.148 432.597 326.813ZM462.23 301.42C465.679 299.608 468.538 297.058 470.793 293.797C473.047 290.536 474.43 286.966 474.926 283.074C475.423 279.182 475.02 275.612 473.705 272.351C472.39 269.089 470.256 266.553 467.303 264.727C464.351 262.916 460.942 262.003 457.05 262.003C453.158 262.003 449.306 262.916 445.857 264.727C442.407 266.553 439.549 269.089 437.294 272.351C435.039 275.612 433.657 279.182 433.16 283.074C432.65 286.966 433.067 290.536 434.382 293.797C435.697 297.058 437.831 299.595 440.784 301.42C443.723 303.246 447.145 304.145 451.037 304.145C454.929 304.145 458.781 303.232 462.23 301.42Z" fill="black"/>
<path d="M533.616 195.596H563.719L546.782 317.123L535.119 303.581H563.531L559.586 331.04H514.626L533.63 195.596H533.616Z" fill="black"/>
<path d="M587.233 328.88C582.348 325.941 578.831 321.767 576.697 316.371C574.563 310.976 574.067 304.709 575.194 297.555L583.851 235.094H614.142L606.425 288.335C605.794 293.099 606.68 296.924 609.055 299.81C611.431 302.695 614.826 304.131 619.215 304.131C624.1 304.131 628.274 302.628 631.723 299.622C635.172 296.616 637.212 292.724 637.843 287.959L650.445 292.093C645.802 305.393 639.561 315.58 631.723 322.666C623.885 329.752 614.947 333.295 604.922 333.295C598.023 333.295 592.131 331.819 587.233 328.88ZM645.359 235.108H675.462L661.92 331.054H631.817L645.359 235.108Z" fill="black"/>
<path d="M696.063 328.973C690.601 326.088 686.561 322.236 683.931 317.404C681.3 312.573 680.361 307.218 681.112 301.326H711.215C710.839 303.957 711.376 306.064 712.812 307.634C714.248 309.204 716.288 309.983 718.932 309.983C721.187 309.983 723.2 309.392 724.958 308.198C726.716 307.003 727.71 305.54 727.965 303.782C728.22 301.272 727.119 299.326 724.676 297.944C722.234 296.562 718.812 295.381 714.423 294.374C705.766 292.616 698.814 289.355 693.54 284.59C688.279 279.826 686.319 272.86 687.715 263.707C688.722 257.185 691.218 251.575 695.244 246.864C699.257 242.167 704.236 238.65 710.195 236.329C716.154 234.007 722.516 232.853 729.293 232.853C736.071 232.853 742.298 234.208 747.64 236.892C752.968 239.59 756.914 243.294 759.49 247.991C762.054 252.689 762.966 257.802 762.215 263.318H732.112C732.487 261.318 732.045 259.614 730.796 258.232C729.535 256.849 727.844 256.165 725.71 256.165C723.697 256.165 721.952 256.702 720.449 257.762C718.946 258.835 718.127 260.11 718.006 261.614C717.751 263.868 718.785 265.747 721.106 267.264C723.428 268.767 727.092 270.082 732.112 271.21C740.768 273.223 747.599 276.417 752.619 280.806C757.638 285.194 759.517 291.972 758.269 301.125C757.383 307.902 754.847 313.673 750.646 318.438C746.445 323.202 741.238 326.88 735.037 329.443C728.837 332.006 722.207 333.295 715.188 333.295C708.169 333.295 701.552 331.845 696.09 328.973H696.063Z" fill="black"/>
</svg>
