<svg width="73" height="61" viewBox="0 0 73 61" fill="none" xmlns="http://www.w3.org/2000/svg">
<path fill-rule="evenodd" clip-rule="evenodd" d="M11.6059 60.16C9.8874 60.16 8.49422 58.7668 8.49422 57.0483V33.1917H3.30801C1.58947 33.1917 0.196289 31.7985 0.196289 30.08C0.196289 28.3615 1.58947 26.9683 3.30801 26.9683H8.49422V3.11172C8.49422 1.39319 9.8874 0 11.6059 0H28.2018C29.9203 0 31.3135 1.39319 31.3135 3.11172V26.9683H41.6859V15.5586C41.6859 13.8401 43.0792 12.4469 44.7977 12.4469H61.3935C63.112 12.4469 64.5052 13.8401 64.5052 15.5586V26.9683H69.6915C71.41 26.9683 72.8032 28.3615 72.8032 30.08C72.8032 31.7985 71.41 33.1917 69.6915 33.1917H64.5052V44.6014C64.5052 46.3199 63.112 47.7131 61.3935 47.7131H44.7977C43.0792 47.7131 41.6859 46.3199 41.6859 44.6014V33.1917H31.3135V57.0483C31.3135 58.7668 29.9203 60.16 28.2018 60.16H11.6059Z" fill="#333333"/>
</svg>
