<svg width="33" height="35" viewBox="0 0 33 35" fill="none" xmlns="http://www.w3.org/2000/svg">
<path d="M0 35V0H17.4014C20.4584 0 23.0255 0.358888 25.1027 1.07666C27.193 1.79443 28.7672 2.80843 29.8254 4.11865C30.8967 5.42887 31.4323 6.97266 31.4323 8.75C31.4323 10.0374 31.1057 11.2109 30.4525 12.2705C29.8124 13.3301 28.9109 14.2188 27.7482 14.9365C26.5855 15.6429 25.2268 16.1328 23.6722 16.4062V16.748C25.3967 16.805 26.9644 17.1867 28.3753 17.8931C29.7862 18.5881 30.9097 19.5508 31.7458 20.7812C32.5819 22.0003 33 23.4359 33 25.0879C33 27.002 32.4252 28.7052 31.2755 30.1978C30.139 31.6903 28.519 32.8638 26.4157 33.7183C24.3124 34.5728 21.804 35 18.8907 35H0ZM10.8955 27.4121H15.9905C17.8195 27.4121 19.1912 27.1159 20.1057 26.5234C21.0202 25.9196 21.4774 25.0309 21.4774 23.8574C21.4774 23.0371 21.2619 22.3421 20.8308 21.7725C20.3996 21.2028 19.7856 20.7699 18.9887 20.4736C18.2049 20.1774 17.2577 20.0293 16.1473 20.0293H10.8955V27.4121ZM10.8955 14.1504H15.3634C16.3171 14.1504 17.1597 14.0194 17.8913 13.7573C18.6229 13.4953 19.1912 13.1193 19.5962 12.6294C20.0143 12.1281 20.2233 11.5186 20.2233 10.8008C20.2233 9.71842 19.7791 8.89242 18.8907 8.32276C18.0024 7.7417 16.8789 7.45117 15.5202 7.45117H10.8955V14.1504Z" fill="#FF0000"/>
</svg>
