<svg width="55" height="62" viewBox="0 0 55 62" fill="none" xmlns="http://www.w3.org/2000/svg">
<g clip-path="url(#clip0_53_328)">
<path d="M11.6143 3.87143V7.74286H5.80714C2.60112 7.74286 0 10.344 0 13.55V19.3571H54.2V13.55C54.2 10.344 51.5989 7.74286 48.3929 7.74286H42.5857V3.87143C42.5857 1.73004 40.8557 0 38.7143 0C36.5729 0 34.8429 1.73004 34.8429 3.87143V7.74286H19.3571V3.87143C19.3571 1.73004 17.6271 0 15.4857 0C13.3443 0 11.6143 1.73004 11.6143 3.87143ZM54.2 23.2286H0V56.1357C0 59.3417 2.60112 61.9429 5.80714 61.9429H48.3929C51.5989 61.9429 54.2 59.3417 54.2 56.1357V23.2286Z" fill="black"/>
</g>
<defs>
<clipPath id="clip0_53_328">
<rect width="54.2" height="61.9429" fill="white"/>
</clipPath>
</defs>
</svg>
