<svg width="20" height="18" viewBox="0 0 20 18" fill="none" xmlns="http://www.w3.org/2000/svg">
<path d="M19.7142 14.6502L11.9066 1.09108C11.7115 0.75888 11.433 0.483444 11.0986 0.292062C10.7642 0.10068 10.3857 0 10.0004 0C9.6152 0 9.23664 0.10068 8.90228 0.292062C8.56792 0.483444 8.2894 0.75888 8.09428 1.09108L0.286658 14.6502C0.0989312 14.9715 0 15.337 0 15.7091C0 16.0812 0.0989312 16.4466 0.286658 16.768C0.479264 17.1022 0.75732 17.3791 1.0923 17.5704C1.42727 17.7616 1.8071 17.8603 2.19281 17.8563H17.8081C18.1935 17.86 18.573 17.7611 18.9076 17.5699C19.2422 17.3786 19.52 17.1019 19.7124 16.768C19.9004 16.4468 19.9997 16.0814 20 15.7093C20.0003 15.3372 19.9017 14.9717 19.7142 14.6502ZM18.4759 16.0528C18.4078 16.1689 18.3101 16.2648 18.1928 16.3307C18.0754 16.3966 17.9426 16.4301 17.8081 16.4278H2.19281C2.05824 16.4301 1.92548 16.3966 1.80812 16.3307C1.69077 16.2648 1.59305 16.1689 1.52499 16.0528C1.46333 15.9484 1.43081 15.8294 1.43081 15.7082C1.43081 15.587 1.46333 15.468 1.52499 15.3636L9.33264 1.80443C9.40208 1.68888 9.50024 1.59326 9.61756 1.52688C9.73488 1.46049 9.8674 1.4256 10.0022 1.4256C10.137 1.4256 10.2696 1.46049 10.3869 1.52688C10.5042 1.59326 10.6024 1.68888 10.6718 1.80443L18.4795 15.3636C18.5406 15.4682 18.5725 15.5874 18.5719 15.7087C18.5712 15.8299 18.5381 15.9488 18.4759 16.0528ZM9.2862 10.7138V7.14256C9.2862 6.95312 9.36144 6.77144 9.4954 6.63748C9.62936 6.50356 9.811 6.42832 10.0004 6.42832C10.1899 6.42832 10.3716 6.50356 10.5055 6.63748C10.6394 6.77144 10.7147 6.95312 10.7147 7.14256V10.7138C10.7147 10.9032 10.6394 11.0849 10.5055 11.2188C10.3716 11.3528 10.1899 11.428 10.0004 11.428C9.811 11.428 9.62936 11.3528 9.4954 11.2188C9.36144 11.0849 9.2862 10.9032 9.2862 10.7138ZM11.0718 13.9279C11.0718 14.1398 11.009 14.347 10.8912 14.5231C10.7735 14.6993 10.6062 14.8366 10.4104 14.9177C10.2147 14.9988 9.99924 15.02 9.79144 14.9787C9.5836 14.9374 9.39272 14.8353 9.24288 14.6855C9.09304 14.5356 8.991 14.3448 8.94964 14.1369C8.90832 13.9291 8.92952 13.7137 9.01064 13.5179C9.09172 13.3222 9.22904 13.1548 9.40524 13.0371C9.5814 12.9194 9.78856 12.8566 10.0004 12.8566C10.2846 12.8566 10.5571 12.9694 10.758 13.1704C10.959 13.3713 11.0718 13.6438 11.0718 13.9279Z" fill="#FF0000"/>
</svg>
