<svg width="20" height="20" viewBox="0 0 20 20" fill="none" xmlns="http://www.w3.org/2000/svg">
<path d="M0 20V15.2778L14.6667 0.638889C14.8889 0.435185 15.1344 0.277778 15.4033 0.166667C15.6722 0.0555556 15.9544 0 16.25 0C16.5463 0 16.8333 0.0555556 17.1111 0.166667C17.3889 0.277778 17.6296 0.444444 17.8333 0.666666L19.3611 2.22222C19.5833 2.42593 19.7455 2.66667 19.8478 2.94444C19.95 3.22222 20.0007 3.5 20 3.77778C20 4.07407 19.9493 4.35667 19.8478 4.62555C19.7463 4.89444 19.5841 5.13963 19.3611 5.36111L4.72222 20H0ZM16.2222 5.33333L17.7778 3.77778L16.2222 2.22222L14.6667 3.77778L16.2222 5.33333Z" fill="#FF0000"/>
</svg>
