<svg width="136" height="144" viewBox="0 0 136 144" fill="none" xmlns="http://www.w3.org/2000/svg">
<path d="M67.8226 52.088C63.0386 52.088 58.5586 53.944 55.1666 57.336C51.7906 60.728 49.9186 65.208 49.9186 69.992C49.9186 74.776 51.7906 79.256 55.1666 82.648C58.5586 86.024 63.0386 87.896 67.8226 87.896C72.6066 87.896 77.0866 86.024 80.4786 82.648C83.8546 79.256 85.7266 74.776 85.7266 69.992C85.7266 65.208 83.8546 60.728 80.4786 57.336C78.8218 55.6665 76.8499 54.3429 74.6772 53.4419C72.5046 52.541 70.1746 52.0808 67.8226 52.088ZM133.791 89.768L123.327 80.824C123.823 77.784 124.079 74.68 124.079 71.592C124.079 68.504 123.823 65.384 123.327 62.36L133.791 53.416C134.581 52.7393 135.147 51.838 135.413 50.832C135.678 49.8259 135.632 48.7628 135.279 47.784L135.135 47.368C132.255 39.315 127.94 31.8505 122.399 25.336L122.111 25C121.438 24.2088 120.541 23.6401 119.538 23.3688C118.536 23.0974 117.475 23.1362 116.495 23.48L103.503 28.104C98.7026 24.168 93.3586 21.064 87.5666 18.904L85.0546 5.32C84.8651 4.29668 84.3686 3.35524 83.6313 2.62076C82.894 1.88629 81.9506 1.39355 80.9266 1.208L80.4946 1.128C72.1746 -0.376 63.4066 -0.376 55.0866 1.128L54.6546 1.208C53.6305 1.39355 52.6872 1.88629 51.9498 2.62076C51.2125 3.35524 50.7161 4.29668 50.5266 5.32L47.9986 18.968C42.2614 21.1451 36.9168 24.2416 32.1746 28.136L19.0866 23.48C18.1068 23.1335 17.0448 23.0933 16.0417 23.3648C15.0386 23.6363 14.1418 24.2066 13.4706 25L13.1826 25.336C7.65117 31.8574 3.33722 39.3201 0.446578 47.368L0.302577 47.784C-0.417423 49.784 0.174578 52.024 1.79058 53.416L12.3826 62.456C11.8866 65.464 11.6466 68.536 11.6466 71.576C11.6466 74.648 11.8866 77.72 12.3826 80.696L1.82258 89.736C1.03211 90.4127 0.46636 91.314 0.200561 92.32C-0.0652388 93.3261 -0.0184954 94.3892 0.334577 95.368L0.478577 95.784C3.37458 103.832 7.64658 111.272 13.2146 117.816L13.5026 118.152C14.1754 118.943 15.0722 119.512 16.0748 119.783C17.0773 120.055 18.1385 120.016 19.1186 119.672L32.2066 115.016C36.9746 118.936 42.2866 122.04 48.0306 124.184L50.5586 137.832C50.7481 138.855 51.2445 139.797 51.9818 140.531C52.7192 141.266 53.6625 141.758 54.6866 141.944L55.1186 142.024C63.5204 143.536 72.1247 143.536 80.5266 142.024L80.9586 141.944C81.9826 141.758 82.926 141.266 83.6633 140.531C84.4006 139.797 84.8971 138.855 85.0866 137.832L87.5986 124.248C93.3906 122.072 98.7346 118.984 103.535 115.048L116.527 119.672C117.506 120.019 118.568 120.059 119.571 119.787C120.575 119.516 121.471 118.945 122.143 118.152L122.431 117.816C127.999 111.24 132.271 103.832 135.167 95.784L135.311 95.368C135.999 93.384 135.407 91.16 133.791 89.768ZM67.8226 98.12C52.2866 98.12 39.6946 85.528 39.6946 69.992C39.6946 54.456 52.2866 41.864 67.8226 41.864C83.3586 41.864 95.9506 54.456 95.9506 69.992C95.9506 85.528 83.3586 98.12 67.8226 98.12Z" fill="#FF0000"/>
</svg>
