<svg width="56" height="61" viewBox="0 0 56 61" fill="none" xmlns="http://www.w3.org/2000/svg">
<path fill-rule="evenodd" clip-rule="evenodd" d="M0.6875 30.642C0.6875 14.0293 14.1548 0.562012 30.7676 0.562012C36.3257 0.562012 40.8137 1.71172 44.5821 4.15403C48.3253 6.57983 51.1458 10.1443 53.6154 14.595C53.657 14.6704 53.6947 14.7481 53.728 14.8278C55.5899 19.2964 57.014 27.5862 50.7317 33.3838C48.4521 35.4875 45.5629 36.5426 43.4761 37.305C43.167 37.4176 42.8758 37.524 42.6064 37.6264C41.4396 38.0704 40.747 38.4036 40.3392 38.7355C40.0615 38.9614 40.0229 39.0805 40.0229 39.3189C40.0229 39.9881 40.1701 40.346 40.3071 40.5616C40.4555 40.7952 40.7066 41.0401 41.1703 41.3095C41.6534 41.5899 42.2569 41.8355 43.0461 42.1255C43.1864 42.177 43.3348 42.2307 43.4891 42.2865C44.1357 42.5204 44.8854 42.7916 45.5904 43.1047C48.246 44.2851 49.5359 47.1768 49.299 49.9879C49.0519 52.9188 47.2187 55.8478 43.6912 57.806C43.6458 57.8312 43.5995 57.855 43.5526 57.8769C39.6697 59.7027 35.3345 60.722 30.7676 60.722C14.1548 60.722 0.6875 47.2548 0.6875 30.642ZM37.449 22.5911C38.1105 20.1224 40.648 18.6573 43.1167 19.3189C45.5854 19.9803 47.0506 22.5179 46.3891 24.9867C45.7277 27.4554 43.1901 28.9202 40.7214 28.2588C38.2527 27.5973 36.7876 25.0598 37.449 22.5911ZM15.0992 16.6024C15.7607 14.1337 18.2982 12.6686 20.7669 13.3301C23.2355 13.9916 24.7007 16.5291 24.0392 18.9978C23.3778 21.4666 20.8402 22.9316 18.3715 22.2701C15.9028 21.6086 14.4377 19.0711 15.0992 16.6024ZM28.2705 12.1464C28.9319 9.6777 31.4694 8.21267 33.9381 8.87415C36.4069 9.53563 37.872 12.0732 37.2105 14.5419C36.5491 17.0106 34.0116 18.4757 31.5429 17.8142C29.0741 17.1527 27.609 14.6151 28.2705 12.1464Z" fill="#333333"/>
</svg>
