<svg width="25" height="16" viewBox="0 0 25 16" fill="none" xmlns="http://www.w3.org/2000/svg">
<path d="M17.5954 6.78359H19.2387C19.6595 6.78359 20.0035 6.71011 20.2707 6.56315C20.5446 6.40951 20.7483 6.19575 20.8819 5.92187C21.0155 5.64131 21.0823 5.31064 21.0823 4.92988C21.0823 4.63596 21.0189 4.36542 20.892 4.11826C20.7717 3.8711 20.5847 3.67404 20.3308 3.52708C20.077 3.37344 19.753 3.29662 19.3589 3.29662C19.0917 3.29662 18.8312 3.3534 18.5773 3.46696C18.3235 3.57384 18.1131 3.72748 17.9461 3.92788C17.7858 4.12828 17.7056 4.3721 17.7056 4.65934H14.3188C14.3188 3.83102 14.5459 3.12294 15.0002 2.53509C15.4611 1.94057 16.0656 1.48633 16.8138 1.17237C17.5687 0.851727 18.3803 0.691406 19.2487 0.691406C20.2841 0.691406 21.1926 0.851727 21.9741 1.17237C22.7557 1.48633 23.3636 1.95393 23.7978 2.57517C24.2387 3.18974 24.4591 3.95126 24.4591 4.85974C24.4591 5.36074 24.3422 5.83169 24.1084 6.27257C23.8746 6.71345 23.5473 7.10089 23.1264 7.43489C22.7056 7.76889 22.2113 8.03276 21.6435 8.22648C21.0823 8.41352 20.4678 8.50704 19.7998 8.50704H17.5954V6.78359ZM17.5954 9.29862V7.61525H19.7998C20.5279 7.61525 21.1926 7.69875 21.7938 7.86575C22.395 8.02608 22.9127 8.26656 23.3469 8.5872C23.7811 8.90784 24.1151 9.3053 24.3489 9.77958C24.5827 10.2472 24.6996 10.7849 24.6996 11.3928C24.6996 12.0742 24.5626 12.6821 24.2888 13.2165C24.0149 13.7509 23.6308 14.2018 23.1365 14.5692C22.6421 14.9366 22.0643 15.2171 21.403 15.4108C20.7417 15.5979 20.0236 15.6914 19.2487 15.6914C18.6408 15.6914 18.0329 15.6112 17.425 15.4509C16.8171 15.2839 16.2627 15.0301 15.7617 14.6894C15.2607 14.342 14.8566 13.9012 14.5493 13.3668C14.2487 12.8257 14.0984 12.1811 14.0984 11.4329H17.4851C17.4851 11.7402 17.5687 12.0207 17.7357 12.2746C17.9093 12.5217 18.1398 12.7188 18.427 12.8658C18.7143 13.0127 19.0249 13.0862 19.3589 13.0862C19.7731 13.0862 20.1238 13.0094 20.411 12.8557C20.7049 12.6954 20.9287 12.4817 21.0823 12.2145C21.236 11.9473 21.3128 11.65 21.3128 11.3227C21.3128 10.8283 21.2293 10.4342 21.0623 10.1403C20.902 9.84638 20.6648 9.63262 20.3509 9.49902C20.0436 9.36542 19.6729 9.29862 19.2387 9.29862H17.5954Z" fill="#FF0000"/>
<path d="M10.1304 6.69341V9.39882H2.64547V6.69341H10.1304ZM3.81782 0.901827V15.491H0.300781V0.901827H3.81782ZM12.4952 0.901827V15.491H8.98816V0.901827H12.4952Z" fill="#FF0000"/>
</svg>
