<svg width="25" height="15" viewBox="0 0 25 15" fill="none" xmlns="http://www.w3.org/2000/svg">
<path d="M21.8236 0H22.3647V2.65531H22.1844C21.5364 2.65531 20.9285 2.74549 20.3607 2.92585C19.7996 3.10621 19.3053 3.38009 18.8778 3.74749C18.4569 4.10822 18.1263 4.5658 17.8858 5.12024C17.652 5.67468 17.5351 6.32599 17.5351 7.07415V9.62926C17.5351 10.0969 17.5752 10.5043 17.6553 10.8517C17.7355 11.1991 17.8557 11.4863 18.016 11.7134C18.1764 11.9405 18.3734 12.1109 18.6072 12.2244C18.8477 12.338 19.1249 12.3948 19.4389 12.3948C19.6994 12.3948 19.9399 12.3347 20.1603 12.2144C20.3808 12.0942 20.5711 11.9238 20.7315 11.7034C20.8985 11.483 21.0254 11.2258 21.1122 10.9319C21.1991 10.6379 21.2425 10.3173 21.2425 9.96994C21.2425 9.59586 21.1957 9.25852 21.1022 8.95792C21.0087 8.65731 20.8751 8.40347 20.7014 8.19639C20.5344 7.98263 20.3307 7.82231 20.0902 7.71543C19.8564 7.60187 19.5992 7.54509 19.3186 7.54509C18.8911 7.54509 18.5271 7.64195 18.2265 7.83567C17.9325 8.02271 17.7088 8.26319 17.5551 8.55711C17.4081 8.85104 17.3347 9.1483 17.3347 9.4489L16.523 8.62725C16.5097 8.22645 16.5865 7.81229 16.7535 7.38477C16.9205 6.95725 17.171 6.55979 17.505 6.19238C17.839 5.82498 18.2565 5.52772 18.7575 5.3006C19.2585 5.07348 19.8397 4.95992 20.501 4.95992C21.169 4.95992 21.7568 5.08684 22.2645 5.34068C22.7789 5.59452 23.2098 5.94856 23.5571 6.40281C23.9112 6.85705 24.1784 7.38811 24.3587 7.99599C24.5391 8.60387 24.6293 9.26186 24.6293 9.96994C24.6293 10.6847 24.5023 11.3494 24.2485 11.9639C24.0013 12.5718 23.6506 13.1029 23.1964 13.5571C22.7422 14.0114 22.2044 14.3654 21.5832 14.6192C20.9619 14.8731 20.2772 15 19.5291 15C18.7609 15 18.0494 14.8697 17.3948 14.6092C16.7468 14.342 16.179 13.9579 15.6914 13.4569C15.2104 12.9492 14.833 12.3313 14.5591 11.6032C14.2919 10.8751 14.1583 10.0501 14.1583 9.12826V7.89579C14.1583 6.64663 14.3621 5.5344 14.7695 4.55912C15.1837 3.58383 15.7448 2.75885 16.4529 2.08417C17.1677 1.40281 17.986 0.885104 18.9078 0.531062C19.8297 0.177021 20.8016 0 21.8236 0Z" fill="#FF0000"/>
<path d="M9.82966 6.002V8.70741H2.34469V6.002H9.82966ZM3.51703 0.210421V14.7996H0V0.210421H3.51703ZM12.1944 0.210421V14.7996H8.68737V0.210421H12.1944Z" fill="#FF0000"/>
</svg>
