<svg width="128" height="60" viewBox="0 0 128 60" fill="none" xmlns="http://www.w3.org/2000/svg">
<path d="M30 60C25.85 60 21.95 59.212 18.3 57.636C14.65 56.06 11.475 53.923 8.775 51.225C6.075 48.525 3.938 45.35 2.364 41.7C0.79 38.05 0.002 34.15 0 30C0 25.85 0.788 21.95 2.364 18.3C3.94 14.65 6.077 11.475 8.775 8.775C11.475 6.075 14.65 3.938 18.3 2.364C21.95 0.79 25.85 0.002 30 0C34.15 0 38.05 0.788 41.7 2.364C45.35 3.94 48.525 6.077 51.225 8.775C53.925 11.475 56.063 14.65 57.639 18.3C59.215 21.95 60.002 25.85 60 30C60 34.15 59.212 38.05 57.636 41.7C56.06 45.35 53.923 48.525 51.225 51.225C48.525 53.925 45.35 56.063 41.7 57.639C38.05 59.215 34.15 60.002 30 60ZM16.35 31.8L27.075 24L16.35 16.2L13.65 19.8L19.425 24L13.65 28.2L16.35 31.8ZM25.5 45.15L30 40.65L34.5 45.15L39 40.65L41.925 43.575L45.075 40.425L39 34.35L34.5 38.85L30 34.35L25.5 38.85L21 34.35L14.925 40.425L18.075 43.575L21 40.65L25.5 45.15ZM43.65 31.8L46.35 28.2L40.575 24L46.35 19.8L43.65 16.2L32.925 24L43.65 31.8Z" fill="black"/>
<path fill-rule="evenodd" clip-rule="evenodd" d="M109.2 48.8438H127.728V30.3158H124.933V44.0736L98.9781 18.1182L86.9581 30.1382L67.9758 11.1559L66 13.1318L86.9581 34.0899L98.9781 22.0699L122.958 46.0495H109.2V48.8438Z" fill="black"/>
</svg>
