<svg width="23" height="18" viewBox="0 0 23 18" fill="none" xmlns="http://www.w3.org/2000/svg">
<path d="M21.3873 9.39469C23.5376 7.24439 23.5376 3.76219 21.3873 1.61189C19.4844 -0.29091 16.4855 -0.53831 14.2972 1.02579L14.2363 1.06769C13.6883 1.45969 13.5627 2.22079 13.9547 2.76509C14.3467 3.30929 15.1078 3.43869 15.6521 3.04669L15.713 3.00479C16.9346 2.13329 18.6053 2.27029 19.6633 3.33209C20.8621 4.53089 20.8621 6.47189 19.6633 7.67069L15.3933 11.9483C14.1945 13.1471 12.2535 13.1471 11.0547 11.9483C9.9929 10.8865 9.85589 9.21579 10.7274 7.99799L10.7693 7.93709C11.1613 7.38899 11.0319 6.62789 10.4877 6.23969C9.94349 5.85149 9.17849 5.97709 8.79029 6.52129L8.74839 6.58219C7.18049 8.76669 7.42789 11.7656 9.33069 13.6685C11.481 15.8188 14.9632 15.8188 17.1135 13.6685L21.3873 9.39469ZM1.61269 8.50409C-0.537565 10.6544 -0.537565 14.1366 1.61269 16.2869C3.51559 18.1897 6.5145 18.4371 8.7028 16.873L8.76369 16.8311C9.31169 16.4391 9.43729 15.678 9.04529 15.1337C8.65329 14.5895 7.89219 14.4601 7.34789 14.8521L7.28699 14.894C6.06539 15.7655 4.39469 15.6285 3.33669 14.5667C2.13789 13.3641 2.13789 11.4231 3.33669 10.2243L7.6067 5.95049C8.8055 4.75169 10.7465 4.75169 11.9453 5.95049C13.0071 7.01229 13.1441 8.68299 12.2726 9.90459L12.2307 9.96549C11.8387 10.5136 11.9681 11.2747 12.5123 11.6629C13.0565 12.0511 13.8215 11.9255 14.2097 11.3813L14.2516 11.3204C15.8195 9.13209 15.5721 6.13319 13.6693 4.23029C11.519 2.07999 8.03679 2.07999 5.88649 4.23029L1.61269 8.50409Z" fill="#FF0000"/>
</svg>
