<svg width="40" height="40" viewBox="0 0 40 40" fill="none" xmlns="http://www.w3.org/2000/svg">
<path d="M40 20C40 31.0457 31.0457 40 20 40C8.9543 40 0 31.0457 0 20C0 8.9543 8.9543 0 20 0C31.0457 0 40 8.9543 40 20ZM4 20C4 28.8366 11.1634 36 20 36C28.8366 36 36 28.8366 36 20C36 11.1634 28.8366 4 20 4C11.1634 4 4 11.1634 4 20Z" fill="white"/>
<path d="M40 20C40 24.2236 38.6629 28.3388 36.1803 31.7557C33.6978 35.1727 30.1972 37.716 26.1803 39.0211L24.9443 35.2169C28.1578 34.1728 30.9582 32.1381 32.9443 29.4046C34.9303 26.671 36 23.3789 36 20H40Z" fill="#AAAAAA"/>
</svg>
