<svg width="21" height="20" viewBox="0 0 21 20" fill="none" xmlns="http://www.w3.org/2000/svg">
<path d="M15.8405 18.7372H1.48371V3.13199H10.2538L11.516 1.91603L11.4835 1.88357H1.48371C0.79427 1.88357 0.235291 2.44255 0.235291 3.13199V18.7372C0.235291 19.4267 0.79427 19.9856 1.48371 19.9856H15.8405C16.53 19.9856 17.0889 19.4267 17.0889 18.7372V9.59536L15.8405 10.787V18.7372ZM19.2518 0.813676C18.6885 0.273735 18.0668 0 17.4036 0C16.3655 0 15.6083 0.670401 15.4023 0.875785C15.1102 1.16417 6.8357 9.42653 6.8357 9.42653C6.77078 9.49268 6.72334 9.57352 6.699 9.6634C6.4749 10.4914 5.35164 14.1693 5.3404 14.2058C5.28235 14.3943 5.33416 14.5997 5.47305 14.7367C5.52142 14.7852 5.57892 14.8238 5.64224 14.85C5.70555 14.8762 5.77344 14.8897 5.84198 14.8896C5.89566 14.8896 5.94965 14.8818 6.00269 14.8653C6.04077 14.8525 9.83565 13.6253 10.4602 13.4389C10.5426 13.4146 10.6172 13.37 10.679 13.3097C11.0731 12.9209 18.6788 5.43316 19.2943 4.7974C19.9307 4.14073 20.2471 3.45814 20.235 2.76683C20.2234 2.08394 19.8913 1.42665 19.2518 0.813676ZM18.3976 3.92846C18.0502 4.28676 15.3302 6.9746 10.3131 11.9171L9.92926 12.2957C9.35405 12.4736 7.97671 12.9161 6.93553 13.252C7.27073 12.1449 7.67304 10.8076 7.8525 10.1749C8.92459 9.10442 16.0137 2.0262 16.283 1.76029C16.3355 1.70784 16.814 1.24811 17.4035 1.24811C17.7381 1.24811 18.0605 1.40073 18.3879 1.7147C18.7793 2.09016 18.9809 2.45096 18.9865 2.78803C18.9928 3.13509 18.7946 3.51867 18.3976 3.92846Z" fill="#FF0000"/>
</svg>
