<svg width="14" height="18" viewBox="0 0 14 18" fill="none" xmlns="http://www.w3.org/2000/svg">
<path d="M7.10938 12.2109H2.86719V9.03516H7.10938C7.6875 9.03516 8.15625 8.9375 8.51562 8.74219C8.875 8.54688 9.13672 8.27734 9.30078 7.93359C9.47266 7.58203 9.55859 7.1875 9.55859 6.75C9.55859 6.28125 9.47266 5.84766 9.30078 5.44922C9.13672 5.05078 8.875 4.73047 8.51562 4.48828C8.15625 4.23828 7.6875 4.11328 7.10938 4.11328H4.41406V18H0.300781V0.9375H7.10938C8.47656 0.9375 9.65234 1.1875 10.6367 1.6875C11.6289 2.1875 12.3906 2.875 12.9219 3.75C13.4531 4.61719 13.7188 5.60938 13.7188 6.72656C13.7188 7.82812 13.4531 8.78906 12.9219 9.60938C12.3906 10.4297 11.6289 11.0703 10.6367 11.5312C9.65234 11.9844 8.47656 12.2109 7.10938 12.2109Z" fill="#FF0000"/>
</svg>
