<svg width="200" height="200" viewBox="0 0 200 200" fill="none" xmlns="http://www.w3.org/2000/svg">
<path d="M199.88 151.078C198.097 164.628 191.442 177.066 181.159 186.069C170.876 195.071 157.667 200.022 144 199.998C64.6001 199.998 9.04864e-05 135.398 9.04864e-05 55.998C-0.0244093 42.3309 4.92696 29.1222 13.9294 18.8389C22.9319 8.55566 35.3698 1.90104 48.9201 0.117976C52.3466 -0.300414 55.8166 0.400595 58.812 2.11636C61.8073 3.83213 64.1675 6.47062 65.5401 9.63797L86.6601 56.788V56.908C87.711 59.3325 88.145 61.9796 87.9234 64.6127C87.7017 67.2459 86.8314 69.7832 85.3901 71.998C85.2101 72.268 85.0201 72.518 84.8201 72.768L64.0001 97.448C71.4901 112.668 87.4101 128.448 102.83 135.958L127.17 115.248C127.409 115.047 127.66 114.86 127.92 114.688C130.133 113.212 132.679 112.311 135.328 112.067C137.977 111.822 140.644 112.242 143.09 113.288L143.22 113.348L190.33 134.458C193.503 135.826 196.148 138.184 197.869 141.18C199.591 144.175 200.296 147.648 199.88 151.078Z" fill="#FF0000"/>
</svg>
