<svg width="55" height="44" viewBox="0 0 55 44" fill="none" xmlns="http://www.w3.org/2000/svg">
<g clip-path="url(#clip0_68_164)">
<path d="M30.4624 4.58139L28.4638 0.533331C28.1335 -0.169575 27.1003 -0.194981 26.7362 0.533331L24.7376 4.58139L20.3084 5.21655C19.5208 5.33511 19.1821 6.30902 19.7664 6.89336L22.9845 10.0268L22.2223 14.439C22.1038 15.2266 22.9168 15.8364 23.6451 15.4722L27.6169 13.372L31.5634 15.4383C32.2917 15.8025 33.1132 15.1927 32.9861 14.4051L32.2239 9.99293L35.4421 6.89336C36.0179 6.31749 35.6877 5.34358 34.9001 5.21655L30.4709 4.58139H30.4624ZM22.18 21.6798C20.681 21.6798 19.47 22.8908 19.47 24.3898V40.6498C19.47 42.1488 20.681 43.3598 22.18 43.3598H33.02C34.519 43.3598 35.73 42.1488 35.73 40.6498V24.3898C35.73 22.8908 34.519 21.6798 33.02 21.6798H22.18ZM3.21 27.0998C1.71103 27.0998 0.5 28.3108 0.5 29.8098V40.6498C0.5 42.1488 1.71103 43.3598 3.21 43.3598H14.05C15.549 43.3598 16.76 42.1488 16.76 40.6498V29.8098C16.76 28.3108 15.549 27.0998 14.05 27.0998H3.21ZM38.44 35.2298V40.6498C38.44 42.1488 39.651 43.3598 41.15 43.3598H51.99C53.489 43.3598 54.7 42.1488 54.7 40.6498V35.2298C54.7 33.7308 53.489 32.5198 51.99 32.5198H41.15C39.651 32.5198 38.44 33.7308 38.44 35.2298Z" fill="black"/>
</g>
<defs>
<clipPath id="clip0_68_164">
<rect width="54.2" height="43.36" fill="white" transform="translate(0.5)"/>
</clipPath>
</defs>
</svg>
