<svg width="24" height="30" viewBox="0 0 24 30" fill="none" xmlns="http://www.w3.org/2000/svg">
<path fill-rule="evenodd" clip-rule="evenodd" d="M12.9545 9.27272H5.59091C4.15999 9.27272 3 10.4327 3 11.8636V23.5909C3 25.0218 4.15999 26.1818 5.59091 26.1818H12.9545C14.3855 26.1818 15.5455 25.0218 15.5455 23.5909V11.8636C15.5455 10.4327 14.3855 9.27272 12.9545 9.27272ZM5.59091 6.27272C2.50314 6.27272 0 8.77586 0 11.8636V23.5909C0 26.6787 2.50314 29.1818 5.59091 29.1818H12.9545C16.0423 29.1818 18.5455 26.6787 18.5455 23.5909V11.8636C18.5455 8.77586 16.0423 6.27272 12.9545 6.27272H5.59091Z" fill="#FF0000"/>
<path d="M11.0455 2.31818C11.0455 3.1466 11.717 3.81818 12.5455 3.81818H18.4091C19.84 3.81818 21 4.97817 21 6.40909V16.6364C21 17.4648 21.6716 18.1364 22.5 18.1364C23.3284 18.1364 24 17.4648 24 16.6364V6.40909C24 3.32131 21.4969 0.818176 18.4091 0.818176H12.5455C11.717 0.818176 11.0455 1.48975 11.0455 2.31818Z" fill="#FF0000"/>
</svg>
