<svg width="120" height="120" viewBox="0 0 120 120" fill="none" xmlns="http://www.w3.org/2000/svg">
<path d="M102.3 17.625C96.7492 12.0364 90.1471 7.60171 82.8743 4.57674C75.6015 1.55176 67.8018 -0.00370766 59.925 6.63634e-06C26.775 6.63634e-06 0 26.85 0 60C0 93.15 26.775 120 59.925 120C87.9 120 111.225 100.875 117.9 75H102.3C99.2105 83.7714 93.4751 91.3678 85.8851 96.7413C78.2951 102.115 69.2246 105 59.925 105C35.1 105 14.925 84.825 14.925 60C14.925 35.175 35.1 15 59.925 15C72.375 15 83.475 20.175 91.575 28.35L67.425 52.5H119.925V6.63634e-06L102.3 17.625Z" fill="#FF0000"/>
</svg>
