<svg width="40" height="41" viewBox="0 0 40 41" fill="none" xmlns="http://www.w3.org/2000/svg">
<path d="M4.04385 23.5693C9.0864 28.6119 17.059 28.9385 22.4811 24.5493C22.8567 24.2453 23.22 23.9186 23.5693 23.5693C23.8977 23.2409 24.2062 22.9 24.4946 22.5482C28.9411 17.1249 28.6327 9.10723 23.5693 4.04385C18.1775 -1.34795 9.43565 -1.34795 4.04385 4.04385C-1.34795 9.43567 -1.34795 18.1775 4.04385 23.5693ZM21.6168 5.9964C25.9302 10.3098 25.9302 17.3034 21.6168 21.6168C17.3033 25.9302 10.3098 25.9302 5.99639 21.6168C1.68288 17.3034 1.68297 10.3098 5.99639 5.9964C10.3098 1.68295 17.3033 1.68295 21.6168 5.9964Z" fill="black"/>
<path d="M40 38.0536L37.9927 40.0608L22.4811 24.5493C22.8567 24.2453 23.22 23.9186 23.5693 23.5693C23.8977 23.2409 24.2062 22.9 24.4946 22.5482L40 38.0536Z" fill="black"/>
</svg>