<svg width="52" height="35" viewBox="0 0 52 35" fill="none" xmlns="http://www.w3.org/2000/svg">
<path fill-rule="evenodd" clip-rule="evenodd" d="M0 15C0 23.2843 11.6406 30 26 30C28.772 30 31.4427 29.7497 33.9479 29.2862L45.8264 34.5029L44.8176 25.3509C49.2677 22.659 52 19.0136 52 15C52 6.71573 40.3594 0 26 0C11.6406 0 0 6.71573 0 15ZM33.4131 16.6683C34.5549 16.3623 35.2326 15.1886 34.9266 14.0467C34.6207 12.9049 33.4469 12.2272 32.3051 12.5332C31.1632 12.8392 30.4855 14.0129 30.7915 15.1547C31.0975 16.2966 32.2712 16.9743 33.4131 16.6683ZM28.037 14.0467C28.3429 15.1886 27.6653 16.3623 26.5234 16.6683C25.3815 16.9743 24.2078 16.2966 23.9018 15.1547C23.5959 14.0129 24.2735 12.8392 25.4154 12.5332C26.5573 12.2272 27.731 12.9049 28.037 14.0467ZM19.6337 16.6683C20.7756 16.3623 21.4533 15.1886 21.1473 14.0467C20.8413 12.9049 19.6676 12.2272 18.5257 12.5332C17.3839 12.8392 16.7062 14.0129 17.0122 15.1547C17.3182 16.2966 18.4919 16.9743 19.6337 16.6683Z" fill="#FF0000"/>
</svg>
