<svg width="31" height="31" viewBox="0 0 31 31" fill="none" xmlns="http://www.w3.org/2000/svg">
<path fill-rule="evenodd" clip-rule="evenodd" d="M15.5 31C24.0604 31 31 24.0604 31 15.5C31 6.93959 24.0604 0 15.5 0C6.93959 0 0 6.93959 0 15.5C0 24.0604 6.93959 31 15.5 31ZM7.27202 11.5214C7.51507 11.1197 8.03768 10.9912 8.43931 11.2342L15.471 15.4894L24.5193 9.29849C24.9067 9.0334 25.4357 9.13258 25.7007 9.52002C25.9658 9.90745 25.8667 10.4364 25.4792 10.7015L15.9792 17.2015C15.7041 17.3897 15.3444 17.3998 15.0592 17.2272L7.55917 12.6886C7.15754 12.4456 7.02898 11.923 7.27202 11.5214Z" fill="black"/>
</svg>
