<svg width="22" height="21" viewBox="0 0 22 21" fill="none" xmlns="http://www.w3.org/2000/svg">
<path d="M3 1.5H16C16.8284 1.5 17.5 2.17157 17.5 3V4.25C17.5 4.66421 17.8358 5 18.25 5C18.6642 5 19 4.66421 19 4.25V3C19 1.34315 17.6569 0 16 0H3C1.34315 0 0 1.34315 0 3V18C0 19.6569 1.34315 21 3 21H16C17.6569 21 19 19.6569 19 18V13.125C19 12.7108 18.6642 12.375 18.25 12.375C17.8358 12.375 17.5 12.7108 17.5 13.125V18C17.5 18.8284 16.8284 19.5 16 19.5H3C2.17157 19.5 1.5 18.8284 1.5 18V3C1.5 2.17157 2.17157 1.5 3 1.5Z" fill="#FF0000"/>
<path fill-rule="evenodd" clip-rule="evenodd" d="M21.5303 5C21.8232 5.29289 21.8232 5.76777 21.5303 6.06066L10.5303 17.0607C10.3632 17.2278 10.1271 17.3064 9.89312 17.2727C9.65916 17.239 9.45478 17.097 9.3416 16.8895L6.3416 11.3895C6.14325 11.0258 6.27724 10.5703 6.64088 10.3719C7.00452 10.1736 7.46009 10.3076 7.65844 10.6712L10.1785 15.2912L20.4697 5C20.7626 4.70711 21.2375 4.70711 21.5303 5Z" fill="#FF0000"/>
</svg>
