<svg width="71" height="39" viewBox="0 0 71 39" fill="none" xmlns="http://www.w3.org/2000/svg">
<path d="M42.8132 15.0758L60.3055 32.5681H53.7623C52.1237 32.5681 50.7952 33.8966 50.7952 35.5353C50.7952 37.1739 52.1237 38.5024 53.7623 38.5024H67.7494C69.3881 38.5024 70.7166 37.1739 70.7166 35.5353V21.5482C70.7166 19.9091 69.3881 18.581 67.7494 18.581C66.1108 18.581 64.7823 19.9091 64.7823 21.5482V28.6527L44.9111 8.78142C43.7524 7.62269 41.874 7.62269 40.7152 8.78142L26.9884 22.5079L5.3494 0.869046C4.19067 -0.289682 2.31195 -0.289682 1.15323 0.869046C-0.00550223 2.02777 -0.00550223 3.90649 1.15323 5.06522L24.8903 28.8022C26.0491 29.961 27.9276 29.961 29.0864 28.8022L42.8132 15.0758Z" fill="#333333"/>
</svg>
