<svg width="72" height="39" viewBox="0 0 72 39" fill="none" xmlns="http://www.w3.org/2000/svg">
<path d="M43.3132 23.4886L60.8055 5.99634H54.2623C52.6237 5.99634 51.2952 4.66785 51.2952 3.02919C51.2952 1.39054 52.6237 0.0620527 54.2623 0.0620527H68.2494C69.8881 0.0620527 71.2166 1.39054 71.2166 3.02919V17.0163C71.2166 18.6553 69.8881 19.9834 68.2494 19.9834C66.6108 19.9834 65.2823 18.6553 65.2823 17.0163V9.91178L45.4111 29.783C44.2524 30.9418 42.374 30.9418 41.2152 29.783L27.4884 16.0565L5.8494 37.6954C4.69067 38.8541 2.81195 38.8541 1.65323 37.6954C0.494498 36.5367 0.494498 34.658 1.65323 33.4992L25.3903 9.76223C26.5491 8.60346 28.4276 8.60346 29.5864 9.76223L43.3132 23.4886Z" fill="#333333"/>
</svg>
