<svg width="69" height="61" viewBox="0 0 69 61" fill="none" xmlns="http://www.w3.org/2000/svg">
<path d="M34.4973 0C36.4041 0 38.1633 1.00714 39.1301 2.65886L68.1357 52.0759C69.116 53.7411 69.116 55.7956 68.1627 57.4608C67.2092 59.126 65.4232 60.16 63.5029 60.16H5.49147C3.57119 60.16 1.78519 59.126 0.831757 57.4608C-0.12167 55.7956 -0.108242 53.7276 0.858614 52.0759L29.8643 2.65886C30.8313 1.00714 32.5902 0 34.4973 0ZM34.4973 17.1886C32.7112 17.1886 31.2743 18.6254 31.2743 20.4115V35.4513C31.2743 37.2374 32.7112 38.6743 34.4973 38.6743C36.2832 38.6743 37.72 37.2374 37.72 35.4513V20.4115C37.72 18.6254 36.2832 17.1886 34.4973 17.1886ZM38.7943 47.2686C38.7943 46.1289 38.3415 45.0358 37.5357 44.23C36.7299 43.4242 35.6368 42.9715 34.4973 42.9715C33.3575 42.9715 32.2645 43.4242 31.4586 44.23C30.6528 45.0358 30.2001 46.1289 30.2001 47.2686C30.2001 48.4082 30.6528 49.5013 31.4586 50.3071C32.2645 51.1129 33.3575 51.5656 34.4973 51.5656C35.6368 51.5656 36.7299 51.1129 37.5357 50.3071C38.3415 49.5013 38.7943 48.4082 38.7943 47.2686Z" fill="#333333"/>
</svg>
