<svg width="55" height="42" viewBox="0 0 55 42" fill="none" xmlns="http://www.w3.org/2000/svg">
<path fill-rule="evenodd" clip-rule="evenodd" d="M4.94203 0C2.21262 0 0 2.21262 0 4.94203V36.8406C0 39.57 2.21262 41.7826 4.94203 41.7826H49.2596C51.989 41.7826 54.2017 39.57 54.2017 36.8406V4.94203C54.2017 2.21262 51.989 0 49.2596 0H4.94203ZM27.2974 34.5941C31.7442 34.5941 35.349 30.4706 35.349 25.384C35.349 20.2973 31.7442 16.1738 27.2974 16.1738C23.7149 16.1738 20.6789 18.8501 19.634 22.5501C19.5684 22.7823 19.5107 23.0186 19.4611 23.2586C19.3202 23.9408 19.2457 24.6524 19.2457 25.384C19.2457 26.1155 19.3202 26.8271 19.4611 27.5094C20.2999 31.5713 23.49 34.5941 27.2974 34.5941ZM27.7608 17.3144C28.0011 17.6921 28.2432 18.2843 28.4572 19.0798C28.713 20.0307 28.9135 21.2151 29.0328 22.5501H25.5619C25.6812 21.2151 25.8817 20.0307 26.1375 19.0798C26.3515 18.2843 26.5936 17.6921 26.8339 17.3144C27.084 16.9211 27.2484 16.8823 27.2974 16.8823C27.2974 16.8823 27.5107 16.9211 27.7608 17.3144ZM26.8339 33.4536C26.5936 33.0758 26.3515 32.4837 26.1375 31.6882C25.8817 30.7373 25.6812 29.5528 25.5619 28.2179H29.0328C28.9135 29.5528 28.713 30.7373 28.4572 31.6882C28.2432 32.4837 28.0011 33.0758 27.7608 33.4536C27.5107 33.8468 27.3463 33.8856 27.2974 33.8856C27.2484 33.8856 27.084 33.8468 26.8339 33.4536ZM20.0992 27.5094C19.9463 26.8301 19.865 26.1179 19.865 25.384C19.865 24.6501 19.9463 23.9379 20.0992 23.2586H24.8862C24.8428 23.9408 24.8199 24.6524 24.8199 25.384C24.8199 26.1155 24.8428 26.8271 24.8862 27.5094H20.0992ZM20.2879 22.5501C21.201 19.5949 23.502 17.3897 26.2949 16.959C25.6545 18.0136 25.1568 20.0477 24.9394 22.5501H20.2879ZM34.7297 25.384C34.7297 26.1179 34.6484 26.8301 34.4955 27.5094H29.7085C29.7519 26.8271 29.7748 26.1155 29.7748 25.384C29.7748 24.6524 29.7519 23.9408 29.7085 23.2586H34.4955C34.6484 23.9379 34.7297 24.6501 34.7297 25.384ZM28.2998 16.959C31.0928 17.3897 33.3937 19.595 34.3068 22.5501H29.6553C29.4379 20.0477 28.9402 18.0136 28.2998 16.959ZM34.3068 28.2179C33.3937 31.173 31.0928 33.3782 28.2998 33.809C28.9402 32.7543 29.4379 30.7202 29.6553 28.2179H34.3068ZM26.2949 33.809C23.5019 33.3782 21.201 31.173 20.2879 28.2179H24.9394C25.1568 30.7202 25.6545 32.7543 26.2949 33.809ZM25.5072 27.5094C25.4629 26.8304 25.4393 26.1186 25.4393 25.384C25.4393 24.6493 25.4629 23.9376 25.5072 23.2586H29.0875C29.1318 23.9376 29.1554 24.6493 29.1554 25.384C29.1554 26.1186 29.1318 26.8304 29.0875 27.5094H25.5072ZM16.0497 6.73901H46.0073C47.4961 6.73901 48.703 7.9459 48.703 9.43467C48.703 10.9234 47.4961 12.1303 46.0073 12.1303H16.0497C14.5609 12.1303 13.3541 10.9234 13.3541 9.43467C13.3541 7.9459 14.5609 6.73901 16.0497 6.73901ZM7.46276 12.1303C8.76427 12.1303 9.81935 10.9234 9.81935 9.43467C9.81935 7.9459 8.76427 6.73901 7.46276 6.73901C6.16125 6.73901 5.10616 7.9459 5.10616 9.43467C5.10616 10.9234 6.16125 12.1303 7.46276 12.1303Z" fill="black"/>
</svg>
