<svg width="26" height="16" viewBox="0 0 26 16" fill="none" xmlns="http://www.w3.org/2000/svg">
<path d="M25.03 13.0509V15.6914H14.7117V13.4571L19.4646 8.46053C19.8844 7.97983 20.2229 7.5499 20.4802 7.17076C20.7375 6.78484 20.9237 6.43616 21.0388 6.12472C21.1606 5.81328 21.2216 5.5323 21.2216 5.28179C21.2216 4.85525 21.1572 4.4998 21.0286 4.21544C20.9067 3.92431 20.7239 3.70427 20.4802 3.55532C20.2432 3.40637 19.9487 3.33189 19.5967 3.33189C19.2446 3.33189 18.9365 3.43345 18.6725 3.63657C18.4084 3.83968 18.2019 4.11727 18.053 4.46933C17.9108 4.8214 17.8397 5.21747 17.8397 5.65755H14.4071C14.4071 4.75031 14.6271 3.92093 15.0672 3.1694C15.5141 2.41788 16.1335 1.81869 16.9257 1.37184C17.7178 0.918217 18.6352 0.691406 19.6779 0.691406C20.7679 0.691406 21.682 0.860668 22.4199 1.19919C23.1579 1.53772 23.7131 2.02858 24.0855 2.67177C24.4646 3.3082 24.6542 4.07665 24.6542 4.97712C24.6542 5.49168 24.573 5.98592 24.4105 6.45986C24.248 6.93379 24.0144 7.40434 23.7097 7.8715C23.405 8.33189 23.0327 8.80583 22.5926 9.2933C22.1593 9.78078 21.665 10.2987 21.1099 10.8471L19.2006 13.0509H25.03Z" fill="#FF0000"/>
<path d="M10.2635 6.77468V9.51673H2.67722V6.77468H10.2635ZM3.86544 0.904676V15.6914H0.300781V0.904676H3.86544ZM12.6603 0.904676V15.6914H9.10579V0.904676H12.6603Z" fill="#FF0000"/>
</svg>
