<svg width="320" height="320" viewBox="0 0 320 320" fill="none" xmlns="http://www.w3.org/2000/svg">
<path d="M320 160C320 248.366 248.366 320 160 320C71.6344 320 0 248.366 0 160C0 71.6344 71.6344 0 160 0C248.366 0 320 71.6344 320 160ZM32 160C32 230.693 89.3072 288 160 288C230.693 288 288 230.693 288 160C288 89.3072 230.693 32 160 32C89.3072 32 32 89.3072 32 160Z" fill="#CCCCCC"/>
<path d="M320 160C320 193.789 309.303 226.71 289.442 254.046C269.582 281.382 241.578 301.728 209.442 312.169L199.554 281.735C225.262 273.382 247.666 257.105 263.554 235.237C279.442 213.368 288 187.031 288 160H320Z" fill="#999999"/>
</svg>
