<svg width="23" height="19" viewBox="0 0 23 19" fill="none" xmlns="http://www.w3.org/2000/svg">
<path fill-rule="evenodd" clip-rule="evenodd" d="M2 0H18C19.1 0 20 0.9 20 2V9.41604C19.3875 9.14845 18.7111 9 18 9C15.2386 9 13 11.2386 13 14C13 14.7111 13.1484 15.3875 13.416 16H2C0.9 16 0 15.1 0 14L0.00999999 2C0.00999999 0.9 0.9 0 2 0ZM10.53 8.67L17.6 4.25C17.7003 4.19371 17.7881 4.11766 17.8581 4.02645C17.9281 3.93525 17.9789 3.83078 18.0074 3.71937C18.0359 3.60796 18.0415 3.49194 18.0238 3.37831C18.0062 3.26468 17.9657 3.15581 17.9047 3.0583C17.8438 2.96079 17.7637 2.87666 17.6693 2.811C17.5749 2.74533 17.4681 2.69951 17.3555 2.6763C17.2429 2.65309 17.1267 2.65297 17.014 2.67595C16.9014 2.69893 16.7945 2.74453 16.7 2.81L10 7L3.3 2.81C3.20546 2.74453 3.09863 2.69893 2.98595 2.67595C2.87328 2.65297 2.75712 2.65309 2.6445 2.6763C2.53187 2.69951 2.42513 2.74533 2.33073 2.811C2.23632 2.87666 2.15623 2.96079 2.09528 3.0583C2.03434 3.15581 1.99381 3.26468 1.97616 3.37831C1.9585 3.49194 1.96409 3.60796 1.99258 3.71937C2.02106 3.83078 2.07186 3.93525 2.14189 4.02645C2.21192 4.11766 2.29973 4.19371 2.4 4.25L9.47 8.67C9.79 8.87 10.21 8.87 10.53 8.67Z" fill="#FF0000"/>
<path fill-rule="evenodd" clip-rule="evenodd" d="M18 10C15.7909 10 14 11.7909 14 14C14 14.7286 14.1948 15.4117 14.5351 16C14.5818 16.0806 14.6312 16.1595 14.6831 16.2364C15.402 17.3004 16.6193 18 18 18C20.2091 18 22 16.2091 22 14C22 12.5194 21.1956 11.2267 20 10.5351C19.4117 10.1948 18.7286 10 18 10ZM18.1472 14.0193L17.5693 13H17.0102L17.8148 14.3091L17 15.6182H17.5591L18.1472 14.6398L18.7369 15.6182H19.2943L18.471 14.3091L19.2875 13H18.7301L18.1472 14.0193Z" fill="#FF0000"/>
</svg>
