<svg width="59" height="63" viewBox="0 0 59 63" fill="none" xmlns="http://www.w3.org/2000/svg">
<path fill-rule="evenodd" clip-rule="evenodd" d="M47.0273 1.91155C49.5691 -0.630225 53.6099 -0.645425 56.1525 1.91542C58.6723 4.4534 58.6873 8.64998 56.1487 11.1888L54.9931 12.3443C54.6025 12.7348 53.9695 12.7348 53.5789 12.3443L45.7939 4.55922C45.4033 4.1687 45.4033 3.53554 45.7939 3.14502L47.0273 1.91155ZM51.4575 14.4657C51.8481 14.8561 51.8481 15.4893 51.4575 15.8799L39.1487 28.1887C38.9409 28.3965 38.6769 28.5385 38.3891 28.5975L29.389 30.4417C28.891 30.5439 28.3751 30.3867 28.0185 30.0241C27.662 29.6617 27.5133 29.1433 27.6236 28.6469L29.6236 19.6469C29.6855 19.3685 29.8255 19.1135 30.0272 18.9117L42.2583 6.68055C42.6489 6.29003 43.2819 6.29003 43.6725 6.68055L51.4575 14.4657Z" fill="#CACACA"/>
<path fill-rule="evenodd" clip-rule="evenodd" d="M9.93475 34.4134C9.9368 34.4144 9.94112 34.4173 9.94807 34.422C10.01 34.464 10.2805 34.6472 11.0075 34.8409C11.6646 35.016 12.5092 35.1519 13.5196 35.246C15.6423 34.3053 17.7854 33.769 19.88 33.5417C18.6841 29.428 17.2572 27.8521 16.2807 27.3462C15.4705 26.9265 14.4902 27.0254 13.281 27.9202C12.0568 28.8261 10.9507 30.3384 10.3321 31.8454C10.0265 32.59 9.8763 33.2464 9.85273 33.7457C9.83214 34.1819 9.91098 34.3678 9.93475 34.4134ZM24.0239 33.474C23.9366 33.175 23.85 32.8755 23.7643 32.5756C22.468 28.0383 20.6024 25.0801 18.1206 23.7945C15.4621 22.4173 12.8173 23.2872 10.9016 24.7049C9.00075 26.1115 7.48186 28.2554 6.63172 30.3265C6.20298 31.371 5.90783 32.4842 5.85718 33.5571C5.80745 34.6106 5.98815 35.8209 6.74128 36.825C7.22807 37.4741 7.90788 37.9196 8.61589 38.2357C7.68887 38.9734 6.77705 39.8092 5.88681 40.7518C3.7528 43.0113 2.30587 44.803 1.57536 46.2146C1.21695 46.9071 0.898169 47.7536 0.961112 48.6494C1.03666 49.7246 1.63377 50.5479 2.46214 51.0235C3.16103 51.4248 3.95664 51.5462 4.60322 51.5874C5.28873 51.6311 6.04971 51.596 6.8259 51.5261C8.10335 51.4111 9.62599 51.1801 11.2131 50.9394C11.5396 50.8899 11.8689 50.8399 12.1993 50.7905C12.2338 50.7853 12.2684 50.7802 12.303 50.775C12.3055 50.7802 12.3079 50.7855 12.3103 50.7907C13.5418 53.4309 16.0267 56.1436 19.6791 58.7525C21.4785 60.0377 23.0213 60.9691 24.3278 61.5237C25.5505 62.0426 26.9762 62.4114 28.2897 61.9347C29.8249 61.3773 30.4181 60.0041 30.6031 58.8589C30.7837 57.7401 30.667 56.4262 30.4372 55.0969C30.3265 54.4564 30.1812 53.7689 30.0074 53.0415C30.6004 53.7478 31.0872 54.6247 31.4328 55.7247C31.764 56.7784 32.8867 57.3642 33.9405 57.033C34.9942 56.7018 35.58 55.5791 35.2488 54.5253C34.4359 51.9387 32.9959 50.0125 31.1169 48.6579C30.2523 48.0347 29.3164 47.5476 28.3387 47.17C28.1223 46.4775 27.8976 45.7709 27.6678 45.0537C27.5611 44.7207 27.453 44.3848 27.3439 44.0464C28.5652 44.2872 29.871 44.6141 31.2572 45.0377C33.5738 45.7456 35.4633 46.0649 36.8713 45.911C37.5771 45.8339 38.4081 45.6123 39.068 45.0114C39.8175 44.3289 40.0735 43.4102 39.9877 42.5575C39.911 41.7956 39.5747 41.1229 39.2238 40.596C38.8577 40.0465 38.3812 39.5149 37.8444 39.0153C37.4526 38.6508 37.011 38.2869 36.526 37.9299C36.9959 37.8711 37.4116 37.8181 37.7642 37.7729C37.8744 37.7587 37.9778 37.7454 38.0745 37.733C38.3289 37.7003 38.5366 37.6736 38.6976 37.6535C38.8091 37.6395 38.8893 37.6298 38.9426 37.6237C38.9512 37.6228 38.9586 37.6219 38.965 37.6213C40.0117 37.5571 40.8408 36.6879 40.8408 35.625C40.8408 34.5205 39.9454 33.625 38.8408 33.625C38.6944 33.625 38.5291 33.6448 38.4976 33.6485L38.4931 33.6491C38.4147 33.6579 38.3146 33.6702 38.2001 33.6845C38.0324 33.7055 37.8148 33.7335 37.557 33.7666C37.4618 33.7789 37.3611 33.7918 37.2554 33.8054C36.4661 33.9066 35.3663 34.0462 34.0518 34.2013C32.8453 34.3437 31.4603 34.4988 29.972 34.6488C28.1504 34.0578 26.1404 33.6285 24.0239 33.474ZM21.6177 39.2986C19.0397 39.4182 16.5018 39.4487 14.3 39.3162C12.4116 40.2739 10.5538 41.6359 8.79486 43.4983C7.00701 45.3913 5.94451 46.7148 5.38586 47.6055C5.69121 47.6005 6.05029 47.5798 6.4671 47.5423C7.61178 47.4392 8.98311 47.2314 10.5692 46.9911C10.8469 46.9491 11.1312 46.906 11.422 46.8623C11.4606 45.5148 11.8859 44.2295 12.7539 43.0963C14.3554 41.0055 17.1259 39.8938 20.3769 39.5944C20.8007 39.5553 21.2374 39.5295 21.6866 39.5171C21.6637 39.4444 21.6407 39.3715 21.6177 39.2986ZM25.9628 39.7643C27.9579 40.0304 30.1201 40.5077 32.4261 41.2123C33.5044 41.5418 34.3554 41.7374 35.0099 41.8434C34.2589 41.1678 33.1708 40.4144 31.8076 39.7192C31.0949 39.3557 30.3245 39.0157 29.5071 38.7142C28.2943 38.8315 27.0239 38.9438 25.7324 39.0425C25.8092 39.2839 25.8861 39.5245 25.9628 39.7643ZM22.9699 43.5195C22.1689 43.4935 21.4261 43.5147 20.7438 43.5775C18.0573 43.8249 16.5779 44.682 15.9294 45.5287C15.76 45.7497 15.62 46.0067 15.5295 46.3056C18.2176 46.0023 21.1002 45.8349 23.811 46.1259C23.5741 45.3875 23.3289 44.6293 23.0784 43.8548C23.0423 43.7434 23.0062 43.6316 22.9699 43.5195ZM25.1375 50.3821C24.852 50.32 24.5583 50.2653 24.2567 50.2179C21.8875 49.8453 19.2271 49.942 16.5632 50.2182C17.5795 51.7769 19.3251 53.584 22.0041 55.4975C23.7047 56.7123 24.9744 57.4527 25.8906 57.8416C26.2423 57.9909 26.496 58.0686 26.6695 58.1094C26.7226 57.6428 26.6873 56.8866 26.4957 55.7782C26.2405 54.302 25.7623 52.482 25.1375 50.3821ZM38.9966 37.6181C38.9962 37.6182 38.9913 37.6187 38.9827 37.6194C38.9926 37.6184 38.9969 37.618 38.9966 37.6181Z" fill="#CACACA"/>
</svg>
