<svg width="25" height="16" viewBox="0 0 25 16" fill="none" xmlns="http://www.w3.org/2000/svg">
<path d="M17.6483 9.13872L14.9248 8.49848L15.8191 0.9375H24.4674V3.6001H18.6138L18.2784 6.53709C18.441 6.44224 18.7154 6.33045 19.1016 6.20173C19.4945 6.06623 19.9282 5.99848 20.4024 5.99848C21.1341 5.99848 21.7811 6.11026 22.3435 6.33384C22.9126 6.55064 23.3936 6.87246 23.7866 7.29929C24.1795 7.71934 24.4742 8.23764 24.6707 8.85417C24.8739 9.4707 24.9756 10.1753 24.9756 10.968C24.9756 11.6048 24.8706 12.2214 24.6605 12.8176C24.4573 13.407 24.1422 13.9389 23.7154 14.4131C23.2954 14.8806 22.7635 15.2532 22.1199 15.531C21.4763 15.802 20.7141 15.9375 19.8333 15.9375C19.1761 15.9375 18.5359 15.8359 17.9126 15.6326C17.2893 15.4294 16.7269 15.138 16.2256 14.7586C15.731 14.3725 15.338 13.9084 15.0467 13.3664C14.7622 12.8176 14.6233 12.2044 14.63 11.5269H18.0752C18.0955 11.886 18.1802 12.1977 18.3292 12.4619C18.4783 12.7261 18.6782 12.9328 18.9288 13.0818C19.1863 13.2241 19.481 13.2952 19.813 13.2952C20.1517 13.2952 20.4329 13.2275 20.6565 13.092C20.88 12.9565 21.0562 12.7702 21.1849 12.533C21.3137 12.2959 21.4051 12.0249 21.4593 11.72C21.5135 11.4084 21.5406 11.0798 21.5406 10.7342C21.5406 10.3684 21.5 10.0398 21.4187 9.74848C21.3441 9.45715 21.2222 9.20986 21.0528 9.00661C20.8834 8.79658 20.6632 8.63736 20.3922 8.52896C20.128 8.42056 19.8096 8.36636 19.437 8.36636C18.9424 8.36636 18.5528 8.45105 18.2683 8.62043C17.9837 8.7898 17.7771 8.96257 17.6483 9.13872Z" fill="#FF0000"/>
<path d="M10.2703 6.81148V9.55539H2.67883V6.81148H10.2703ZM3.86785 0.9375V15.7342H0.300781V0.9375H3.86785ZM12.6687 0.9375V15.7342H9.11176V0.9375H12.6687Z" fill="#FF0000"/>
</svg>
