<svg width="55" height="55" viewBox="0 0 55 55" fill="none" xmlns="http://www.w3.org/2000/svg">
<g clip-path="url(#clip0_53_330)">
<path d="M44.0375 22.0188C44.0375 26.8777 42.4602 31.3661 39.8031 35.0077L53.2049 48.4201C54.5282 49.7433 54.5282 51.8923 53.2049 53.2155C51.8817 54.5388 49.7327 54.5388 48.4095 53.2155L35.0077 39.8031C31.3661 42.4708 26.8777 44.0375 22.0188 44.0375C9.85551 44.0375 0 34.182 0 22.0188C0 9.85551 9.85551 0 22.0188 0C34.182 0 44.0375 9.85551 44.0375 22.0188ZM11.0094 22.8656V29.6406C11.0094 31.0486 12.1421 32.1813 13.55 32.1813C14.9579 32.1813 16.0906 31.0486 16.0906 29.6406V22.8656C16.0906 21.4577 14.9579 20.325 13.55 20.325C12.1421 20.325 11.0094 21.4577 11.0094 22.8656ZM19.4781 12.7031V29.6406C19.4781 31.0486 20.6108 32.1813 22.0188 32.1813C23.4267 32.1813 24.5594 31.0486 24.5594 29.6406V12.7031C24.5594 11.2952 23.4267 10.1625 22.0188 10.1625C20.6108 10.1625 19.4781 11.2952 19.4781 12.7031ZM27.9469 19.4781V29.6406C27.9469 31.0486 29.0796 32.1813 30.4875 32.1813C31.8954 32.1813 33.0281 31.0486 33.0281 29.6406V19.4781C33.0281 18.0702 31.8954 16.9375 30.4875 16.9375C29.0796 16.9375 27.9469 18.0702 27.9469 19.4781Z" fill="black"/>
</g>
<defs>
<clipPath id="clip0_53_330">
<rect width="54.2" height="54.2" fill="white"/>
</clipPath>
</defs>
</svg>
