<svg width="14" height="14" viewBox="0 0 14 14" fill="none" xmlns="http://www.w3.org/2000/svg">
<path d="M7.10299 0.5C7.10299 0.367392 7.05031 0.240215 6.95654 0.146447C6.86278 0.0526784 6.7356 0 6.60299 0C6.47038 0 6.34321 0.0526784 6.24944 0.146447C6.15567 0.240215 6.10299 0.367392 6.10299 0.5V1.338C5.85099 1.402 5.61299 1.533 5.41599 1.73L0.43999 6.706C0.162847 6.9828 0.00497403 7.35704 0.000115535 7.7487C-0.00474296 8.14037 0.143799 8.51841 0.41399 8.802L4.03399 12.602C4.17191 12.7469 4.33743 12.8628 4.52082 12.9428C4.7042 13.0229 4.90174 13.0654 5.1018 13.0679C5.30186 13.0704 5.50041 13.0329 5.68575 12.9575C5.87108 12.8821 6.03947 12.7704 6.18099 12.629L11.249 7.561C11.3884 7.4217 11.499 7.2563 11.5744 7.07425C11.6498 6.8922 11.6887 6.69706 11.6887 6.5C11.6887 6.30294 11.6498 6.1078 11.5744 5.92575C11.499 5.7437 11.3884 5.5783 11.249 5.439L7.53699 1.73C7.41118 1.60488 7.26426 1.50298 7.10299 1.429V0.5ZM10.396 7H1.55999L6.10299 2.457V3.5C6.10299 3.63261 6.15567 3.75979 6.24944 3.85355C6.34321 3.94732 6.47038 4 6.60299 4C6.7356 4 6.86278 3.94732 6.95654 3.85355C7.05031 3.75979 7.10299 3.63261 7.10299 3.5V2.71L10.542 6.147C10.6357 6.24076 10.6884 6.36792 10.6884 6.5005C10.6884 6.63308 10.6357 6.76024 10.542 6.854L10.396 7ZM12.024 9.222C11.9714 9.16208 11.9067 9.11407 11.8341 9.08117C11.7615 9.04828 11.6827 9.03127 11.603 9.03127C11.5233 9.03127 11.4445 9.04828 11.3719 9.08117C11.2993 9.11407 11.2345 9.16208 11.182 9.222L10.032 10.537C8.84999 11.887 9.80799 14 11.603 14C13.398 14 14.356 11.887 13.175 10.537L12.024 9.222Z" fill="#FF0000"/>
</svg>
