<svg width="62" height="61" viewBox="0 0 62 61" fill="none" xmlns="http://www.w3.org/2000/svg">
<path fill-rule="evenodd" clip-rule="evenodd" d="M33.3138 2.31385C33.3138 1.03596 32.2778 0 30.9999 0C29.7221 0 28.6861 1.03596 28.6861 2.31385V20.8246C28.6861 22.1025 29.7221 23.1385 30.9999 23.1385C32.2778 23.1385 33.3138 22.1025 33.3138 20.8246V2.31385ZM40.2553 27.7662C38.9774 27.7662 37.9415 28.8021 37.9415 30.08C37.9415 31.3579 38.9774 32.3938 40.2553 32.3938H58.7661C60.0439 32.3938 61.0799 31.3579 61.0799 30.08C61.0799 28.8021 60.0439 27.7662 58.7661 27.7662H40.2553ZM30.9999 37.0215C32.2778 37.0215 33.3138 38.0575 33.3138 39.3354V57.8462C33.3138 59.124 32.2778 60.16 30.9999 60.16C29.7221 60.16 28.6861 59.124 28.6861 57.8462V39.3354C28.6861 38.0575 29.7221 37.0215 30.9999 37.0215ZM3.23377 27.7662C1.95588 27.7662 0.919922 28.8021 0.919922 30.08C0.919922 31.3579 1.95588 32.3938 3.23377 32.3938H21.7445C23.0224 32.3938 24.0584 31.3579 24.0584 30.08C24.0584 28.8021 23.0224 27.7662 21.7445 27.7662H3.23377ZM52.2691 8.81008C53.1727 9.71368 53.1727 11.1787 52.2691 12.0823L39.1798 25.1716C38.2762 26.0749 36.8114 26.0749 35.9077 25.1716C35.0041 24.2679 35.0041 22.8028 35.9077 21.8992L48.9967 8.81008C49.9003 7.90644 51.3655 7.90644 52.2691 8.81008ZM39.1798 34.9884C38.2762 34.0848 36.8114 34.0848 35.9077 34.9884C35.0041 35.8921 35.0041 37.3572 35.9077 38.2608L48.9967 51.3498C49.9003 52.2534 51.3655 52.2534 52.2691 51.3498C53.1727 50.4462 53.1727 48.981 52.2691 48.0774L39.1798 34.9884ZM26.0921 34.9884C26.9957 35.8921 26.9957 37.3572 26.0921 38.2608L13.003 51.3498C12.0994 52.2534 10.6343 52.2534 9.73074 51.3498C8.82714 50.4462 8.82714 48.981 9.73074 48.0774L22.8198 34.9884C23.7234 34.0848 25.1885 34.0848 26.0921 34.9884ZM13.003 8.81008C12.0994 7.90644 10.6343 7.90644 9.73074 8.81008C8.82714 9.71368 8.82714 11.1787 9.73074 12.0823L22.8198 25.1716C23.7234 26.0752 25.1885 26.0752 26.0921 25.1716C26.9957 24.2679 26.9957 22.8028 26.0921 21.8992L13.003 8.81008Z" fill="#CACACA"/>
</svg>
