<svg width="40" height="40" viewBox="0 0 40 40" fill="none" xmlns="http://www.w3.org/2000/svg">
<g clip-path="url(#clip0_60_579)">
<path d="M25 7.5H15L11.2969 1.94531C10.7422 1.10937 11.3359 0 12.3359 0H27.6641C28.6641 0 29.2578 1.10937 28.7031 1.94531L25 7.5ZM15 10H25C25.2969 10.1953 25.6328 10.4141 26.0156 10.6562C30.4453 13.4922 40 19.6016 40 32.5C40 36.6406 36.6406 40 32.5 40H7.5C3.35938 40 0 36.6406 0 32.5C0 19.6016 9.55469 13.4922 13.9844 10.6562C14.3594 10.4141 14.7031 10.1953 15 10ZM21.5625 16.875C21.5625 16.0156 20.8594 15.3125 20 15.3125C19.1406 15.3125 18.4375 16.0156 18.4375 16.875V17.9688C17.8438 18.1016 17.25 18.3125 16.7031 18.6328C15.6172 19.2813 14.6797 20.4141 14.6875 22.0625C14.6953 23.6484 15.625 24.6484 16.6172 25.2422C17.4766 25.7578 18.5469 26.0859 19.3984 26.3359L19.5312 26.375C20.5156 26.6719 21.2344 26.9062 21.7188 27.2109C22.1172 27.4609 22.1719 27.6328 22.1797 27.8516C22.1875 28.2422 22.0391 28.4766 21.7188 28.6719C21.3281 28.9141 20.7109 29.0625 20.0469 29.0391C19.1797 29.0078 18.3672 28.7344 17.3047 28.375C17.125 28.3125 16.9375 28.25 16.7422 28.1875C15.9219 27.9141 15.0391 28.3594 14.7656 29.1719C14.4922 29.9844 14.9375 30.875 15.75 31.1484C15.8984 31.1953 16.0625 31.25 16.2266 31.3125C16.875 31.5391 17.625 31.7969 18.4297 31.9688V33.125C18.4297 33.9844 19.1328 34.6875 19.9922 34.6875C20.8516 34.6875 21.5547 33.9844 21.5547 33.125V32.0469C22.1797 31.9141 22.8047 31.6953 23.3672 31.3438C24.4844 30.6484 25.3281 29.4609 25.3047 27.8281C25.2812 26.2422 24.3906 25.2188 23.3828 24.5781C22.4844 24.0156 21.3594 23.6719 20.4844 23.4063L20.4297 23.3906C19.4297 23.0859 18.7187 22.8672 18.2187 22.5703C17.8125 22.3281 17.8047 22.1875 17.8047 22.0469C17.8047 21.7578 17.9141 21.5391 18.2891 21.3203C18.7109 21.0703 19.3516 20.9219 19.9688 20.9297C20.7188 20.9375 21.5469 21.1016 22.4062 21.3359C23.2422 21.5547 24.0937 21.0625 24.3203 20.2266C24.5469 19.3906 24.0469 18.5391 23.2109 18.3125C22.7031 18.1797 22.1406 18.0469 21.5625 17.9453V16.875Z" fill="black"/>
</g>
<defs>
<clipPath id="clip0_60_579">
<rect width="40" height="40" fill="white"/>
</clipPath>
</defs>
</svg>
