<svg width="60" height="53" viewBox="0 0 60 53" fill="none" xmlns="http://www.w3.org/2000/svg">
<path d="M33.4942 20.4031L23.5884 34.9317L20.6933 31.3156L20.6928 31.315C20.1234 30.6094 19.2686 30.2 18.375 30.2C17.483 30.2 16.6154 30.6082 16.0562 31.3162L16.0558 31.3167L8.65708 40.5652C7.93768 41.458 7.80156 42.6856 8.29732 43.7144C8.793 44.7428 9.83404 45.4 10.975 45.4H22.075H25.775H49.8248C50.9276 45.4 51.9448 44.7928 52.4536 43.812C52.9612 42.8348 52.9 41.6572 52.2792 40.7512L38.4046 20.4014C37.8472 19.5838 36.9298 19.1 35.95 19.1C34.9719 19.1 34.0418 19.5824 33.4949 20.4021L33.4942 20.4031ZM1 8.2C1 4.22888 4.2289 1 8.2 1H52.6C56.5712 1 59.8 4.22888 59.8 8.2V45.2C59.8 49.1712 56.5712 52.4 52.6 52.4H8.2C4.2289 52.4 1 49.1712 1 45.2V8.2ZM13.75 19.5C15.275 19.5 16.7375 18.8942 17.8159 17.8159C18.8942 16.7375 19.5 15.275 19.5 13.75C19.5 12.225 18.8942 10.7625 17.8159 9.68412C16.7375 8.6058 15.275 8 13.75 8C12.225 8 10.7625 8.6058 9.68412 9.68412C8.6058 10.7625 8 12.225 8 13.75C8 15.275 8.6058 16.7375 9.68412 17.8159C10.7625 18.8942 12.225 19.5 13.75 19.5Z" fill="url(#paint0_linear_46_10)" stroke="#CCCCCC" stroke-width="0.4"/>
<defs>
<linearGradient id="paint0_linear_46_10" x1="6.32152" y1="0.800004" x2="68.574" y2="38.4072" gradientUnits="userSpaceOnUse">
<stop stop-color="#FF0000"/>
<stop offset="1" stop-color="white"/>
<stop offset="1" stop-color="white"/>
</linearGradient>
</defs>
</svg>
