<svg width="153" height="49" viewBox="0 0 153 49" fill="none" xmlns="http://www.w3.org/2000/svg">
<path d="M25 0.5L30.9017 18.6636H50L34.5492 29.8893L40.4509 48.0528L25 36.8271L9.54916 48.0528L15.4509 29.8893L0 18.6636H19.0983L25 0.5Z" fill="#FF8A00"/>
<g clip-path="url(#clip0_164_14)">
<path fill-rule="evenodd" clip-rule="evenodd" d="M91.4254 26.2288L55 26.2288L55 22.324L91.4254 22.324L80.6186 10.0376L83.0472 7.27637L98 24.2764L83.0472 41.2764L80.6186 38.5152L91.4254 26.2288Z" fill="#FF0000"/>
</g>
<g clip-path="url(#clip1_164_14)">
<path d="M149.494 25.1344C154.169 20.4599 154.169 12.8899 149.494 8.21529C145.357 4.07877 138.838 3.54094 134.081 6.94116L133.948 7.03225C132.757 7.88442 132.484 9.53899 133.336 10.7222C134.188 11.9053 135.843 12.1866 137.026 11.3344L137.159 11.2433C139.814 9.34877 143.446 9.64659 145.746 11.9549C148.352 14.5609 148.352 18.7805 145.746 21.3866L136.464 30.6857C133.858 33.2918 129.638 33.2918 127.032 30.6857C124.724 28.3775 124.426 24.7455 126.32 22.0981L126.412 21.9657C127.264 20.7742 126.982 19.1196 125.799 18.2757C124.616 17.4318 122.953 17.7049 122.109 18.8879L122.018 19.0203C118.61 23.7692 119.148 30.2886 123.284 34.4253C127.959 39.0999 135.529 39.0999 140.203 34.4253L149.494 25.1344ZM106.506 23.1983C101.831 27.8729 101.831 35.4429 106.506 40.1175C110.643 44.254 117.162 44.7918 121.919 41.3916L122.052 41.3005C123.243 40.4484 123.516 38.7938 122.664 37.6105C121.812 36.4275 120.157 36.1462 118.974 36.9984L118.841 37.0894C116.186 38.984 112.554 38.6862 110.254 36.3779C107.648 33.7636 107.648 29.544 110.254 26.9379L119.536 17.647C122.142 15.0409 126.362 15.0409 128.968 17.647C131.276 19.9553 131.574 23.5872 129.68 26.2429L129.588 26.3753C128.736 27.5668 129.018 29.2214 130.201 30.0653C131.384 30.9092 133.047 30.6362 133.891 29.4531L133.982 29.3207C137.39 24.5636 136.852 18.0442 132.716 13.9075C128.041 9.2329 120.471 9.2329 115.797 13.9075L106.506 23.1983Z" fill="#FF0000"/>
</g>
<defs>
<clipPath id="clip0_164_14">
<rect width="34" height="43" fill="white" transform="translate(55 41.2764) rotate(-90)"/>
</clipPath>
<clipPath id="clip1_164_14">
<rect width="50" height="39.1304" fill="white" transform="translate(103 4.71118)"/>
</clipPath>
</defs>
</svg>
