<svg width="15" height="18" viewBox="0 0 15 18" fill="none" xmlns="http://www.w3.org/2000/svg">
<path fill-rule="evenodd" clip-rule="evenodd" d="M2.9764 1.7419C3.2342 0.7402 4.1436 0 5.2258 0H9.2903C10.3726 0 11.2819 0.7402 11.5397 1.7419H12.1935C13.4763 1.7419 14.5161 2.7818 14.5161 4.0645V15.6774C14.5161 16.9601 13.4763 18 12.1935 18H2.3226C1.0399 18 0 16.9601 0 15.6774V4.0645C0 2.7818 1.0399 1.7419 2.3226 1.7419H2.9764ZM2.9764 2.9032H2.3226C1.6812 2.9032 1.1613 3.4232 1.1613 4.0645V15.6774C1.1613 16.3188 1.6812 16.8387 2.3226 16.8387H12.1935C12.8349 16.8387 13.3548 16.3188 13.3548 15.6774V4.0645C13.3548 3.4232 12.8349 2.9032 12.1935 2.9032H11.5397C11.2819 3.905 10.3726 4.6452 9.2903 4.6452H5.2258C4.1436 4.6452 3.2342 3.905 2.9764 2.9032ZM5.2258 1.1613C4.5844 1.1613 4.0645 1.6812 4.0645 2.3226C4.0645 2.9639 4.5844 3.4839 5.2258 3.4839H9.2903C9.9317 3.4839 10.4516 2.9639 10.4516 2.3226C10.4516 1.6812 9.9317 1.1613 9.2903 1.1613H5.2258Z" fill="#FF0000"/>
</svg>
