<svg width="50" height="31" viewBox="0 0 50 31" fill="none" xmlns="http://www.w3.org/2000/svg">
<path d="M25.4238 0.00144279C25.1047 0.00105967 24.7888 0.00611645 24.4682 0.0194739C14.5796 0.240453 5.56231 6.819 0 15.7065C9.14694 31.0991 30.409 35.087 43.2024 23.0091C45.8601 20.9305 48.1461 18.4039 50 15.4C44.4332 6.56132 35.3158 0.0118705 25.4249 0L25.4238 0.00144279ZM35.0885 6.9975C38.3326 9.0177 41.1694 11.9222 43.2924 15.2918C41.9359 17.49 40.2606 19.3604 38.3159 20.8814C28.9544 29.7195 13.4009 26.7899 6.70756 15.5262C8.82166 12.1483 11.6083 9.22908 14.8201 7.17709C14.0068 8.82394 13.6049 10.6434 13.6488 12.4797C13.5796 14.0132 13.822 15.5448 14.3611 16.982C14.9003 18.4193 15.7251 19.7323 16.7858 20.8419C17.8465 21.9516 19.1211 22.8348 20.5326 23.4381C21.9441 24.0415 23.4632 24.3526 24.9983 24.3526C26.5333 24.3526 28.0524 24.0415 29.4639 23.4381C30.8755 22.8348 32.1501 21.9516 33.2106 20.8419C34.2714 19.7323 35.0962 18.4193 35.6354 16.982C36.1746 15.5448 36.417 14.0132 36.3477 12.4797C36.3927 10.5755 35.9583 8.69054 35.0841 6.99822L35.0885 6.9975ZM24.6333 7.21675C25.3631 7.16477 26.0957 7.26386 26.7854 7.50785C27.4751 7.75183 28.1071 8.13544 28.6418 8.63472C29.1766 9.13399 29.6027 9.73819 29.8932 10.4096C30.184 11.0809 30.3329 11.805 30.3311 12.5366C30.3311 13.9476 29.7706 15.3007 28.773 16.2984C27.7753 17.296 26.4222 17.8565 25.0113 17.8565C23.6003 17.8565 22.2472 17.296 21.2495 16.2984C20.2519 15.3007 19.6914 13.9476 19.6914 12.5366C19.6879 11.1893 20.1958 9.8908 21.1126 8.90339C22.0293 7.91598 23.2865 7.3132 24.6304 7.21675H24.6333Z" fill="#FF0000"/>
</svg>
