<svg width="138" height="195" viewBox="0 0 138 195" fill="none" xmlns="http://www.w3.org/2000/svg">
<path fill-rule="evenodd" clip-rule="evenodd" d="M40 80C17.9086 80 0 97.9086 0 120V155C0 177.091 17.9086 195 40 195H98C120.091 195 138 177.091 138 155V120C138 97.9086 120.091 80 98 80H40ZM101.65 106.375L90.6001 116.125L111.4 115.475L101.65 106.375Z" fill="#FF0000"/>
<path d="M106 37.5C106 58.2107 89.2107 75 68.5 75C47.7893 75 31 58.2107 31 37.5C31 16.7893 47.7893 0 68.5 0C89.2107 0 106 16.7893 106 37.5Z" fill="#FF0000"/>
</svg>
