<svg width="139" height="60" viewBox="0 0 139 60" fill="none" xmlns="http://www.w3.org/2000/svg">
<path fill-rule="evenodd" clip-rule="evenodd" d="M114.443 49.9306V41.1363H123.958L107.221 24.3993L95.2007 36.4193L70 11.2186L76.2183 5L95.2007 23.9824L107.221 11.9623L130.176 34.9177V25.4026H138.971V49.9306H114.443Z" fill="black"/>
<path fill-rule="evenodd" clip-rule="evenodd" d="M30 60C46.5685 60 60 46.5685 60 30C60 13.4315 46.5685 0 30 0C13.4315 0 0 13.4315 0 30C0 46.5685 13.4315 60 30 60ZM42.2838 20.3132L37.9401 24.6568L42.2838 29.0005L39.6574 31.6269L32.6873 24.6568L39.6574 17.6868L42.2838 20.3132ZM22.6873 24.6568L18.3437 20.3132L20.9701 17.6868L27.9401 24.6568L20.9701 31.6269L18.3437 29.0005L22.6873 24.6568ZM40.3142 45.6269L35.9706 41.2832L30.3137 46.9401L24.6569 41.2832L20.3132 45.6269L17.6868 43.0005L24.6569 36.0304L30.3137 41.6873L35.9706 36.0304L42.9406 43.0005L40.3142 45.6269Z" fill="black"/>
</svg>
