<svg width="48" height="61" viewBox="0 0 48 61" fill="none" xmlns="http://www.w3.org/2000/svg">
<path fill-rule="evenodd" clip-rule="evenodd" d="M28.2976 14.6103V0.859429C28.2976 0.384783 27.9129 0 27.4382 0H5.09304C2.71978 0 0.795898 1.92388 0.795898 4.29714V55.8629C0.795898 58.2363 2.71978 60.16 5.09304 60.16H42.9079C45.2813 60.16 47.205 58.2363 47.205 55.8629V19.7669C47.205 19.2922 46.8204 18.9074 46.3456 18.9074H32.5948C30.2214 18.9074 28.2976 16.9835 28.2976 14.6103ZM34.3136 13.7509C33.8389 13.7509 33.4542 13.3661 33.4542 12.8914V3.58516C33.4542 2.81951 34.38 2.43607 34.9214 2.97747L44.2276 12.2837C44.7691 12.8251 44.3854 13.7509 43.6198 13.7509H34.3136ZM16.2656 33.5177C16.2656 27.3474 21.2678 22.3451 27.4382 22.3451C33.6085 22.3451 38.6108 27.3474 38.6108 33.5177C38.6108 39.6881 33.6085 44.6903 27.4382 44.6903C25.5299 44.6903 23.7337 44.2121 22.1623 43.3685C21.811 43.1801 21.3741 43.2279 21.0922 43.5098L15.5104 49.0916C14.5036 50.0985 12.8711 50.0985 11.8642 49.0916C10.8573 48.0847 10.8573 46.4525 11.8642 45.4456L17.4461 39.8637C17.728 39.5818 17.7758 39.1449 17.5874 38.7936C16.744 37.2222 16.2656 35.426 16.2656 33.5177ZM27.4382 27.5017C24.1156 27.5017 21.4222 30.1952 21.4222 33.5177C21.4222 36.8403 24.1156 39.5337 27.4382 39.5337C30.7607 39.5337 33.4542 36.8403 33.4542 33.5177C33.4542 30.1952 30.7607 27.5017 27.4382 27.5017Z" fill="#CACACA"/>
</svg>
