<svg width="400" height="339" viewBox="0 0 400 339" fill="none" xmlns="http://www.w3.org/2000/svg">
<path d="M53.6605 173.21C70.5733 146.187 92.8664 122.833 118.561 106.417C112.054 119.592 108.839 134.147 109.19 148.838C108.637 161.106 110.576 173.359 114.889 184.856C119.202 196.355 125.801 206.859 134.286 215.735C142.772 224.613 152.969 231.679 164.261 236.505C175.553 241.332 187.706 243.821 199.986 243.821C205.15 243.821 210.29 243.381 215.354 242.512C222.334 241.315 229.167 239.303 235.711 236.505C243.544 233.158 250.849 228.733 257.421 223.374L231.335 178.191C230.96 178.597 230.576 178.995 230.184 179.387C222.202 187.368 211.378 191.852 200.09 191.852C194.653 191.852 189.324 190.812 184.367 188.842C179.034 186.721 174.133 183.524 169.996 179.387C162.015 171.406 157.531 160.581 157.531 149.293C157.526 147.214 157.673 145.149 157.966 143.113C159.193 134.599 162.981 126.603 168.901 120.227C174.753 113.924 182.34 109.579 190.63 107.69L135.337 11.9189C128.986 0.918149 114.919 -2.85098 103.919 3.50029C92.9179 9.85157 89.1487 23.9182 95.5 34.9189L115.068 68.8124C68.9098 90.6104 28.7043 128.788 0 174.652C51.3947 261.14 150.6 302.621 240.563 286.176L264.419 327.495C270.77 338.495 284.836 342.264 295.837 335.913C306.838 329.562 310.607 315.495 304.256 304.494L268.374 242.346C253.944 249.286 238.675 253.778 223.108 255.943C159.079 264.85 90.0247 234.404 53.6605 173.21Z" fill="#FF0000"/>
<path d="M203.39 49.0118C200.838 49.0088 198.31 49.0492 195.746 49.1561C191.139 49.259 186.556 49.5345 182 49.976L217.413 110.312C221.716 112.229 225.679 114.852 229.134 118.078C233.413 122.072 236.822 126.906 239.146 132.277C241.472 137.647 242.663 143.44 242.649 149.293C242.649 150.545 242.594 151.791 242.485 153.029L273.664 206.151C278.39 199.608 282.235 192.449 285.083 184.856C289.397 173.359 291.336 161.106 290.782 148.838C291.142 133.604 287.666 118.525 280.673 104.986L280.708 104.98C306.661 121.142 329.355 144.378 346.339 171.335C335.487 188.92 322.085 203.883 306.527 216.051C300.692 221.561 294.556 226.498 288.176 230.877L306.527 262.143C320.331 254.228 333.454 244.558 345.619 233.073C366.881 216.444 385.169 196.231 400 172.2C355.466 101.491 282.526 49.0953 203.399 49.0003L203.39 49.0118Z" fill="#FF0000"/>
</svg>
