<svg width="18" height="21" viewBox="0 0 18 21" fill="none" xmlns="http://www.w3.org/2000/svg">
<path d="M7.00412 2.50705C6.8943 2.08244 6.46107 1.82725 6.03646 1.93706C5.38314 2.10602 4.80952 2.35709 4.45489 2.78479C4.03397 3.29244 4.04922 3.87623 4.22936 4.35066C4.39206 4.77915 4.70381 5.17704 5.00608 5.51343C5.29469 5.83461 5.63455 6.16332 5.95421 6.47248L6.0338 6.54947C6.38787 6.89215 6.71576 7.21328 6.98436 7.5229C7.25951 7.84009 7.42223 8.08959 7.49233 8.27728C7.55045 8.43289 7.52399 8.47651 7.50822 8.5025L7.50752 8.50365C7.46523 8.57352 7.30433 8.75197 6.78877 8.9559C6.40827 9.10641 5.97948 9.27646 5.49922 9.46856C4.62151 9.81965 3.95309 10.1597 3.5757 10.5397C3.37684 10.7399 3.15743 11.0533 3.16816 11.4688C3.17897 11.887 3.41679 12.1788 3.60632 12.3479C3.95766 12.6616 4.51652 12.8842 5.01412 13.0627C5.31157 13.1694 5.64562 13.2792 5.98625 13.3911L5.99228 13.3931C6.26494 13.4826 6.54377 13.5742 6.82281 13.6701C8.14276 14.1237 9.36816 14.6453 10.0584 15.3696C10.3813 15.7084 10.5608 16.0656 10.5965 16.4713C10.633 16.8867 10.527 17.447 10.1028 18.1975C9.88698 18.5793 10.0216 19.0638 10.4034 19.2796C10.7852 19.4954 11.2696 19.3608 11.4854 18.979C12.017 18.0385 12.2512 17.1566 12.1786 16.332C12.1051 15.4976 11.726 14.8172 11.2081 14.2738C10.2166 13.2335 8.62999 12.6118 7.339 12.1681C7.04041 12.0655 6.75128 11.9706 6.48053 11.8817C6.13919 11.7696 5.82944 11.6679 5.5505 11.5678C5.37753 11.5057 5.22729 11.448 5.09906 11.3937C5.32007 11.2735 5.63923 11.1231 6.08908 10.9432C6.56674 10.7521 6.99348 10.5829 7.37296 10.4328C8.02571 10.1746 8.5628 9.82737 8.86622 9.3261C9.19719 8.77935 9.16073 8.20496 8.98017 7.72156C8.80998 7.2659 8.49868 6.84481 8.18408 6.48216C7.86316 6.11222 7.48617 5.74484 7.13825 5.40812L7.0702 5.34228C6.73736 5.02035 6.43558 4.72802 6.18744 4.45188C5.91179 4.14512 5.76769 3.92785 5.71417 3.78689C5.71182 3.78069 5.70979 3.77503 5.70804 3.76989C5.77888 3.71255 5.97406 3.59369 6.43413 3.47471C6.85874 3.36489 7.11393 2.93166 7.00412 2.50705Z" fill="#FF0000"/>
<path fill-rule="evenodd" clip-rule="evenodd" d="M3.58824 0C1.60651 0 0 1.60651 0 3.58824V17.4118C0 19.3935 1.60651 21 3.58824 21H13.8824C15.8641 21 17.4706 19.3935 17.4706 17.4118V3.58824C17.4706 1.60651 15.8641 0 13.8824 0H3.58824ZM3.58824 1.58824C2.48367 1.58824 1.58824 2.48367 1.58824 3.58824V17.4118C1.58824 18.5163 2.48367 19.4118 3.58824 19.4118H13.8824C14.9869 19.4118 15.8824 18.5163 15.8824 17.4118V3.58824C15.8824 2.48367 14.9869 1.58824 13.8824 1.58824H3.58824Z" fill="#FF0000"/>
</svg>
