<svg width="62" height="61" viewBox="0 0 62 61" fill="none" xmlns="http://www.w3.org/2000/svg">
<path fill-rule="evenodd" clip-rule="evenodd" d="M20.6868 0C22.1107 0 23.2651 1.15435 23.2651 2.57829V16.3291C23.2651 17.7531 22.1107 18.9074 20.6868 18.9074C19.2628 18.9074 18.1085 17.7531 18.1085 16.3291V2.57829C18.1085 1.15435 19.2628 0 20.6868 0ZM41.3131 0C42.737 0 43.8914 1.15435 43.8914 2.57829V16.3291C43.8914 17.7531 42.737 18.9074 41.3131 18.9074C39.8892 18.9074 38.7348 17.7531 38.7348 16.3291V2.57829C38.7348 1.15435 39.8892 0 41.3131 0ZM35.2971 7.73486C35.2971 7.26021 34.9124 6.87543 34.4376 6.87543H27.5622C27.0875 6.87543 26.7028 7.26021 26.7028 7.73486V16.3291C26.7028 19.6517 24.0093 22.3451 20.6868 22.3451C17.3642 22.3451 14.6708 19.6517 14.6708 16.3291V7.73486C14.6708 7.26021 14.286 6.87543 13.8114 6.87543H5.21706C2.8438 6.87543 0.919922 8.79931 0.919922 11.1726V23.2046C0.919922 23.6792 1.30471 24.064 1.77935 24.064H60.2205C60.6952 24.064 61.0799 23.6792 61.0799 23.2046V11.1726C61.0799 8.79931 59.1562 6.87543 56.7828 6.87543H48.1885C47.7137 6.87543 47.3291 7.26021 47.3291 7.73486V16.3291C47.3291 19.6517 44.6356 22.3451 41.3131 22.3451C37.9905 22.3451 35.2971 19.6517 35.2971 16.3291V7.73486ZM61.0799 30.08C61.0799 29.6053 60.6952 29.2206 60.2205 29.2206H1.77935C1.30471 29.2206 0.919922 29.6053 0.919922 30.08V55.8629C0.919922 58.2363 2.8438 60.16 5.21706 60.16H56.7828C59.1562 60.16 61.0799 58.2363 61.0799 55.8629V30.08ZM12.9519 36.9554C12.9519 35.5315 14.1063 34.3771 15.5302 34.3771H18.9679C20.3919 34.3771 21.5462 35.5315 21.5462 36.9554C21.5462 38.3793 20.3919 39.5337 18.9679 39.5337H15.5302C14.1063 39.5337 12.9519 38.3793 12.9519 36.9554ZM29.2811 34.3771C27.8572 34.3771 26.7028 35.5315 26.7028 36.9554C26.7028 38.3793 27.8572 39.5337 29.2811 39.5337H32.7188C34.1427 39.5337 35.2971 38.3793 35.2971 36.9554C35.2971 35.5315 34.1427 34.3771 32.7188 34.3771H29.2811ZM40.4536 36.9554C40.4536 35.5315 41.608 34.3771 43.0319 34.3771H46.4696C47.8935 34.3771 49.0479 35.5315 49.0479 36.9554C49.0479 38.3793 47.8935 39.5337 46.4696 39.5337H43.0319C41.608 39.5337 40.4536 38.3793 40.4536 36.9554ZM29.2811 44.6903C27.8572 44.6903 26.7028 45.8447 26.7028 47.2686C26.7028 48.6925 27.8572 49.8469 29.2811 49.8469H32.7188C34.1427 49.8469 35.2971 48.6925 35.2971 47.2686C35.2971 45.8447 34.1427 44.6903 32.7188 44.6903H29.2811ZM40.4536 47.2686C40.4536 45.8447 41.608 44.6903 43.0319 44.6903H46.4696C47.8935 44.6903 49.0479 45.8447 49.0479 47.2686C49.0479 48.6925 47.8935 49.8469 46.4696 49.8469H43.0319C41.608 49.8469 40.4536 48.6925 40.4536 47.2686ZM15.5302 44.6903C14.1063 44.6903 12.9519 45.8447 12.9519 47.2686C12.9519 48.6925 14.1063 49.8469 15.5302 49.8469H18.9679C20.3919 49.8469 21.5462 48.6925 21.5462 47.2686C21.5462 45.8447 20.3919 44.6903 18.9679 44.6903H15.5302Z" fill="#CACACA"/>
</svg>
