<svg width="50" height="61" viewBox="0 0 50 61" fill="none" xmlns="http://www.w3.org/2000/svg">
<path fill-rule="evenodd" clip-rule="evenodd" d="M24.2978 27.8523C24.3052 27.7331 24.3401 27.6168 24.3999 27.5133L33.5285 11.702C33.7412 11.3334 34.2125 11.2071 34.5812 11.4199L43.9244 16.8142C44.2927 17.027 44.4191 17.4983 44.2064 17.8669L35.0778 33.6782C35.018 33.7817 34.9347 33.8699 34.8349 33.9359L24.7691 40.5819C24.2393 40.9318 23.5371 40.5264 23.5753 39.8927L24.2978 27.8523ZM36.893 7.41573C36.5243 7.20292 36.398 6.73164 36.611 6.36304L38.1799 3.6455C39.8824 0.696859 43.6525 -0.313413 46.6012 1.38899C49.5498 3.09136 50.5603 6.86175 48.8578 9.81039L47.2889 12.5279C47.0759 12.8965 46.6046 13.0228 46.2362 12.81L36.893 7.41573ZM10.3325 22.1914C5.9724 22.1914 1.85573 25.4169 1.85573 30.3328C1.85573 31.7609 2.2002 33.1514 2.46492 34.2198C2.49787 34.3526 2.5298 34.4818 2.55949 34.6044C2.8587 35.8402 3.00435 36.6845 2.89893 37.4585C2.66833 39.1511 2.01291 40.5067 1.15485 41.2148C0.170098 42.0276 0.0306171 43.4847 0.843304 44.4695C1.65599 45.4543 3.11309 45.5937 4.09784 44.7811C6.17868 43.0636 7.16115 40.425 7.48027 38.0824C7.71565 36.355 7.35029 34.7428 7.05329 33.5163L6.96144 33.1387C6.68026 31.9862 6.4794 31.1632 6.4794 30.3328C6.4794 28.372 8.10487 26.8151 10.3325 26.8151C11.513 26.8151 12.2554 27.1736 12.7631 27.6375C13.3069 28.1344 13.7458 28.9081 13.9992 29.9573C14.5225 32.1231 14.1024 34.8424 13.1085 36.6315L8.37714 45.148C7.13254 47.3883 6.4794 49.9088 6.4794 52.4715C6.4794 57.2965 10.501 60.722 14.9561 60.722C19.0203 60.722 21.7607 58.6272 23.0756 55.6961C24.3111 52.9422 24.2279 49.6314 23.3142 46.8905C22.9104 45.6794 21.6013 45.0247 20.39 45.4285C19.1787 45.8323 18.5241 47.1414 18.9278 48.3528C19.5554 50.2355 19.5229 52.319 18.857 53.8035C18.2707 55.1107 17.158 56.0983 14.9561 56.0983C12.7767 56.0983 11.1031 54.4736 11.1031 52.4715C11.1031 50.6945 11.5559 48.9468 12.4189 47.3932L17.1503 38.877C18.6959 36.0948 19.295 32.1887 18.4936 28.8717C18.0848 27.1795 17.2755 25.4977 15.8823 24.2243C14.4529 22.918 12.5695 22.1914 10.3325 22.1914Z" fill="#CACACA"/>
</svg>
