<svg width="55" height="62" viewBox="0 0 55 62" fill="none" xmlns="http://www.w3.org/2000/svg">
<g clip-path="url(#clip0_68_166)">
<path d="M42.771 5.39592C43.4848 3.73847 42.9524 1.80275 41.4885 0.738109C40.0247 -0.326534 38.0285 -0.229748 36.6614 0.955877L5.68993 28.0559C4.48011 29.1205 4.04457 30.8264 4.61319 32.3265C5.18181 33.8267 6.63359 34.843 8.24265 34.843H21.7322L12.4286 56.5472C11.7148 58.2046 12.2472 60.1403 13.711 61.205C15.1749 62.2696 17.1711 62.1728 18.5382 60.9872L49.5097 33.8872C50.7195 32.8226 51.155 31.1167 50.5864 29.6165C50.0178 28.1164 48.5781 27.1122 46.9569 27.1122H33.4674L42.771 5.39592Z" fill="black"/>
</g>
<defs>
<clipPath id="clip0_68_166">
<rect width="54.2" height="61.9429" fill="white" transform="translate(0.5)"/>
</clipPath>
</defs>
</svg>
