<?xml version="1.0" standalone="no"?>
<!DOCTYPE svg PUBLIC "-//W3C//DTD SVG 20010904//EN"
 "http://www.w3.org/TR/2001/REC-SVG-20010904/DTD/svg10.dtd">
<svg version="1.0" xmlns="http://www.w3.org/2000/svg"
 width="1140.000000pt" height="1140.000000pt" viewBox="0 0 1140.000000 1140.000000"
 preserveAspectRatio="xMidYMid meet">
<metadata>
Created by potrace 1.14, written by Peter Selinger 2001-2017
</metadata>
<g transform="translate(0.000000,1140.000000) scale(0.100000,-0.100000)"
fill="#000000" stroke="none">
<path d="M6189 8190 c-65 -11 -146 -58 -198 -115 -60 -67 -90 -142 -95 -237
-3 -61 0 -78 26 -129 46 -92 119 -138 229 -144 134 -7 240 45 321 155 70 96
86 255 35 343 -61 103 -179 150 -318 127z"/>
<path d="M405 7960 c-5 -8 -15 -63 -20 -115 -3 -22 -7 -51 -10 -64 -2 -14 -7
-47 -10 -75 -5 -48 -8 -68 -20 -141 -2 -16 -9 -66 -15 -110 -6 -44 -13 -91
-15 -105 -2 -14 -7 -45 -10 -70 -3 -25 -12 -88 -20 -140 -23 -158 -25 -176
-30 -216 -2 -21 -6 -52 -9 -69 -2 -16 -7 -52 -11 -80 -3 -27 -8 -57 -10 -65
-2 -8 -7 -39 -10 -69 -4 -30 -9 -63 -11 -75 -2 -12 -6 -43 -9 -71 -3 -27 -10
-75 -15 -105 -5 -30 -12 -77 -15 -105 -3 -27 -7 -61 -9 -75 -3 -14 -7 -41 -10
-60 -2 -19 -8 -57 -12 -85 -3 -27 -8 -59 -10 -70 -2 -11 -6 -42 -10 -69 -3
-28 -9 -68 -13 -90 -4 -23 -7 -59 -7 -80 l1 -39 268 0 c147 0 269 2 272 5 2 2
7 22 10 44 4 21 8 50 10 64 3 14 7 50 11 80 3 30 8 64 11 75 2 11 6 36 8 55 2
19 6 49 9 65 2 17 8 50 11 75 3 25 8 63 12 85 3 22 7 51 8 65 10 84 16 115 25
120 11 7 118 6 124 -1 4 -4 117 -355 143 -444 8 -27 17 -57 20 -65 3 -8 7 -19
8 -25 2 -5 14 -44 28 -85 14 -41 26 -84 28 -94 4 -18 18 -19 332 -19 180 0
330 3 334 6 3 4 2 17 -4 30 -6 12 -16 38 -23 57 -7 19 -16 44 -20 55 -4 11
-18 47 -30 80 -12 33 -32 87 -45 120 -13 33 -40 105 -60 160 -20 55 -41 109
-45 120 -5 11 -19 49 -31 85 -12 36 -26 70 -30 75 -17 23 -14 58 6 69 37 20
120 79 145 102 14 13 34 31 46 41 40 34 134 165 162 226 48 103 53 118 72 220
27 151 16 305 -30 400 -11 22 -20 45 -20 50 0 6 -11 25 -25 43 -14 18 -25 36
-25 41 0 4 -29 35 -64 68 -75 71 -92 85 -105 85 -5 0 -11 3 -13 8 -10 22 -179
85 -263 98 -62 9 -955 13 -960 4z m830 -537 c76 -40 115 -107 115 -197 -1
-109 -62 -206 -159 -255 -54 -28 -62 -29 -202 -30 -81 0 -153 -2 -160 -3 -17
-4 -15 40 6 179 13 85 36 248 40 288 2 17 4 32 4 35 1 3 72 5 159 4 138 -1
162 -3 197 -21z"/>
<path d="M2888 7415 c-2 -1 -25 -5 -53 -8 -214 -25 -434 -135 -594 -298 -83
-83 -88 -90 -117 -134 -10 -17 -21 -32 -25 -35 -6 -5 -33 -51 -34 -60 -1 -3
-12 -27 -27 -55 -24 -48 -55 -131 -62 -171 -7 -36 -19 -109 -22 -134 -11 -75
-3 -204 15 -280 20 -80 76 -212 93 -218 4 -2 8 -8 8 -14 0 -5 17 -30 38 -56
97 -119 261 -218 417 -251 139 -30 294 -28 445 5 14 3 35 7 47 10 12 2 42 13
67 24 25 10 46 17 46 15 0 -8 143 69 200 107 126 84 218 180 303 316 37 60 44
78 33 82 -27 9 -538 3 -545 -6 -30 -44 -158 -110 -234 -121 -172 -26 -294 29
-358 162 -51 105 -114 95 580 95 677 0 611 -7 625 65 4 17 9 41 12 55 3 14 7
81 8 149 2 102 -2 140 -20 212 -60 228 -195 387 -414 483 -36 16 -173 53 -200
55 -70 4 -229 8 -232 6z m130 -460 c87 -26 191 -145 192 -220 0 -20 -5 -21
-330 -20 l-331 0 6 22 c18 74 170 200 268 223 54 13 141 11 195 -5z"/>
<path d="M7405 7404 c-267 -47 -501 -187 -664 -399 -44 -57 -129 -213 -145
-265 -5 -14 -10 -29 -11 -35 -33 -98 -49 -290 -34 -401 21 -155 99 -307 213
-416 47 -45 156 -123 156 -111 0 4 4 3 8 -3 11 -16 130 -61 197 -74 135 -27
308 -26 440 4 83 19 225 72 236 89 3 5 9 7 12 5 14 -7 189 118 254 181 93 89
216 261 200 278 -4 3 -128 6 -276 5 l-270 0 -23 -25 c-27 -28 -121 -83 -159
-91 -125 -28 -196 -26 -272 8 -84 37 -148 115 -171 208 l-6 27 607 1 c334 0
611 4 616 9 26 26 49 293 33 391 -11 64 -38 163 -47 174 -5 6 -9 16 -9 24 0 8
-10 28 -22 45 -13 18 -21 32 -18 32 2 0 -10 21 -28 47 -34 49 -141 158 -155
158 -5 0 -23 11 -40 24 -48 36 -142 75 -232 98 -97 24 -288 30 -390 12z m239
-462 c63 -28 120 -90 146 -159 11 -30 18 -58 16 -62 -3 -4 -152 -7 -332 -6
-251 0 -328 3 -332 13 -2 6 2 12 9 12 7 0 9 3 6 6 -7 7 41 74 80 111 114 110
274 143 407 85z"/>
<path d="M3859 7373 c-3 -16 2 -36 56 -243 26 -96 50 -193 55 -215 9 -38 17
-66 40 -152 6 -21 13 -47 15 -58 5 -24 61 -240 80 -310 8 -27 25 -95 39 -150
15 -55 44 -167 65 -250 21 -82 44 -175 52 -205 7 -30 16 -59 20 -64 6 -7 380
-12 515 -7 12 1 27 13 37 34 21 42 170 316 223 412 13 22 34 63 48 90 15 28
46 86 70 130 47 85 109 201 148 275 12 25 25 47 28 50 3 3 18 30 33 60 16 30
32 62 37 70 5 8 35 62 66 120 31 58 69 128 84 155 14 28 52 98 84 158 l58 107
-294 0 -293 0 -44 -93 c-25 -50 -82 -169 -128 -264 -46 -94 -83 -175 -83 -179
0 -4 -7 -15 -16 -25 -8 -9 -17 -23 -18 -31 -3 -17 -184 -388 -189 -388 -2 0
-4 6 -4 13 0 6 -7 46 -16 87 -9 41 -19 86 -21 100 -2 14 -12 58 -20 97 -9 40
-18 85 -21 100 -2 16 -23 116 -46 223 -22 107 -42 204 -44 215 -3 11 -10 48
-16 83 l-13 62 -293 0 c-161 0 -294 -3 -294 -7z"/>
<path d="M5888 7373 c0 -5 -2 -12 -3 -18 -11 -70 -15 -97 -20 -135 -4 -25 -8
-57 -11 -72 -10 -63 -23 -156 -29 -208 -4 -38 -17 -128 -22 -155 -3 -16 -6
-41 -8 -55 -1 -14 -5 -43 -9 -65 -4 -22 -9 -58 -11 -80 -2 -22 -7 -56 -10 -75
-3 -19 -7 -53 -10 -75 -3 -22 -7 -51 -10 -65 -3 -14 -7 -45 -10 -70 -3 -25 -7
-56 -9 -70 -3 -14 -8 -45 -11 -70 -3 -25 -8 -56 -10 -70 -7 -40 -17 -112 -20
-150 -2 -19 -6 -51 -10 -70 -4 -19 -8 -51 -10 -70 -2 -19 -4 -35 -5 -35 -8 0
-6 -36 2 -42 17 -9 498 -7 508 3 4 5 11 34 14 64 4 30 14 100 22 155 8 55 17
118 19 140 3 22 7 51 10 64 2 13 7 49 11 80 3 31 8 65 10 76 2 10 6 35 8 55
13 91 17 117 20 135 2 11 7 47 11 80 4 32 8 66 10 75 1 8 6 38 9 65 4 28 13
92 21 144 8 52 14 97 13 100 0 3 1 8 2 11 3 10 8 37 14 91 4 30 8 65 10 79 2
14 7 48 11 75 3 28 9 66 12 85 13 83 39 75 -249 78 -142 1 -259 -1 -260 -5z"/>
<path d="M8455 7370 c-3 -5 -3 -15 0 -20 4 -6 9 -22 11 -37 3 -15 12 -59 20
-98 9 -38 17 -77 19 -86 2 -9 6 -33 9 -54 4 -20 8 -41 11 -45 2 -4 7 -22 9
-41 3 -19 14 -77 26 -129 45 -206 53 -246 55 -265 1 -11 5 -31 9 -43 5 -13 9
-34 11 -45 2 -12 13 -67 25 -122 12 -55 24 -113 26 -130 3 -16 10 -48 16 -70
6 -22 12 -53 15 -70 2 -16 13 -70 24 -120 11 -49 23 -103 26 -120 9 -56 32
-147 37 -153 3 -3 124 -5 268 -5 l263 0 21 49 c12 27 66 153 119 279 53 127
103 245 111 262 8 18 20 48 28 65 7 18 23 54 35 80 11 26 21 50 21 53 0 2 11
28 24 57 13 29 34 77 46 106 13 29 24 51 26 50 4 -4 7 -24 30 -183 2 -16 6
-41 9 -55 5 -27 9 -62 20 -150 7 -58 12 -91 19 -127 3 -12 7 -48 11 -80 3 -32
8 -65 10 -73 2 -8 6 -35 9 -60 4 -25 8 -56 10 -70 3 -14 10 -64 16 -112 11
-79 14 -88 34 -89 11 0 132 -1 268 -2 l246 -2 113 230 c124 254 496 1009 620
1260 43 89 79 164 79 168 0 4 -129 7 -288 7 l-287 -1 -19 -47 c-16 -39 -104
-253 -137 -329 -5 -13 -13 -33 -18 -45 -43 -104 -68 -162 -92 -217 -16 -35
-29 -67 -29 -72 0 -5 -10 -31 -21 -57 -33 -73 -46 -103 -65 -152 l-18 -44 -8
29 c-4 17 -10 46 -12 65 -3 19 -9 64 -15 100 -6 36 -13 83 -16 105 -4 22 -8
51 -10 65 -2 14 -7 48 -11 75 -3 28 -8 59 -10 70 -3 11 -7 36 -9 55 -9 60 -26
174 -31 200 -2 14 -6 45 -10 70 -3 25 -8 54 -11 65 -4 11 -7 29 -7 40 -1 19
-9 20 -267 23 l-267 2 -20 -42 c-11 -24 -39 -88 -62 -143 -23 -55 -52 -122
-65 -150 -12 -27 -50 -115 -85 -195 -34 -80 -66 -149 -70 -155 -5 -5 -9 -14
-10 -20 -4 -25 -104 -255 -110 -255 -3 0 -6 8 -6 18 -1 16 -7 65 -19 142 -3
19 -7 58 -10 85 -3 28 -8 57 -10 65 -3 9 -7 38 -10 65 -2 28 -6 61 -9 75 -2
14 -10 66 -16 115 -15 116 -17 129 -30 228 -7 45 -13 93 -15 107 -2 14 -4 33
-4 43 -1 16 -22 17 -295 17 -186 0 -297 -4 -301 -10z"/>
<path d="M7945 5540 c-2 -8 -7 -33 -9 -55 -6 -43 -13 -98 -22 -155 -3 -19 -7
-48 -9 -65 -2 -16 -6 -46 -9 -65 -3 -19 -8 -57 -12 -85 -3 -27 -7 -52 -9 -55
-1 -3 -6 -36 -10 -73 -3 -37 -8 -76 -10 -85 -1 -9 -6 -37 -9 -62 -3 -25 -8
-56 -10 -70 -5 -29 -17 -114 -21 -150 -7 -63 -17 -135 -20 -140 -2 -3 -6 -32
-9 -65 -4 -33 -9 -67 -11 -75 -2 -8 -6 -40 -10 -71 -3 -31 -8 -67 -10 -80 -3
-13 -7 -48 -11 -77 -3 -29 -7 -63 -10 -75 -2 -12 -7 -42 -10 -67 -3 -25 -9
-72 -14 -105 -9 -57 -14 -92 -25 -175 -14 -100 -17 -116 -21 -132 -3 -11 0
-18 8 -19 49 -4 651 -3 656 1 8 6 9 11 17 77 3 27 8 60 10 74 3 13 7 47 10 74
3 28 8 57 10 65 2 8 7 38 10 66 l6 51 -98 -1 c-54 -1 -104 0 -110 2 -8 3 -11
17 -8 40 9 61 17 116 21 136 2 10 6 44 9 75 4 31 8 63 10 71 2 8 7 42 10 75 4
33 8 67 10 75 2 8 7 35 10 60 6 47 15 114 20 140 2 8 6 40 9 71 4 31 8 65 10
75 2 11 7 46 12 79 4 33 8 62 9 65 0 3 4 32 9 65 4 33 9 71 11 85 13 91 26
181 30 215 6 56 17 126 22 150 2 11 6 45 9 75 l6 55 -221 0 c-189 0 -222 -2
-226 -15z"/>
<path d="M2448 5494 c-279 -44 -514 -225 -594 -459 -36 -102 -40 -318 -8 -395
28 -66 76 -131 131 -175 26 -22 50 -42 53 -45 16 -18 186 -96 230 -105 95 -21
253 -91 288 -128 52 -55 47 -129 -14 -190 -82 -82 -232 -89 -311 -15 -24 23
-47 79 -48 118 l0 25 -242 0 c-166 1 -244 -3 -247 -10 -8 -22 2 -183 14 -221
33 -103 110 -211 195 -274 46 -34 125 -70 200 -91 135 -37 360 -28 475 18 8 3
20 7 26 8 6 2 37 15 69 30 178 85 325 242 382 407 28 84 36 141 36 239 -3 241
-142 379 -503 496 -191 62 -237 92 -259 170 -15 51 29 127 92 159 37 20 114
25 159 12 59 -17 109 -85 102 -135 -3 -18 1 -23 19 -24 26 -1 423 -1 453 0 20
1 21 6 19 89 -3 180 -77 309 -238 413 -51 33 -139 68 -187 75 -8 1 -32 5 -52
9 -69 12 -162 11 -240 -1z"/>
<path d="M799 5253 c0 -10 -42 -142 -92 -293 l-92 -275 -302 0 c-167 0 -303
-2 -302 -5 0 -4 445 -329 480 -351 7 -4 -82 -304 -111 -374 -24 -57 -66 -205
-58 -205 5 0 29 15 52 33 24 17 54 39 66 47 12 8 33 23 47 34 112 85 310 226
320 226 7 0 94 -60 193 -132 257 -188 300 -218 300 -211 0 11 -91 297 -101
318 -6 12 -11 27 -13 35 -1 8 -15 56 -31 105 -16 50 -29 97 -30 106 0 14 185
156 378 291 18 13 34 25 37 28 3 3 18 14 33 24 16 9 26 21 22 24 -4 4 -139 7
-300 7 -162 1 -296 3 -298 5 -4 5 -79 238 -83 255 -3 16 -65 207 -74 230 -5
11 -14 37 -20 58 -13 40 -19 47 -21 20z"/>
<path d="M6929 5006 c-2 -2 -22 -7 -44 -10 -74 -11 -100 -18 -159 -43 -59 -25
-126 -64 -160 -95 -18 -17 -42 -15 -31 2 3 5 7 30 10 58 l5 49 -219 -1 c-121
-1 -222 -3 -225 -6 -6 -6 -12 -39 -21 -119 -4 -30 -8 -62 -10 -71 -2 -9 -6
-41 -10 -70 -4 -29 -9 -62 -11 -74 -2 -12 -7 -45 -9 -75 -3 -29 -7 -56 -9 -60
-2 -3 -7 -34 -11 -68 -3 -34 -8 -72 -10 -85 -3 -13 -7 -41 -10 -63 -2 -22 -6
-51 -9 -65 -3 -14 -12 -79 -21 -145 -9 -66 -18 -131 -20 -145 -9 -66 -17 -117
-20 -140 -2 -14 -6 -45 -10 -70 -12 -82 -14 -95 -20 -140 -7 -55 -16 -118 -21
-145 -2 -11 -7 -42 -10 -70 -7 -62 -10 -79 -18 -135 -10 -61 -14 -95 -22 -160
l-6 -56 223 1 c172 0 224 3 225 13 1 6 3 15 4 20 1 4 2 10 1 15 0 4 6 49 14
100 8 50 17 115 20 142 4 28 8 59 10 70 1 11 6 44 10 74 4 30 9 63 11 75 2 12
6 46 10 76 3 30 9 58 12 62 4 4 24 -8 45 -27 135 -124 354 -155 573 -80 228
77 446 315 518 566 64 221 48 433 -47 609 -58 108 -220 238 -320 255 -16 3
-34 8 -39 11 -5 3 -40 7 -78 9 -38 2 -73 6 -78 9 -5 3 -11 4 -13 2z m-54 -449
c11 -3 25 -6 31 -6 41 -3 141 -100 148 -144 1 -6 5 -18 10 -26 17 -27 9 -153
-13 -211 -29 -76 -106 -161 -179 -197 -50 -24 -69 -27 -152 -28 -105 0 -149
16 -202 72 -83 87 -93 248 -21 370 28 49 84 105 122 124 14 7 32 18 40 23 7 6
18 11 25 12 100 21 141 23 191 11z"/>
<path d="M10840 5003 c0 -5 -15 -8 -34 -7 -19 1 -56 -2 -82 -7 -27 -5 -57 -11
-66 -12 -10 -2 -21 -6 -24 -10 -4 -4 -14 -7 -21 -7 -26 0 -127 -52 -173 -89
-140 -112 -200 -232 -204 -411 -3 -104 32 -181 110 -245 71 -57 157 -98 264
-125 168 -41 230 -79 230 -139 -1 -52 -63 -97 -137 -99 -58 -2 -113 44 -113
94 l0 34 -226 0 -226 0 5 -72 c6 -91 10 -107 42 -166 50 -93 137 -163 251
-203 98 -35 223 -43 344 -23 93 16 120 24 195 59 123 58 221 151 271 255 50
105 64 273 29 356 -20 47 -82 124 -101 124 -8 0 -14 4 -14 8 0 23 -204 104
-293 118 -16 2 -57 17 -92 34 -50 24 -65 37 -74 62 -15 42 -14 52 7 75 43 50
122 59 166 18 25 -23 30 -35 27 -62 -2 -16 -17 -15 232 -17 131 -1 211 3 215
9 3 5 5 36 4 68 -4 107 -86 241 -182 296 -50 29 -99 51 -115 51 -9 0 -24 4
-33 9 -10 5 -50 12 -91 15 -40 3 -77 8 -82 12 -5 3 -9 1 -9 -3z"/>
<path d="M5817 4979 c-15 -4 -27 -5 -27 -2 0 3 -6 0 -13 -6 -8 -6 -22 -12 -33
-14 -46 -9 -153 -76 -206 -129 -32 -33 -38 -34 -34 -10 2 9 7 37 10 62 3 25 8
54 10 66 4 21 2 21 -220 21 -195 0 -224 -2 -228 -16 -2 -9 -7 -41 -11 -71 -4
-30 -8 -62 -10 -71 -1 -8 -6 -42 -9 -75 -4 -32 -9 -66 -11 -74 -2 -8 -7 -37
-10 -65 -4 -27 -8 -63 -11 -80 -5 -41 -24 -175 -29 -205 -3 -14 -7 -50 -11
-80 -3 -30 -8 -64 -10 -75 -2 -11 -7 -40 -10 -65 -3 -25 -7 -56 -9 -70 -3 -14
-7 -45 -11 -70 -3 -25 -7 -56 -10 -70 -2 -14 -6 -45 -10 -70 -3 -25 -7 -56
-10 -70 -8 -45 -17 -124 -18 -164 l-1 -40 213 -1 c132 0 217 4 222 10 4 5 13
51 20 100 7 50 14 97 15 106 2 9 6 40 10 70 3 30 9 68 12 84 6 36 8 53 17 125
4 30 9 66 11 80 3 14 7 47 10 73 6 53 35 132 62 173 22 34 72 84 84 84 5 0 9
4 9 9 0 7 86 50 115 57 41 10 105 20 127 19 29 -1 29 0 44 90 3 22 7 51 9 65
1 14 5 39 8 55 4 17 9 55 12 85 3 30 8 64 10 75 3 11 7 37 10 58 5 37 5 38
-28 35 -18 -1 -45 -5 -60 -9z"/>
<path d="M3409 4966 c-1 0 -3 -10 -4 -21 -2 -11 -6 -36 -10 -55 -3 -19 -8 -48
-9 -65 -2 -16 -6 -48 -10 -70 -9 -57 -16 -104 -21 -155 -3 -25 -7 -56 -10 -70
-3 -14 -7 -45 -10 -70 -3 -25 -8 -58 -11 -75 -3 -16 -7 -43 -9 -60 -3 -40 -16
-133 -21 -159 -2 -12 -7 -48 -10 -81 -3 -33 -8 -63 -10 -67 -6 -9 -6 -148 0
-173 21 -97 54 -162 116 -223 40 -40 127 -92 156 -92 11 0 24 -3 28 -7 3 -4
14 -9 24 -11 23 -5 213 -5 232 1 77 20 111 32 145 49 42 21 144 94 158 112 7
10 6 -9 -8 -99 -3 -19 -2 -35 2 -36 24 -3 420 -4 430 -1 10 3 22 57 28 127 1
11 7 54 14 95 6 41 13 93 16 115 3 22 7 54 10 70 11 62 15 91 20 135 3 25 7
54 9 66 2 12 7 45 11 75 3 30 8 65 10 79 4 26 13 90 20 137 3 27 9 62 21 141
3 20 7 53 9 72 2 19 6 49 9 65 6 40 25 171 30 216 l4 36 -224 0 c-179 0 -224
-3 -225 -14 -1 -7 -2 -16 -3 -20 -3 -11 -18 -122 -22 -158 -1 -16 -6 -46 -9
-65 -4 -19 -8 -52 -10 -72 -2 -21 -6 -50 -9 -65 -3 -15 -8 -48 -11 -73 -4 -25
-8 -56 -10 -70 -2 -14 -7 -50 -11 -80 -18 -137 -23 -169 -39 -226 -17 -61 -71
-122 -135 -156 -59 -30 -178 -33 -231 -4 -58 31 -84 78 -85 156 -1 37 2 88 7
112 4 25 11 70 14 99 7 61 11 91 18 135 6 36 25 165 33 214 2 19 7 51 10 70 9
64 12 85 19 140 4 30 8 60 9 65 0 6 -80 10 -221 11 -123 1 -224 1 -224 0z"/>
<path d="M8700 4960 c-5 -3 -12 -28 -14 -54 -3 -27 -7 -56 -10 -65 -3 -9 -7
-43 -11 -76 -3 -33 -8 -69 -10 -80 -2 -11 -7 -40 -10 -65 -3 -25 -7 -56 -9
-70 -3 -14 -7 -47 -11 -75 -3 -27 -8 -63 -11 -80 -3 -16 -6 -46 -8 -65 -2 -19
-6 -49 -9 -65 -3 -17 -9 -52 -12 -80 -3 -27 -10 -86 -16 -130 -7 -44 -12 -98
-12 -120 -2 -220 136 -390 343 -422 174 -26 331 13 469 117 29 23 54 40 56 38
2 -2 -1 -29 -6 -61 -5 -32 -8 -61 -5 -65 4 -7 433 -9 440 -1 2 2 7 23 10 47
10 67 17 119 21 149 2 15 6 42 9 58 3 17 8 53 11 80 3 28 8 61 10 75 2 14 6
48 10 75 3 28 9 61 11 75 3 14 7 41 9 60 5 44 9 78 30 215 9 61 18 130 21 155
2 25 6 52 9 60 2 8 7 40 10 70 3 30 8 62 11 71 2 8 6 37 9 65 2 27 9 74 14
104 5 30 7 58 5 61 -4 7 -410 9 -434 3 -9 -2 -16 -12 -16 -21 -1 -28 -16 -147
-19 -153 -1 -3 -6 -30 -9 -61 -4 -31 -8 -66 -10 -76 -5 -22 -17 -113 -21 -153
-2 -14 -4 -25 -5 -25 -2 0 -13 -94 -14 -122 -1 -13 -3 -23 -6 -23 -3 0 -5 -10
-6 -22 -1 -44 -14 -127 -29 -183 -28 -107 -152 -192 -270 -186 -80 4 -129 33
-164 94 -17 31 -20 50 -17 124 2 48 7 99 9 113 3 14 11 61 17 106 6 44 12 89
14 100 4 18 12 76 22 153 2 19 6 46 9 60 2 14 7 46 10 71 3 25 10 72 15 105
18 114 41 102 -206 101 -118 0 -219 -3 -224 -6z"/>
</g>
</svg>
