<?xml version="1.0" standalone="no"?>
<!DOCTYPE svg PUBLIC "-//W3C//DTD SVG 20010904//EN"
 "http://www.w3.org/TR/2001/REC-SVG-20010904/DTD/svg10.dtd">
<svg version="1.0" xmlns="http://www.w3.org/2000/svg"
 width="1532.000000pt" height="1532.000000pt" viewBox="0 0 1532.000000 1532.000000"
 preserveAspectRatio="xMidYMid meet">
<metadata>
Created by potrace 1.14, written by Peter Selinger 2001-2017
</metadata>
<g transform="translate(0.000000,1532.000000) scale(0.100000,-0.100000)"
fill="#000000" stroke="none">
<path d="M8408 11025 c-2 -2 -30 -6 -63 -9 -209 -21 -388 -195 -422 -411 -15
-96 -6 -163 33 -243 32 -66 80 -114 144 -147 62 -31 89 -37 180 -40 175 -5
317 69 420 219 63 92 98 257 75 356 -30 135 -149 247 -280 265 -22 3 -50 7
-62 9 -12 2 -24 2 -25 1z"/>
<path d="M549 10709 c-5 -3 -12 -19 -14 -35 -12 -72 -15 -92 -20 -139 -4 -27
-8 -57 -10 -65 -3 -8 -7 -38 -10 -66 -3 -28 -8 -61 -10 -75 -3 -13 -7 -46 -10
-74 -4 -27 -8 -61 -10 -75 -2 -14 -6 -43 -10 -65 -3 -23 -7 -51 -9 -62 -3 -12
-7 -46 -10 -75 -4 -29 -8 -62 -10 -73 -2 -11 -7 -42 -10 -70 -4 -27 -13 -93
-21 -145 -8 -52 -17 -118 -20 -146 -3 -28 -8 -61 -11 -75 -2 -13 -6 -40 -9
-59 -2 -19 -11 -84 -20 -145 -8 -60 -18 -130 -21 -155 -3 -25 -7 -56 -9 -69
-6 -32 -15 -99 -20 -136 -2 -16 -4 -30 -5 -30 -1 0 -3 -13 -5 -30 -4 -50 -15
-129 -20 -145 -2 -8 -6 -40 -10 -71 -3 -31 -7 -65 -9 -75 -2 -11 -7 -41 -10
-69 -11 -80 -46 -328 -50 -355 -3 -14 -7 -45 -10 -70 -4 -25 -8 -56 -11 -70
-2 -14 -7 -47 -10 -75 -12 -98 -21 -157 -29 -192 -2 -12 1 -23 7 -25 20 -6
726 -2 732 4 6 6 11 28 19 103 3 28 8 61 10 75 3 14 7 45 10 70 4 25 8 56 11
70 2 14 6 45 9 70 3 25 8 61 11 80 3 19 7 49 10 65 2 17 6 48 10 70 3 22 8 62
10 89 3 27 7 56 9 65 3 9 8 41 12 71 4 30 8 65 9 77 2 12 6 34 9 50 l7 28 89
0 90 0 6 -28 c3 -15 23 -80 44 -145 30 -93 60 -187 85 -272 1 -3 4 -12 8 -20
7 -19 28 -87 31 -103 2 -7 6 -21 10 -32 15 -40 16 -43 120 -380 4 -11 881 -13
891 -3 5 5 -10 53 -35 113 -5 11 -45 119 -90 240 -85 230 -91 244 -108 285 -6
14 -34 88 -62 165 -44 118 -101 271 -116 310 -3 6 15 22 38 35 105 58 250 181
335 283 124 148 212 353 240 557 13 91 8 267 -10 350 -2 8 -7 32 -11 53 -5 20
-12 40 -17 43 -5 3 -9 15 -9 28 0 12 -5 27 -12 34 -6 6 -13 18 -14 26 -1 8
-23 47 -49 88 -83 128 -212 241 -350 303 -77 36 -161 64 -205 71 -19 3 -41 7
-48 9 -38 13 -222 18 -730 19 -310 0 -568 -2 -573 -5z m1101 -722 c30 -14 68
-37 83 -52 37 -35 75 -119 80 -174 4 -43 -8 -143 -20 -171 -3 -8 -7 -17 -8
-20 -6 -24 -43 -77 -83 -119 -45 -47 -125 -93 -184 -107 -28 -7 -398 -12 -416
-6 -12 4 -12 14 3 112 2 14 7 49 10 79 4 30 9 63 11 75 6 32 14 90 19 132 2
21 7 55 10 74 7 36 10 55 21 145 3 28 10 52 14 55 4 3 97 4 207 4 189 -1 201
-3 253 -27z"/>
<path d="M3878 9975 c-2 -1 -25 -5 -53 -8 -52 -6 -68 -9 -177 -32 -15 -3 -65
-19 -110 -36 -212 -77 -391 -191 -542 -344 -59 -61 -181 -219 -204 -265 -7
-14 -22 -43 -35 -65 -49 -86 -107 -261 -122 -365 -33 -237 -20 -415 45 -585
16 -44 85 -173 114 -215 50 -72 165 -183 249 -238 42 -28 77 -48 77 -45 0 3 8
-1 18 -10 41 -37 246 -100 369 -113 287 -31 570 21 816 148 222 115 399 272
534 473 35 52 83 138 83 148 0 2 -166 3 -368 3 l-368 -1 -50 -44 c-134 -118
-330 -162 -524 -117 -77 18 -174 95 -223 178 -22 38 -50 116 -52 143 0 7 280
10 819 11 l819 0 12 42 c7 22 16 62 20 87 3 26 9 57 12 68 8 36 10 309 2 347
-45 203 -85 306 -167 425 -61 88 -70 98 -157 171 -103 86 -193 137 -322 180
-83 28 -89 29 -173 45 -48 9 -334 21 -342 14z m147 -611 c104 -26 187 -87 240
-178 27 -47 57 -137 49 -146 -3 -3 -206 -5 -450 -5 -441 0 -444 0 -438 20 16
55 160 225 191 225 7 0 13 5 13 10 0 6 7 10 15 10 8 0 15 3 15 8 0 4 21 16 47
26 108 45 217 55 318 30z"/>
<path d="M9975 9964 c-203 -32 -381 -95 -530 -190 -27 -17 -54 -32 -59 -32 -5
0 -12 -4 -15 -9 -3 -5 -26 -24 -51 -43 -75 -58 -80 -62 -151 -135 -75 -76
-172 -201 -204 -262 -11 -21 -32 -59 -47 -85 -15 -27 -25 -48 -22 -48 4 0 2
-6 -3 -12 -29 -37 -85 -247 -98 -368 -18 -171 3 -378 51 -487 8 -17 14 -35 14
-40 0 -4 16 -39 36 -78 148 -289 443 -484 789 -522 227 -25 500 13 700 98 17
7 32 13 35 14 16 4 151 77 183 99 21 14 42 26 47 26 4 0 10 3 12 8 2 4 30 27
63 52 70 52 176 155 231 225 21 28 42 52 45 55 9 7 109 182 109 190 0 4 -167
6 -371 6 -319 -1 -372 -3 -382 -16 -24 -31 -98 -82 -159 -109 -209 -94 -431
-69 -559 61 -42 43 -105 162 -111 208 l-3 25 819 1 820 0 8 30 c13 44 26 109
36 179 9 66 9 265 -1 335 -27 206 -126 410 -263 544 -38 38 -95 87 -120 103
-140 93 -285 149 -459 178 -72 13 -308 12 -390 -1z m240 -604 c8 -7 15 -9 15
-6 0 4 10 1 23 -6 12 -7 24 -12 27 -13 3 0 21 -11 40 -24 84 -59 143 -151 165
-256 4 -20 0 -20 -445 -20 -248 0 -450 3 -450 8 0 23 62 110 125 173 73 74
165 128 254 150 58 15 227 10 246 -6z"/>
<path d="M5175 9909 c3 -10 7 -26 9 -36 2 -10 12 -45 22 -78 10 -33 19 -64 20
-70 1 -5 5 -21 7 -35 5 -21 24 -97 83 -320 2 -8 8 -33 14 -55 6 -22 13 -51 16
-65 3 -14 8 -34 11 -45 4 -11 8 -24 9 -30 2 -5 5 -19 8 -30 3 -11 17 -65 31
-120 15 -55 28 -107 30 -115 2 -8 17 -69 35 -135 34 -130 38 -146 44 -172 2
-10 23 -90 46 -178 23 -88 44 -168 46 -177 5 -23 6 -27 49 -193 21 -77 39
-147 41 -155 24 -100 46 -178 52 -189 13 -23 719 -23 726 -1 3 8 22 47 44 85
21 39 54 99 73 135 19 36 36 67 39 70 3 3 20 34 39 70 52 100 116 221 141 265
13 22 41 74 63 115 22 41 51 95 65 120 39 70 75 137 127 235 26 50 59 110 73
135 13 25 43 79 65 120 22 41 60 111 84 155 24 44 53 100 66 125 12 25 25 47
28 50 5 4 93 168 161 300 13 25 25 47 28 50 3 3 14 23 26 45 11 22 32 62 47
88 15 26 27 49 27 50 0 2 -176 3 -392 2 l-392 0 -47 -95 c-62 -124 -183 -374
-185 -380 0 -3 -50 -106 -111 -230 -60 -124 -152 -312 -203 -417 -52 -106 -95
-191 -97 -189 -2 2 -6 16 -9 32 -3 16 -7 36 -9 44 -3 8 -7 33 -10 55 -3 22
-10 54 -15 70 -4 17 -11 48 -15 70 -4 22 -9 51 -12 65 -3 14 -7 34 -8 45 -2
11 -4 20 -5 20 -1 0 -3 7 -5 15 -1 8 -7 40 -14 70 -6 30 -13 66 -15 80 -3 14
-9 39 -14 55 -5 17 -7 36 -5 43 3 6 0 12 -7 12 -6 0 -9 4 -5 9 3 5 0 31 -6 58
-6 26 -13 58 -14 70 -2 11 -6 31 -10 43 -4 12 -8 32 -10 43 -1 12 -7 47 -14
77 -6 30 -13 64 -15 75 -2 11 -7 31 -10 45 -3 14 -8 36 -10 50 -6 30 -25 119
-30 140 -3 8 -5 17 -5 21 -1 3 -181 5 -401 5 -373 0 -400 -1 -395 -17z"/>
<path d="M7913 9921 c-9 -7 -8 -5 -17 -76 -4 -27 -8 -61 -11 -75 -2 -14 -6
-41 -9 -60 -3 -19 -10 -73 -16 -120 -7 -47 -13 -96 -15 -110 -2 -14 -4 -25 -5
-25 -1 0 -3 -13 -4 -30 -4 -39 -15 -115 -20 -140 -2 -11 -7 -49 -11 -85 -4
-36 -8 -67 -10 -70 -2 -3 -6 -34 -10 -70 -3 -35 -8 -67 -10 -70 -2 -3 -6 -30
-9 -60 -3 -30 -8 -64 -10 -75 -4 -22 -12 -80 -22 -160 -3 -27 -8 -59 -11 -70
-2 -11 -6 -37 -8 -57 -2 -21 -6 -50 -9 -65 -3 -15 -9 -53 -12 -83 -3 -30 -7
-62 -8 -70 -2 -8 -6 -40 -11 -70 -4 -30 -9 -62 -10 -71 -2 -9 -6 -40 -10 -70
-3 -30 -8 -65 -10 -79 -8 -46 -14 -85 -20 -135 -3 -27 -7 -57 -10 -65 -4 -14
-14 -97 -18 -144 -2 -19 8 -20 341 -20 218 -1 347 3 352 9 4 6 11 37 15 70 7
64 9 75 19 145 4 25 11 79 17 120 6 41 12 86 14 100 2 14 6 44 9 68 3 23 9 61
12 85 3 23 8 56 10 72 2 17 6 41 9 55 3 14 7 48 10 75 3 28 8 61 10 75 2 14 6
45 9 70 4 25 8 52 11 60 2 8 7 44 10 80 4 36 9 74 11 85 6 29 14 85 19 130 2
22 6 51 9 65 4 23 11 71 22 160 2 19 6 46 9 60 2 14 7 48 11 75 3 28 8 59 10
70 2 11 6 37 9 58 3 20 7 54 10 75 3 20 7 48 10 62 3 14 8 54 11 90 3 35 7 67
9 70 5 8 18 118 16 135 -1 12 -674 17 -688 6z"/>
<path d="M11354 9911 c4 -13 30 -138 52 -246 7 -36 24 -120 29 -142 3 -13 7
-33 10 -45 3 -13 10 -48 16 -78 5 -30 15 -69 20 -86 5 -16 11 -48 14 -70 2
-21 10 -59 16 -84 6 -25 13 -55 14 -67 2 -11 6 -31 10 -42 3 -12 8 -35 10 -51
2 -16 8 -46 14 -67 6 -21 13 -51 16 -68 3 -16 10 -52 16 -80 5 -27 11 -59 13
-70 2 -11 8 -38 14 -60 6 -22 13 -53 16 -70 2 -16 10 -55 16 -85 6 -30 14 -68
16 -85 3 -16 9 -43 14 -60 5 -16 11 -43 14 -60 3 -16 8 -41 11 -55 3 -14 8
-34 10 -45 1 -11 10 -52 18 -90 9 -39 18 -82 20 -95 3 -14 14 -68 25 -120 12
-52 24 -111 27 -130 3 -19 8 -42 10 -50 4 -13 51 -15 347 -13 189 0 353 1 365
2 17 1 24 9 29 36 3 19 12 39 20 46 8 6 14 19 14 29 0 9 3 20 8 24 4 4 7 11 8
14 0 4 8 25 18 47 9 22 32 76 51 120 18 44 45 107 60 139 15 33 28 65 29 70 1
6 12 34 25 61 12 28 39 88 58 135 19 47 39 90 43 95 5 6 8 14 8 18 0 12 114
281 124 292 4 5 8 14 8 21 0 6 12 38 27 70 15 33 28 61 29 64 6 24 27 70 30
67 6 -5 12 -40 19 -97 8 -70 17 -133 21 -155 2 -11 7 -40 10 -65 3 -25 8 -53
10 -64 2 -10 6 -44 10 -75 3 -31 8 -65 10 -76 6 -26 15 -89 29 -197 6 -43 14
-101 19 -138 2 -14 7 -47 11 -75 8 -65 16 -112 21 -139 2 -11 7 -45 10 -75 3
-30 7 -62 9 -70 1 -9 6 -40 10 -68 4 -29 10 -53 13 -54 22 -3 690 -4 703 -1
13 3 99 157 99 178 0 3 10 20 22 37 13 18 21 32 19 32 -4 0 73 159 360 740 68
138 124 252 124 255 0 3 7 16 15 30 8 14 35 68 60 120 102 209 115 235 123
241 5 3 7 8 6 10 -2 2 23 58 56 124 32 66 58 123 57 128 -1 4 3 7 8 7 6 0 10
4 10 10 0 5 31 71 68 147 38 76 71 145 74 153 5 14 -36 16 -378 15 -242 0
-386 -4 -392 -10 -5 -5 -23 -44 -40 -86 -18 -42 -37 -90 -43 -105 -7 -16 -13
-31 -14 -34 0 -3 -6 -14 -12 -25 -6 -11 -11 -23 -12 -28 0 -4 -7 -23 -15 -42
-9 -20 -15 -38 -15 -40 0 -3 -7 -18 -15 -33 -23 -44 -126 -296 -126 -310 0 -6
-4 -12 -8 -12 -5 0 -9 -6 -9 -12 0 -7 -9 -33 -21 -58 -41 -90 -62 -143 -62
-156 0 -8 -5 -14 -12 -14 -6 0 -9 -2 -6 -5 3 -3 -23 -72 -58 -153 -35 -81 -64
-153 -64 -161 0 -8 -3 -11 -7 -7 -7 7 -10 19 -17 81 -3 22 -7 49 -9 60 -4 19
-18 107 -23 150 -4 32 -25 168 -40 255 -2 14 -11 72 -19 130 -18 122 -23 156
-29 190 -2 14 -10 59 -16 100 -6 41 -14 89 -17 105 -2 17 -6 44 -8 60 -2 17
-9 59 -15 95 l-11 66 -354 -1 c-343 0 -355 -1 -368 -20 -7 -11 -35 -72 -61
-135 -27 -63 -64 -148 -82 -188 -19 -41 -34 -76 -34 -78 0 -3 -11 -29 -24 -58
-13 -29 -68 -154 -121 -277 -54 -123 -105 -242 -115 -264 -10 -22 -28 -65 -41
-95 -13 -30 -25 -57 -28 -60 -4 -3 -7 -12 -9 -20 -2 -8 -10 -28 -18 -44 -8
-16 -14 -36 -14 -45 -1 -32 -18 12 -23 59 -6 54 -56 424 -62 460 -2 14 -7 50
-10 80 -3 30 -8 62 -10 70 -2 8 -7 40 -10 70 -3 30 -8 66 -10 80 -2 14 -7 45
-10 70 -3 25 -8 56 -10 70 -2 14 -7 50 -11 80 -4 30 -8 64 -9 75 -11 74 -16
113 -20 130 -2 11 -4 25 -4 30 -1 7 -131 11 -401 11 -358 0 -400 -1 -396 -15z"/>
<path d="M10669 7458 c-2 -31 -5 -51 -12 -93 -3 -22 -9 -58 -12 -80 -3 -22 -7
-51 -10 -65 -2 -14 -7 -47 -10 -75 -3 -27 -8 -63 -11 -80 -3 -16 -7 -43 -9
-60 -1 -16 -10 -82 -19 -145 -9 -63 -19 -133 -22 -155 -3 -22 -7 -53 -10 -70
-14 -97 -17 -119 -28 -210 -4 -27 -9 -61 -11 -75 -3 -14 -7 -43 -10 -65 -2
-22 -6 -51 -9 -65 -3 -14 -7 -45 -10 -70 -3 -25 -8 -56 -10 -70 -4 -22 -7 -45
-22 -157 -2 -18 -7 -50 -10 -70 -3 -21 -7 -51 -9 -68 -2 -16 -7 -52 -11 -80
-3 -27 -8 -57 -9 -65 -9 -52 -25 -172 -30 -220 -1 -14 -5 -38 -8 -55 -4 -16
-9 -50 -12 -75 -3 -25 -7 -54 -9 -65 -2 -11 -7 -45 -10 -76 -4 -31 -9 -67 -11
-80 -3 -13 -7 -44 -10 -69 -3 -25 -8 -56 -10 -70 -3 -14 -7 -47 -10 -75 -3
-27 -8 -58 -11 -68 -5 -16 19 -17 448 -15 445 3 453 3 454 23 1 11 5 40 8 65
4 25 11 72 16 105 5 33 12 80 15 105 3 25 8 56 11 70 2 14 6 43 9 65 2 22 7
57 10 77 5 37 4 37 -29 36 -18 -1 -38 2 -44 6 -7 4 -12 4 -12 -1 0 -15 -191
-7 -200 8 -5 7 -7 16 -4 21 3 4 7 29 10 55 2 26 6 55 9 63 2 8 7 42 11 74 3
33 7 67 9 77 2 9 6 39 10 66 4 26 9 59 11 73 3 14 6 43 8 65 2 23 6 54 9 70 4
17 9 54 12 84 4 30 8 62 10 71 2 9 6 41 10 70 4 29 8 61 10 70 2 9 6 41 10 70
4 29 9 62 11 74 3 12 6 39 8 61 2 22 7 60 11 85 4 25 8 56 10 70 1 14 5 45 9
70 4 25 9 56 11 70 11 77 16 111 20 146 2 21 6 53 9 69 10 69 19 132 21 155 3
23 7 52 20 135 3 17 7 46 10 66 6 37 9 62 21 160 l6 56 -301 0 c-285 0 -301
-1 -302 -19z"/>
<path d="M3330 7402 c0 -4 -17 -7 -38 -8 -47 -1 -82 -9 -168 -35 -74 -23 -210
-85 -232 -106 -7 -7 -20 -13 -28 -13 -8 0 -14 -4 -14 -10 0 -5 -6 -10 -14 -10
-8 0 -16 -3 -18 -8 -1 -4 -16 -18 -33 -30 -186 -144 -306 -351 -332 -572 -35
-307 44 -495 276 -653 101 -69 195 -111 381 -167 96 -29 136 -45 225 -86 49
-23 106 -75 121 -110 30 -71 10 -155 -50 -208 -32 -28 -96 -67 -117 -71 -11
-2 -23 -6 -28 -9 -14 -9 -124 -10 -161 -1 -96 22 -167 103 -175 202 -2 21 -4
41 -4 44 -1 9 -71 17 -71 9 0 -4 -17 -5 -37 -2 -21 2 -42 3 -48 3 -98 -5 -125
-5 -125 1 0 4 -10 4 -22 0 -23 -8 -97 -7 -105 2 -3 2 -17 1 -32 -4 -16 -4 -34
-4 -41 0 -6 4 -27 4 -46 0 -20 -5 -37 -4 -40 2 -3 5 -11 5 -17 1 -7 -5 -24 -8
-39 -7 -34 1 -40 -19 -37 -134 5 -219 103 -404 290 -545 32 -25 179 -96 207
-102 12 -2 27 -7 32 -10 13 -8 42 -14 145 -29 103 -16 280 -12 365 8 14 3 36
8 50 10 44 7 180 56 243 87 101 50 198 119 278 199 77 77 169 200 169 225 0 8
3 15 8 15 11 0 60 137 79 220 25 116 20 280 -13 390 -56 187 -267 351 -584
455 -276 90 -350 126 -390 189 -26 43 -32 121 -13 161 18 35 82 105 98 105 5
0 24 7 40 16 43 24 169 23 215 0 47 -25 90 -66 90 -87 0 -10 5 -21 10 -24 6
-3 10 -26 10 -51 l0 -44 58 -1 c202 -2 596 2 601 6 2 3 4 51 4 108 0 159 -45
287 -140 404 -53 65 -69 80 -133 125 -25 17 -47 34 -50 38 -15 18 -190 86
-244 96 -14 2 -38 7 -53 10 -40 9 -303 14 -303 6z"/>
<path d="M1064 7038 c-9 -29 -17 -55 -17 -58 0 -3 -14 -43 -30 -90 -16 -47
-30 -89 -31 -95 -1 -5 -17 -55 -35 -110 -44 -134 -42 -129 -43 -135 0 -3 -11
-33 -24 -67 -13 -35 -21 -63 -18 -63 2 0 -1 -10 -7 -22 -7 -13 -15 -36 -19
-53 -3 -16 -12 -31 -20 -31 -8 -1 -195 -2 -415 -3 l-400 -1 25 -20 c14 -11
147 -108 295 -216 149 -107 283 -205 299 -217 15 -12 32 -25 37 -28 9 -5 -55
-212 -168 -549 -25 -74 -47 -146 -49 -159 -3 -13 -9 -32 -14 -42 -25 -45 -3
-39 83 26 39 30 92 69 117 87 25 18 47 35 50 38 3 3 13 10 22 15 38 23 223
160 226 167 2 4 8 8 12 8 5 0 39 23 75 50 51 39 70 48 83 41 9 -5 159 -113
332 -239 173 -127 317 -229 319 -227 3 3 -49 171 -68 220 -9 22 -84 254 -87
270 -2 6 -23 71 -47 145 -41 125 -47 160 -27 160 5 0 19 9 32 20 12 11 134
100 269 197 303 219 297 214 323 235 20 16 0 17 -390 18 l-412 0 -82 253 c-45
138 -84 259 -87 267 -4 8 -7 17 -8 20 -8 32 -77 240 -80 240 -2 0 -11 -24 -21
-52z"/>
<path d="M9328 6735 c-1 -1 -32 -5 -68 -8 -36 -3 -90 -13 -120 -21 -30 -9 -66
-19 -80 -22 -60 -17 -248 -133 -272 -168 -5 -7 -8 -7 -9 -1 -2 14 -2 14 6 70
4 28 8 62 10 76 l4 26 -299 1 c-335 0 -303 8 -315 -78 -4 -25 -9 -58 -11 -75
-3 -16 -7 -48 -9 -69 -6 -51 -14 -109 -25 -176 -5 -30 -12 -80 -15 -110 -3
-30 -8 -62 -10 -70 -3 -8 -7 -36 -9 -61 -3 -25 -7 -57 -10 -70 -3 -13 -8 -46
-11 -74 -8 -58 -12 -91 -19 -143 -3 -20 -15 -102 -26 -182 -11 -80 -22 -155
-24 -167 -3 -12 -7 -50 -11 -84 -4 -35 -8 -66 -10 -69 -1 -3 -6 -30 -9 -60 -4
-30 -9 -68 -11 -85 -12 -72 -15 -93 -20 -140 -3 -27 -8 -59 -10 -71 -3 -11 -7
-40 -10 -65 -3 -24 -7 -55 -10 -68 -2 -13 -7 -49 -11 -80 -3 -31 -8 -65 -10
-75 -2 -11 -8 -54 -14 -95 -6 -42 -12 -87 -14 -101 -2 -14 -7 -47 -11 -75 -3
-27 -9 -66 -12 -85 -8 -54 -10 -71 -18 -130 -4 -30 -8 -59 -9 -65 -1 -11 593
-15 600 -4 2 4 6 26 8 50 3 24 7 53 10 64 2 11 7 45 10 75 4 30 8 66 11 80 2
14 7 41 9 60 3 19 9 67 15 105 5 39 13 93 16 120 4 28 9 64 11 80 3 17 12 77
20 134 8 58 16 107 19 109 2 3 19 -11 38 -29 48 -49 85 -79 113 -91 13 -6 24
-16 24 -21 0 -6 3 -8 6 -5 3 4 29 -4 57 -17 29 -13 64 -26 80 -29 15 -4 39 -9
55 -12 40 -9 200 -11 252 -3 104 17 162 31 220 56 8 3 17 7 20 8 3 1 19 8 35
15 17 7 32 14 35 15 22 7 60 30 60 37 0 4 5 8 11 8 13 0 112 69 117 82 2 4 9
8 15 8 21 0 173 167 228 252 65 97 139 249 154 313 3 11 12 47 20 80 25 97 28
133 29 275 1 128 -8 233 -22 255 -4 6 -7 17 -7 25 0 13 -11 46 -35 105 -5 11
-14 35 -22 53 -7 17 -16 32 -20 32 -5 0 -8 5 -8 11 0 20 -64 104 -126 164
-114 112 -277 187 -435 200 -41 4 -84 8 -96 10 -12 2 -23 2 -25 0z m-78 -599
c112 -27 201 -114 234 -227 19 -63 21 -166 6 -224 -6 -22 -12 -45 -13 -50 -10
-42 -71 -139 -117 -185 -95 -94 -208 -140 -345 -140 -67 0 -168 25 -197 49
-70 56 -92 81 -120 138 -54 110 -48 264 14 388 83 164 256 267 438 260 41 -1
86 -5 100 -9z"/>
<path d="M14557 6734 c-1 -1 -36 -4 -77 -8 -41 -3 -84 -8 -95 -10 -11 -3 -40
-10 -65 -16 -194 -46 -368 -164 -464 -315 -28 -44 -41 -72 -76 -160 -32 -80
-44 -266 -21 -340 24 -78 64 -143 114 -188 41 -37 162 -117 177 -117 6 0 25
-8 43 -17 18 -9 37 -18 42 -20 6 -1 44 -12 85 -23 41 -12 89 -24 105 -26 17
-3 39 -9 50 -14 11 -4 41 -16 68 -26 80 -29 116 -71 113 -136 -2 -43 -17 -62
-75 -99 -37 -24 -52 -27 -106 -25 -51 2 -70 7 -99 29 -36 28 -63 93 -52 123 3
8 2 14 -2 15 -32 4 -586 3 -593 -2 -18 -11 -11 -170 10 -224 23 -62 77 -155
109 -191 59 -65 190 -153 257 -170 6 -2 46 -13 90 -25 82 -22 276 -30 355 -16
19 4 49 9 65 12 17 3 62 15 100 27 39 12 72 22 75 22 16 3 157 81 173 97 12
10 24 19 29 19 16 0 145 135 172 180 41 68 43 72 60 115 16 40 19 48 37 135
14 62 13 209 -1 245 -6 17 -12 32 -12 35 -1 10 -18 55 -30 77 -19 37 -151 153
-174 153 -3 0 -18 8 -32 18 -42 29 -217 90 -310 108 -134 26 -242 100 -242
165 0 43 35 96 64 97 5 0 12 5 15 11 4 6 30 12 58 15 87 7 150 -46 147 -125
-1 -13 33 -15 300 -15 l301 1 1 69 c1 62 -17 164 -34 191 -4 6 -7 13 -7 16 0
22 -125 182 -125 162 0 -4 -5 0 -10 9 -28 47 -206 128 -327 147 -60 10 -181
19 -186 15z"/>
<path d="M7857 6714 c-1 -1 -18 -5 -38 -8 -20 -3 -48 -10 -63 -15 -14 -6 -26
-9 -26 -7 0 9 -179 -86 -206 -109 -6 -5 -24 -21 -40 -34 -16 -13 -44 -37 -62
-54 l-32 -31 5 50 c3 27 8 56 10 64 2 8 7 38 10 66 l6 52 -301 0 c-165 -1
-300 -3 -301 -7 0 -3 -2 -15 -4 -26 -2 -11 -6 -38 -9 -60 -2 -22 -5 -40 -6
-40 -1 0 -3 -16 -5 -35 -7 -66 -14 -115 -16 -117 -1 -2 -2 -11 -3 -20 -3 -29
-18 -136 -21 -154 -2 -9 -6 -40 -10 -70 -3 -30 -8 -61 -10 -69 -3 -8 -7 -40
-9 -70 -3 -30 -8 -66 -11 -80 -7 -34 -15 -89 -20 -140 -2 -23 -7 -50 -9 -59
-3 -9 -8 -45 -11 -81 -4 -36 -8 -67 -10 -70 -2 -3 -6 -34 -10 -70 -4 -36 -9
-74 -11 -85 -6 -29 -14 -87 -19 -131 -2 -21 -6 -48 -9 -59 -2 -11 -7 -45 -11
-75 -3 -30 -9 -68 -11 -85 -3 -16 -7 -43 -9 -60 -1 -16 -6 -50 -10 -75 -4 -25
-9 -56 -10 -70 -2 -14 -4 -25 -5 -25 -1 0 -3 -19 -5 -42 l-4 -42 277 -3 c152
-2 287 -2 299 0 22 3 27 16 38 95 3 20 8 54 11 75 9 61 11 74 19 137 4 33 9
74 12 90 2 17 6 45 9 64 2 19 6 46 9 60 2 14 7 50 10 80 4 30 8 63 11 74 2 11
8 57 14 101 19 139 27 177 47 229 42 107 135 210 234 259 61 30 155 54 243 62
33 3 60 7 62 8 2 3 8 41 29 191 4 27 8 58 11 70 2 11 8 55 14 97 6 42 13 87
15 101 3 13 8 48 11 78 3 30 6 60 7 65 2 9 -68 18 -76 10z"/>
<path d="M4575 6680 c-3 -4 -7 -27 -9 -51 -3 -24 -5 -44 -6 -44 -1 0 -3 -11
-5 -25 -11 -80 -16 -114 -20 -152 -3 -24 -8 -56 -10 -73 -3 -16 -8 -48 -10
-70 -5 -41 -13 -101 -20 -145 -2 -14 -11 -79 -20 -145 -9 -66 -19 -136 -22
-155 -3 -19 -7 -44 -8 -55 -3 -34 -17 -139 -21 -160 -2 -11 -7 -42 -10 -70 -9
-69 -9 -69 -15 -80 -8 -14 -5 -275 4 -304 26 -93 61 -170 97 -211 72 -84 88
-97 164 -139 93 -50 181 -71 316 -75 70 -2 215 14 215 24 0 1 11 4 25 6 51 9
207 94 273 149 65 53 67 55 63 28 -3 -15 -8 -50 -11 -78 -3 -27 -8 -58 -11
-67 -5 -17 13 -18 273 -19 297 -1 314 -1 325 9 4 4 9 30 12 57 4 28 8 61 11
75 2 14 13 93 25 175 11 83 22 161 24 175 17 110 30 208 29 223 0 9 2 17 6 17
3 0 7 15 8 33 2 47 11 132 13 132 3 0 7 25 14 90 3 28 7 59 10 70 2 11 9 61
16 110 6 50 14 101 16 115 4 22 10 68 19 140 2 14 4 25 5 25 1 0 3 16 4 35 2
19 5 51 9 70 7 40 12 73 22 145 3 28 9 66 12 85 3 19 6 49 7 66 2 16 5 35 9
40 18 29 -12 32 -303 31 l-294 -2 -7 -35 c-4 -19 -10 -55 -13 -80 -4 -25 -8
-58 -11 -75 -2 -16 -6 -50 -9 -75 -3 -25 -9 -75 -15 -110 -6 -36 -13 -87 -17
-115 -3 -27 -8 -57 -9 -66 -2 -9 -6 -40 -10 -69 -4 -29 -8 -61 -10 -70 -2 -9
-6 -41 -10 -71 -3 -30 -9 -67 -12 -84 -6 -36 -10 -65 -17 -130 -16 -136 -49
-218 -118 -288 -70 -71 -142 -101 -251 -104 -72 -2 -97 1 -132 18 -93 44 -137
115 -140 229 -1 41 2 91 6 110 4 19 10 60 14 90 3 30 8 62 10 70 3 8 7 38 10
65 3 28 7 61 10 75 4 14 7 41 9 60 2 19 6 51 9 70 7 39 16 96 23 154 3 21 9
59 14 84 4 26 6 50 4 54 -3 5 -2 13 2 20 4 7 9 28 11 48 2 19 10 76 17 125 8
50 12 93 10 97 -6 9 -593 7 -599 -2z"/>
<path d="M11675 6666 c-5 -21 -12 -70 -20 -136 -7 -58 -15 -114 -19 -135 -2
-11 -7 -49 -11 -85 -4 -36 -9 -67 -10 -71 -2 -3 -6 -30 -9 -60 -3 -29 -7 -63
-10 -74 -2 -11 -7 -45 -10 -75 -4 -30 -8 -66 -11 -80 -2 -14 -6 -41 -9 -60 -2
-19 -7 -51 -10 -70 -3 -19 -8 -57 -11 -85 -3 -27 -8 -59 -10 -70 -3 -11 -7
-40 -10 -65 -8 -82 -16 -135 -22 -160 -3 -14 -7 -63 -8 -110 -8 -225 69 -393
227 -501 31 -22 59 -39 61 -39 3 0 22 -8 43 -17 22 -9 44 -18 49 -19 98 -22
126 -26 205 -27 193 -3 343 45 491 159 40 31 77 62 82 68 7 11 5 -26 -8 -131
l-6 -53 283 -1 c269 -1 309 -1 316 6 1 1 5 24 8 51 2 27 6 56 9 64 2 8 7 39
10 69 4 30 8 62 10 71 3 17 15 102 20 150 3 27 12 85 21 140 3 19 8 49 10 65
4 42 15 113 19 135 2 11 6 43 9 72 4 29 8 64 11 78 3 14 8 43 10 65 2 22 7 56
10 75 3 19 7 49 10 65 2 17 6 46 9 65 7 49 37 259 42 293 2 15 6 44 9 65 2 20
8 57 11 82 3 25 8 56 10 70 3 14 7 48 10 75 9 77 11 90 14 90 1 0 3 16 4 36
l2 37 -298 0 c-333 0 -302 8 -313 -78 -5 -45 -13 -103 -20 -150 -8 -55 -35
-248 -40 -290 -3 -25 -8 -54 -10 -66 -6 -28 -18 -125 -19 -146 0 -10 -3 -18
-6 -18 -3 0 -5 -12 -5 -27 -1 -26 -4 -53 -20 -153 -3 -19 -8 -55 -10 -80 -15
-158 -87 -270 -215 -337 -50 -26 -64 -28 -160 -28 -97 0 -108 2 -147 27 -96
63 -133 162 -111 303 16 102 18 121 23 165 3 25 7 56 10 70 2 13 7 42 10 65 4
22 9 54 11 70 3 17 7 46 9 65 2 19 4 35 5 35 2 0 5 22 14 96 3 31 10 80 16
109 5 28 7 56 4 61 -3 5 -2 9 3 9 4 0 8 10 9 23 0 20 4 48 19 147 3 19 7 56
10 82 l4 47 -300 -1 c-296 -1 -299 -1 -304 -22z"/>
</g>
</svg>
